<svg width="274" height="157" fill="none" xmlns="http://www.w3.org/2000/svg"><path d="M9.988 156.314h244.745m12.925.079h-5.709" stroke="#0DDAA7" stroke-miterlimit="10" stroke-linecap="round"/><path opacity=".05" d="M274 156.314c0-19.592-4.153-38.203-11.633-55.004a42.61 42.61 0 004.211-18.514c0-23.557-19.074-42.668-42.629-42.668-4.403 0-8.672.673-12.671 1.924-20.959-13.356-45.84-21.093-72.528-21.093-3.327 0-6.615.116-9.883.366-5.827-4.407-13.095-7.006-20.959-7.006-14.863 0-27.535 9.315-32.534 22.422a136.077 136.077 0 00-28.207 19.977 39.13 39.13 0 00-8.557-.963C17.286 55.755 0 73.057 0 94.401c0 9.295 3.288 17.84 8.749 24.499-3.404 11.875-5.23 24.443-5.23 37.414H274z" fill="#0DDAA7"/><path opacity=".15" d="M236.895 156.314c0-54.773-44.09-99.182-98.469-99.182-54.38 0-98.469 44.409-98.469 99.182h196.938z" fill="#0DDAA7"/><path d="M158.791 151.307v-75.07h-36.279v75.07" stroke="#0DDAA7" stroke-width="2" stroke-miterlimit="10"/><path d="M89.871 151.307V76.236l39.178-35.918h6.52v22.859h-6.52v13.059h-6.539v75.071m-22.838-13.059h13.059" stroke="#0DDAA7" stroke-width="2" stroke-miterlimit="10"/><path d="M152.271 63.176h-23.22v13.06h23.22v-13.06zm-16.603 35.906v-9.8h9.977v9.8m-9.977 19.58v-9.793h9.977v9.793m-9.977 19.585v-9.786h9.977v9.786M99.672 99.082h13.059M99.672 86.023h13.059m-13.059 26.118h13.059m-13.059 13.047h13.059" stroke="#0DDAA7" stroke-width="2" stroke-miterlimit="10"/><path d="M175.296 151.307V50.117h-32.823v13.06h9.799v13.059h6.52v75.071m7.985-81.61v9.799m0 6.527v9.793m0 6.526v9.799m0 6.521v9.799M85.847 65.06a5.043 5.043 0 11-10.078 0" stroke="#0DDAA7" stroke-width="2" stroke-miterlimit="10"/><path d="M80.904 80.156a15.88 15.88 0 01-3.374-.362 15.158 15.158 0 01-9.99-7.459 14.937 14.937 0 01-.99-12.406 15.07 15.07 0 0114.227-10.091" stroke="#0DDAA7" stroke-width="2" stroke-miterlimit="10"/><path d="M80.777 49.838c2.928.004 5.792.857 8.246 2.454a14.587 14.587 0 016.888 11.5m95.597 8.988a4.217 4.217 0 108.435 0" stroke="#0DDAA7" stroke-width="2" stroke-miterlimit="10"/><path d="M195.751 60.062a12.683 12.683 0 0112.558 11.323 12.685 12.685 0 01-9.85 13.743 13.18 13.18 0 01-2.823.305 12.8 12.8 0 01-6.019-1.554 2.623 2.623 0 00-1.566-.298 355.27 355.27 0 00-3.673.5l.076-.577.058-.38c.038-.298.082-.634.126-.9.089-.635.184-1.27.267-1.904a2.486 2.486 0 00-.292-1.427 12.35 12.35 0 01-1.529-7.141 12.215 12.215 0 015.772-9.603 12.726 12.726 0 016.895-2.055m-49.818-40.301a5.072 5.072 0 01-5.074 5.074 5.076 5.076 0 01-5.074-5.074" stroke="#0DDAA7" stroke-width="2" stroke-miterlimit="10"/><path d="M140.805 4.489c2.946.008 5.826.867 8.296 2.473a14.687 14.687 0 016.939 11.556 14.818 14.818 0 01-1.833 8.595 2.898 2.898 0 00-.349 1.718v0c.101.768.209 1.535.317 2.284.051.361.101.723.158 1.084l.057.457.102.691-4.44-.634h-.387a3.17 3.17 0 00-1.503.374 15.305 15.305 0 01-7.243 1.903 16.141 16.141 0 01-3.4-.368 15.264 15.264 0 01-10.034-7.484 15.007 15.007 0 01-.996-12.489 15.16 15.16 0 0114.316-10.16" stroke="#0DDAA7" stroke-width="2" stroke-miterlimit="10"/><path d="M71.764 100.395l-.228-.254a7.929 7.929 0 010-10.713l.228-.253 3.806 3.805-.171.228a2.537 2.537 0 000 3.172l.171.228-3.805 3.787zm0-10.27a7.262 7.262 0 000 9.312l2.918-2.918a3.222 3.222 0 010-3.476l-2.918-2.917zm125.189 27.89h-5.41v-7.922h5.41v7.922zm-4.75-.635h4.097v-6.596h-4.097v6.596zm-11.738-75.42h-5.41V27.64h5.41v14.32zm-4.751-.634h4.098V28.3h-4.098v13.027z" fill="#FF5741" stroke="#FF5741" stroke-miterlimit="10"/><path d="M168.075 7.095L164.27 3.29l.253-.235A7.98 7.98 0 01169.496 1h.342v5.372l-.285.038a2.54 2.54 0 00-1.269.514l-.209.171zm-2.854-3.805l2.918 2.917a3.26 3.26 0 011.04-.431V1.679a7.28 7.28 0 00-3.958 1.636" fill="#FF5741"/><path d="M165.221 3.29l2.918 2.917a3.26 3.26 0 011.04-.431V1.679a7.28 7.28 0 00-3.958 1.636m2.854 3.78L164.27 3.29l.253-.235A7.98 7.98 0 01169.496 1h.342v5.372l-.285.038a2.54 2.54 0 00-1.269.514l-.209.171z" stroke="#FF5741" stroke-miterlimit="10"/><path d="M92.756 17.515v-5.382l.345.013a7.98 7.98 0 014.97 2.063l.242.243-3.799 3.798-.229-.175a2.533 2.533 0 00-1.26-.533l-.269-.027zm.673-4.71v4.127c.369.082.721.228 1.04.43l2.897-2.897a7.282 7.282 0 00-3.955-1.641" fill="#FF5741"/><path d="M93.429 12.806v4.126c.369.082.721.228 1.04.43l2.897-2.897a7.282 7.282 0 00-3.955-1.641m-.655 4.69v-5.381l.345.013a7.98 7.98 0 014.97 2.063l.242.243-3.799 3.798-.229-.175a2.533 2.533 0 00-1.26-.533l-.269-.027z" stroke="#FF5741" stroke-miterlimit="10"/><path d="M108.325 46.667h-4.309v-.275a6.343 6.343 0 016.068-6.068h.274v4.315l-.228.03a2.057 2.057 0 00-1.784 1.784l-.021.214zm-3.755-.509h3.308a2.572 2.572 0 011.967-1.967v-3.328a5.832 5.832 0 00-5.275 5.275" fill="#FF5741"/><path d="M104.57 46.158h3.308a2.572 2.572 0 011.967-1.967v-3.328a5.832 5.832 0 00-5.275 5.275m3.755.529h-4.309v-.275a6.343 6.343 0 016.068-6.068h.274v4.315l-.228.03a2.057 2.057 0 00-1.784 1.784l-.021.214z" stroke="#FF5741" stroke-miterlimit="10"/></svg>