<svg width="141" height="60" fill="none" xmlns="http://www.w3.org/2000/svg"><g opacity=".9" fill="#fff"><path fill-rule="evenodd" clip-rule="evenodd" d="M20.602 3.22A12.238 12.238 0 0012.916 0v7.75a4.814 4.814 0 012.248.952l5.438-5.483zm-5.25 9.835H0V20.8h15.353v-7.745zM11.719 0v7.75a4.685 4.685 0 00-2.714 1.358A4.774 4.774 0 007.67 11.85H0a12.54 12.54 0 013.59-8.206A12.332 12.332 0 0111.719 0zm34.989 0h-7.672v7.75h7.672V0zM0 22.014h7.671v15.51H0v-15.51zm89.784-9.633v7.731a4.69 4.69 0 014.04 4.1h7.702a12.547 12.547 0 00-3.596-8.206 12.317 12.317 0 00-8.147-3.625zm-1.194 0v7.731a4.645 4.645 0 00-2.288.95l-5.448-5.482a12.302 12.302 0 017.736-3.199zm-7.716 21.667a12.297 12.297 0 007.696 3.215v-7.746a4.724 4.724 0 01-2.248-.956l-5.448 5.487zm-.817-17.606l5.423 5.448a4.799 4.799 0 000 5.8l-5.423 5.492a12.54 12.54 0 010-16.745v.005zm21.469 8.974H93.85v11.851h7.676v-11.85zm-69.92-4.353a4.68 4.68 0 00-2.243-.951v-7.75a12.301 12.301 0 017.696 3.219l-5.452 5.482zm-15.149 3.15h7.662a4.745 4.745 0 011.332-2.749 4.66 4.66 0 012.719-1.352v-7.73a12.317 12.317 0 00-8.122 3.644 12.515 12.515 0 00-3.59 8.187zm0 1.203h7.671v11.851h-7.67v-11.85zm44.706-5.304v-7.73a12.248 12.248 0 00-7.676 3.199l5.418 5.482a4.765 4.765 0 012.258-.951zm1.199 17.155v-7.75a4.715 4.715 0 004.046-4.1h7.726a12.515 12.515 0 01-3.61 8.22 12.327 12.327 0 01-8.162 3.63zm-4.309-15.352l-5.418-5.448a12.54 12.54 0 000 16.744l5.418-5.477a4.78 4.78 0 010-5.8v-.02zm3.11 15.352a12.217 12.217 0 01-7.676-3.219l5.447-5.487a4.774 4.774 0 002.249.956l-.02 7.75zM46.707 13.055h-7.672v24.46h7.672v-24.46zM66.407 0h7.672v24.213h-7.671V0zm62.357 25.892h-7.696a4.715 4.715 0 01-1.332 2.738 4.602 4.602 0 01-2.714 1.347v7.766a12.32 12.32 0 008.122-3.65 12.53 12.53 0 003.62-8.201zM104.151 47.43h7.671c.134 1.036.604 2 1.337 2.744a4.701 4.701 0 002.719 1.357v7.75c-3.07-.16-5.97-1.46-8.132-3.645a12.536 12.536 0 01-3.62-8.206h.025zm11.707-9.687v-7.75a4.701 4.701 0 01-2.719-1.358 4.754 4.754 0 01-1.337-2.743h-7.696a12.483 12.483 0 003.596 8.206 12.342 12.342 0 008.132 3.645h.024zm3.928 12.43a4.776 4.776 0 001.327-2.743h7.651a12.5 12.5 0 01-3.59 8.201 12.322 12.322 0 01-8.122 3.65v-7.75a4.702 4.702 0 002.709-1.357h.025zm8.978-37.425h-7.696v11.94h7.696v-11.94zm-24.633 0h7.646v11.94h-7.671l.025-11.94z"/><path d="M93.592 0H88.57v2.125h5.022v.965H88.57v4.646h2.125V5.22h5.026V0h-2.129zm35.167 2.125V0h-7.151v7.736h7.151V5.61h-5.026v-.78h5.026V2.704h-5.026v-.58h5.026zM107.315 0h-2.124v7.736h7.136V5.61h-5.012V0zm5.998 0v4.829h5.021v.782h-5.021v2.125h7.151V2.704h-5.027v-.58h5.027V0h-7.151zm-11.411 5.611H99V0h-2.125v7.736h7.152V0h-2.125v5.611zm33.119 7.493v-.868h-3.926v.868h1.439v3.21h1.042v-3.21h1.445zm5.979 3.21v-4.079h-1.432l-1.221 2.756-1.287-2.755h-1.359v4.078h.99v-2.67l1.221 2.67h.844l1.221-2.704v2.704H141z"/></g></svg>