<svg width="593" height="542" fill="none" xmlns="http://www.w3.org/2000/svg"><path d="M563.664 541.457s93.108-226.347-90.408-226.347c-96.962 0 71.759-155.505 5.855-227.357s-318.761-37.15-367.802 101.63c-49.074 138.778 99.713 260.409-18.723 260.409C0 449.792 0 541.457 0 541.457h563.664z" fill="#DEF8F1"/><path d="M587.835 541.136l-587.67.321c-.082 0-.165-.107-.165-.214v-2.882c0-.107.083-.214.165-.214l587.67-.32c.083 0 .165.107.165.214v2.882c0 .107-.055.213-.165.213z" fill="#068E69"/><path d="M494.412 183.801c-.069-2.429-.62-4.857-1.516-7.286 1.516 1.079 2.688 2.631 3.585 4.183.758 1.281 2.688 1.079 3.171-.338 1.93-6.004 8.686-13.965 30.886-13.965 28.197 0 25.094 14.707 22.544 20.779-.414 1.08.482 2.159 1.654 1.889 4.343-.944 12.41-2.091 16.064.675 5.101 3.913 5.101 12.953 5.101 12.953H490c3.447-5.532 4.688-12.413 4.412-18.89zM76.222 70.815H208.1l-47.676-7.23s-.263-13.947-15.935-8.269c0 0-1.283-10.588-13.387-11.1-12.104-.511-11.315 9.565-11.315 9.565s-15.409-9.82-24.438-.256c-9.045 9.533 5.312 12.124 5.312 12.124l-24.438 5.166z" fill="#A6E6D5"/><path d="M86.959 485.349s-9.284 6.903-11.1 6.491c-1.818-.413 6.788-7.449 6.788-7.449-3.237-1.552-13.297-.578-13.297-.578s-3.354 10.801-5.006 9.959c-1.652-.859 3.453-9.414 3.453-9.414-3.601-.215-8.028 2.461-8.028 2.461-6.047 4.773.396 12.304.396 12.304s-1.239 3.716-5.071 7.101c0 0-5.452 4.03-5.832 11.247l.992.083s1.569-6.722 4.427-9.893c.115-.115.264-.281.479-.479a19.29 19.29 0 001.007-.991c1.421-1.37 3.387-3.104 4.328-3.27 0 0-.05-.181-.033-.479.017.149.033.314.033.479.33 3.799 7.698 7.118 12.241 7.812 4.543.677 3.139-1.189 1.57-3.947-1.57-2.758-6.51-3.997-7.649-5.285-1.123-1.272 1.206-1.272 3.948-.033 2.742 1.255 3.106 4.575 7.5 6.672 4.394 2.098 10.985-5.186 10.985-5.186-3.502-.181-8.49-3.98-8.31-5.136.183-1.156 8.475 1.998 9.896 2.164 1.42.148 4.642-1.619 5.137-7.317.512-5.73-8.854-7.316-8.854-7.316z" fill="#0DAC81" stroke="#0DAC81"/><path d="M37.633 489.643s10.258-5.747 5.468-13.542c0 0-3.833-4.79-7.93-6.012 0 0 2.181 11.627 0 11.908-2.197.28-1.503-13.13-1.503-13.13s-10.803-5.202-15.049-4.789c0 0 6.707 11.346 4.51 11.081-2.197-.28-9.713-11.759-9.713-11.759S2.33 461.353.564 467.909c-1.784 6.573 1.09 9.843 2.742 10.256 1.635.413 12.175.281 11.91 1.635-.28 1.371-7.384 3.551-11.348 2.329 0 0 4.377 10.801 10.126 10.256 5.749-.545 7.516-4.096 11.084-4.377 3.568-.281 6.162.677 4.378 1.635-1.784.958-7.797.314-10.672 2.758-2.874 2.445-5.203 3.947.133 5.038 5.335 1.09 14.916.412 16.833-3.7l1.883-4.096z" fill="#068E69"/><path d="M40.358 499.619c-2.874-5.335-2.742-9.992-2.742-9.992-3.27-10.388-31.997-19.686-31.997-19.686 36.523 14.764 30.097 23.798 30.097 23.798.992.578 2.462 3.32 3.486 5.417.149.363.38.859.727 1.52.132.297.248.545.33.726 1.883 4.707.892 12.833.892 12.833l1.14.313c2.511-8.208-1.933-14.929-1.933-14.929z" fill="#0DAC81" stroke="#0DAC81"/><path d="M53.954 481.716s-13.53-7.581-7.22-17.853c0 0 5.056-6.309 10.457-7.927 0 0-2.89 15.326 0 15.689 2.891.363 1.983-17.308 1.983-17.308s14.24-6.854 19.84-6.309c0 0-8.839 14.963-5.948 14.6 2.891-.364 12.803-15.508 12.803-15.508s14.603-2.709 16.948 5.945c2.346 8.654-1.437 12.981-3.6 13.526-2.165.545-16.058.364-15.694 2.164.363 1.8 9.746 4.69 14.966 3.072 0 0-5.765 14.236-13.347 13.526-7.582-.727-9.912-5.417-14.603-5.764-4.692-.347-8.111.908-5.765 2.164 2.345 1.255 10.275.412 14.074 3.633 3.783 3.22 6.855 5.202-.182 6.639-7.037 1.437-19.657.545-22.185-4.872l-2.527-5.417z" fill="#068E69"/><path d="M96.144 455.754s-37.879 12.254-42.207 25.962c0 0 .182 6.127-3.601 13.163 0 0-5.848 8.868-2.511 19.653l1.503-.396s-1.321-10.702 1.173-16.912c.1-.231.248-.562.43-.958.446-.892.76-1.536.941-2.015 1.355-2.774 3.304-6.375 4.593-7.135.016 0-8.458-11.891 39.678-31.362z" fill="#0DAC81" stroke="#0DAC81"/><path d="M53.491 537.934c14.636 0 26.497-11.858 26.497-26.491H27.01c0 14.633 11.86 26.491 26.48 26.491z" fill="#FF5741"/><path d="M77.08 536.117H29.903c-1.8 0-3.27 1.47-3.27 3.27h53.72c0-1.8-1.454-3.27-3.271-3.27z" fill="#FF5741"/><path d="M80.186 511.46H26.532a.41.41 0 00-.413.413.41.41 0 00.413.413h53.654a.41.41 0 00.413-.413.41.41 0 00-.413-.413z" fill="#E22F67"/><path d="M251.896 377.881s-34.481-90.256-101.992-99.089c-48.879 65.576 15.97 131.151 15.97 131.151l77.916 32.667 8.106-64.729z" fill="#0C9774"/><path d="M214.753 317.267l-19.479 38.232-43.797-76.465c-.484-.121-1.089-.121-1.573-.242-.242.242-.363.484-.605.726l23.471 41.015-38.958-7.985c-.121.363-.121.726-.242 1.089l-.242.968 40.894 8.348 39.079 68.237-68.963-11.857c.363.847.847 1.573 1.21 2.42l68.963 11.857 27.827 48.516 1.331.605.242-2.057-47.548-82.877 19.721-38.716c-.242-.605-.847-1.21-1.331-1.814z" fill="#0DAC81"/><path d="M228.788 417.928s-67.148-44.765-111.43-13.55c6.412 110.462 147.363 110.099 147.363 110.099l-35.933-96.549z" fill="#0DDAA7"/><path d="M117.358 404.378c0 .484 0 .847.121 1.21l95.338 53.355-55.049 22.383c.605.484 1.331.968 2.057 1.452l55.291-22.383 37.264 20.81-1.089-3.025-72.471-40.652-12.462-43.434c-.726-.121-1.573-.121-2.299-.242l12.099 42.225-57.832-32.304c-.363.121-.605.363-.968.605z" fill="#0CC194"/><path d="M415.472 331.059s34.481-90.257 101.992-99.089c48.879 65.576-15.97 131.151-15.97 131.151l-77.916 32.667-8.106-64.729z" fill="#0C9774"/><path d="M452.494 270.444l19.479 38.232 43.797-76.464c.484-.121 1.089-.121 1.573-.242.242.242.363.484.605.726l-23.471 41.015 38.958-7.985c.121.363.121.726.242 1.089l.242.968-40.894 8.348-39.079 68.237 68.963-11.857c-.363.847-.847 1.573-1.21 2.42l-68.963 11.857-27.827 48.516-1.331.605-.242-2.057 47.548-82.877-19.721-38.716c.363-.726.847-1.21 1.331-1.815z" fill="#0DAC81"/><path d="M438.459 371.106s67.148-44.766 111.43-13.551c-6.412 110.462-147.363 110.099-147.363 110.099l35.933-96.548z" fill="#0DDAA7"/><path d="M550.01 357.555c0 .484 0 .847-.121 1.21l-95.338 53.356 55.049 22.383c-.605.483-1.331.967-2.057 1.451l-55.533-22.503-37.022 20.931 1.089-3.025 72.471-40.652 12.462-43.435c.726-.121 1.573-.121 2.299-.242l-12.099 42.225 57.711-32.304c.363.121.726.363 1.089.605z" fill="#0CC194"/><path d="M437.854 105.175l-.484 402.768c0 7.501-6.049 13.43-13.55 13.43l-192.613-.242c-7.501 0-13.429-6.05-13.429-13.551l.484-402.768c0-7.501 6.049-13.43 13.55-13.43l192.613.242c7.38 0 13.429 6.05 13.429 13.551z" fill="#068E69"/><path d="M421.086 102.271H234.667a6 6 0 00-6 6v88.42a6 6 0 006 6h186.419a6 6 0 006-6v-88.42a6 6 0 00-6-6z" fill="#0DAB84"/><path d="M309.282 182.123v-7.467c7.996-1.439 12.545-7.331 12.545-13.634 0-6.165-3.653-11.509-12.89-13.564l-5.997-1.302c-2.689-.617-4.067-2.055-4.067-3.905 0-2.192 1.93-4.453 5.79-4.453 5.446 0 6.618 3.562 7.031 5.686l9.582-2.535c-.965-4.658-4.412-10.071-11.994-11.715v-7.604h-7.928v7.399c-7.237 1.233-13.028 6.508-13.028 14.181 0 6.508 4.757 11.167 12.477 13.017l6.135 1.438c2.757.617 4.274 1.919 4.274 3.906 0 2.671-2.482 4.316-5.928 4.316-5.929 0-8.686-3.563-9.031-7.536l-9.512 2.123c.482 5.618 4.894 12.743 14.613 14.319v7.33h7.928zm-39.926 0v-7.467c7.996-1.439 12.545-7.331 12.545-13.634 0-6.165-3.653-11.509-12.89-13.564l-5.997-1.302c-2.688-.617-4.067-2.055-4.067-3.905 0-2.192 1.93-4.453 5.79-4.453 5.446 0 6.618 3.562 7.031 5.686l9.582-2.535c-.965-4.658-4.412-10.071-11.994-11.715v-7.604h-7.928v7.399c-7.237 1.233-13.028 6.508-13.028 14.181 0 6.508 4.757 11.167 12.477 13.017l6.135 1.438c2.757.617 4.274 1.919 4.274 3.906 0 2.671-2.482 4.316-5.928 4.316-5.929 0-8.686-3.563-9.03-7.536l-9.513 2.123c.482 5.618 4.894 12.743 14.613 14.319v7.33h7.928z" fill="#26CDA3"/><path d="M313.079 213.58h-78.412a6 6 0 00-6 6v78.412a6 6 0 006 6h78.412a6 6 0 006-6V219.58a6 6 0 00-6-6zm0 102.84h-78.412a6 6 0 00-6 6v78.412a6 6 0 006 6h78.412a6 6 0 006-6V322.42a6 6 0 00-6-6zm106.469 0h-78.412a6 6 0 00-6 6v78.412a6 6 0 006 6h78.412a6 6 0 006-6V322.42a6 6 0 00-6-6zm.591 101.629H234.667a6 6 0 00-6 6v78.413a6 6 0 006 6h185.472a6 6 0 006-6v-78.413a6 6 0 00-6-6zm.619-204.469h-78.412a6 6 0 00-6 6v78.412a6 6 0 006 6h78.412a6 6 0 006-6V219.58a6 6 0 00-6-6z" fill="#0DAB84"/><path d="M294.131 253.657h-15.774v-15.775c0-2.218-1.479-4.313-3.698-4.806-3.081-.74-5.915 1.602-5.915 4.683v16.021h-15.775c-2.219 0-4.314 1.479-4.807 3.697-.739 3.082 1.602 5.916 4.683 5.916h16.022v15.775c0 2.218 1.479 4.314 3.697 4.807 3.081.739 5.916-1.726 5.916-4.684v-15.898h15.898c2.835 0 5.176-2.465 4.806-5.423-.369-2.588-2.588-4.313-5.053-4.313zm69.009 125.79c1.848 1.848 4.929 1.848 6.778 0l11.338-11.339 11.338 11.339c1.849 1.848 4.93 1.848 6.779 0 1.848-1.849 1.848-4.93 0-6.779l-11.339-11.338 11.339-11.338c1.848-1.849 1.848-4.93 0-6.779-1.849-1.848-4.93-1.848-6.779 0l-11.338 11.339-11.338-11.339c-1.849-1.848-4.93-1.848-6.778 0-1.849 1.849-1.849 4.93 0 6.779l11.338 11.338-11.338 11.338c-1.849 1.849-1.849 4.93 0 6.779zm1.392-116.844h35.617c1.848 0 3.697-1.232 4.067-3.081a4.016 4.016 0 00-3.944-4.806h-35.617c-1.972 0-3.697 1.232-4.067 3.204-.37 2.465 1.602 4.683 3.944 4.683zm-90.248 108.631c-3.821-.37-7.025 2.711-6.532 6.532.246 2.711 2.588 4.929 5.299 5.299 3.821.37 6.902-2.711 6.532-6.532-.37-2.711-2.588-5.053-5.299-5.299zm-1.356-19.965c3.821.369 6.902-2.712 6.532-6.532-.247-2.712-2.588-5.053-5.3-5.3-3.82-.369-6.901 2.712-6.531 6.532.369 2.835 2.588 5.053 5.299 5.3zm18.486 5.546h-35.617c-1.848 0-3.697 1.232-4.067 3.081a4.016 4.016 0 003.944 4.806h35.617c1.972 0 3.697-1.232 4.067-3.204.493-2.465-1.479-4.683-3.944-4.683zm18.705 103.122h35.617c1.971 0 3.697-1.233 4.067-3.205a4.016 4.016 0 00-3.944-4.806h-35.617c-1.849 0-3.697 1.232-4.067 3.081-.493 2.711 1.479 4.93 3.944 4.93zm0 14.296h35.617c1.971 0 3.697-1.233 4.067-3.205a4.016 4.016 0 00-3.944-4.806h-35.617c-1.849 0-3.697 1.232-4.067 3.081-.493 2.711 1.479 4.93 3.944 4.93z" fill="#26CDA3"/><path d="M331.732 50h3.752a8.852 8.852 0 018.103 5.276l3.562 8.048-7.423 3.563 2.393 1.604 1.305 12.21-27.219-.463-1.033-30.4 16.424.353.136-.19z" fill="#51BF9D"/><path d="M328.768 43.828s.353 3.67.843 5.22c.408 1.116 2.121.953 2.121.953s-1.333 5.819-6.2 5.819-5.629-4.977-5.629-4.977l3.454-.543-1.605-5.303 7.016-1.17z" fill="#F0FAFA"/><path d="M330.726 35.697l-1.115-6.553-11.339 5.058.679 3.834s.871 9.354 6.907 8.239c6.554-1.196 5.167-10.66 4.868-10.578zm16.424 27.628l1.523 5.438a11.028 11.028 0 01-3.1 11.04l-6.962 5.846-2.229-6.526 3.834-3.861a4.448 4.448 0 00.952-4.813l-1.469-3.562 7.451-3.563zm-37.091 1.413l-.843 2.638a13.896 13.896 0 003.127 13.786l4.215 4.46 2.176-10.442-6.037-10.442h-2.638z" fill="#fff"/><path d="M309.217 67.376l3.779 2.203.626-6.282h-3.372l-1.033 4.079z" fill="#51BF9D"/><path d="M318.951 38.444c7.288 1.55 11.394-6.58 11.394-6.58s-.218 1.685.462 4.214c2.447-3.181.843-7.206.843-7.206s-1.985-4.378-10.823-2.23c-10.305 2.502-12.046 16.696-12.046 16.696s-.761 3.1 1.904 8.05c.761 1.386.707 3.126-.245 4.377-2.203 2.882-1.659 6.445-1.659 6.445s.218 1.849 1.795 3.072c1.468 1.142 2.067 3.562 1.495 5.33-1.278 3.78-.19 5.928-.19 5.928s.68 2.42 4.46 2.583c5.52.218 5.384-4.16 4.894-6.635-.19-.952.055-1.903.707-2.61.68-.762 1.414-1.93 1.469-3.508.027-1.332-.49-2.746-1.061-3.916a4.432 4.432 0 01.354-4.622c1.414-1.904 3.235-5.71 2.202-8.185-1.686-4.188-4.623-5.602-5.955-11.203z" fill="#021A14"/><path d="M342.772 70.748h-27.6v16.505h27.6V70.749z" fill="#FF5741"/><path d="M342.771 86.573h-27.599v1.387h27.599v-1.386z" fill="#FF5741"/><path d="M327.87 77.492c0 .598.49 1.114 1.115 1.114a1.12 1.12 0 001.115-1.114 1.12 1.12 0 00-1.115-1.115c-.625 0-1.115.489-1.115 1.115z" fill="#fff"/><path d="M362.513 82.848c3.562 10.687-43.589 15.472-43.589 15.472l-1.114-6.036c-.028 0 41.141-20.122 44.703-9.436z" fill="#021A14"/><path d="M316.069 98.293l-6.771.408-1.278-1.414.653-2.556 6.39-.924 1.006 4.486z" fill="#fff"/><path d="M309.298 94.65l-6.879-.843s-2.665-.707-5.031-.3v6.255c1.795.217 3.562-.027 3.562-.027l8.375-1.034-.081-.136c-.789-1.169-.762-2.8.054-3.915z" fill="#021A14"/><path d="M293.88 96.254c.463-1.767 1.931-2.502 3.535-2.746v6.254c-2.066-.245-4.16-1.06-3.535-3.508zm12.047-1.142h-.68v2.692h.68v-2.692zm-1.714 0h-.679v2.692h.679v-2.692z" fill="#fff"/><path d="M317.782 91.36l1.278 7.803-2.991.572-1.496-7.451 3.209-.925z" fill="#51BF9D"/><path d="M330.726 35.996c-.299.789-.136 1.605.408 1.795.516.19 1.196-.272 1.495-1.06.299-.789.136-1.605-.408-1.795-.516-.218-1.196.245-1.495 1.06z" fill="#fff"/><path d="M293.962 82.848C290.4 93.535 337.551 98.32 337.551 98.32l1.114-6.036s-41.141-20.122-44.703-9.436z" fill="#021A14"/><path d="M340.406 98.293l6.743.408 1.306-1.414-.653-2.556-6.39-.924-1.006 4.486z" fill="#fff"/><path d="M359.114 93.508c-2.393-.408-5.058.299-5.058.299l-6.88.843c.816 1.115.871 2.746.082 3.915l-.082.136 8.376 1.034s1.794.244 3.589.027v-6.254h-.027z" fill="#021A14"/><path d="M362.594 96.254c-.462-1.767-1.93-2.502-3.534-2.746v6.254c2.066-.245 4.16-1.06 3.534-3.508zm-11.366-1.142h-.68v2.692h.68v-2.692zm1.686 0h-.68v2.692h.68v-2.692z" fill="#fff"/><path d="M338.665 91.36l-1.25 7.803 2.991.572 1.468-7.451-3.209-.925z" fill="#51BF9D"/><path d="M506.817 517.259h-47.79v19.842h47.79v-19.842z" fill="#E6503C"/><path d="M430.837 517.259H392v19.842h38.837v-19.842z" fill="#FF7C6A"/><path d="M459.027 517.259h-37.143v19.842h37.143v-19.842z" fill="#FF5741"/><path d="M391.153 516.412h116.39v21.415h-116.39v-21.415zm114.938 1.573H392.726v18.269h113.365v-18.269z" fill="#E8442E"/><path d="M493.872 497.417h-47.79v19.842h47.79v-19.842z" fill="#E6503C"/><path d="M417.891 497.417h-38.837v19.842h38.837v-19.842z" fill="#FF7C6A"/><path d="M446.082 497.417h-37.144v19.842h37.144v-19.842z" fill="#FF5741"/><path d="M378.207 496.691h116.391v21.415H378.207v-21.415zm114.939 1.452H379.78v18.269h113.366v-18.269z" fill="#E8442E"/><path d="M516.375 477.575h-47.79v19.842h47.79v-19.842z" fill="#E6503C"/><path d="M440.274 477.575h-38.837v19.842h38.837v-19.842z" fill="#FF7C6A"/><path d="M469.432 477.333h-37.506v20.568h37.506v-20.568z" fill="#FF5741"/><path d="M400.711 476.849h116.39v21.415h-116.39v-21.415zm114.938 1.573H402.284v18.269h113.365v-18.269z" fill="#E8442E"/><path d="M508.148 457.733h-47.79v19.842h47.79v-19.842z" fill="#E6503C"/><path d="M432.168 457.733h-38.837v19.842h38.837v-19.842z" fill="#FF7C6A"/><path d="M460.358 457.733h-37.143v19.842h37.143v-19.842z" fill="#FF5741"/><path d="M392.484 457.007h116.39v21.415h-116.39v-21.415zm114.938 1.573H394.057v18.269h113.365V458.58z" fill="#E8442E"/><path d="M497.864 438.012h-47.79v19.842h47.79v-19.842z" fill="#E6503C"/><path d="M421.884 438.012h-38.837v19.842h38.837v-19.842z" fill="#FF7C6A"/><path d="M450.074 438.012h-37.143v19.842h37.143v-19.842z" fill="#FF5741"/><path d="M382.2 437.165h116.39v21.415H382.2v-21.415zm114.938 1.573H383.773v18.269h113.365v-18.269z" fill="#E8442E"/><path d="M426.724 432.689s-2.42 2.178-7.865 3.629c-1.21.363-2.54-.121-2.54 1.936h6.654l5.565-.968v.968h3.025s.847-4.839-.968-5.444c-1.694-.121-3.871-.121-3.871-.121z" fill="#021A14"/><path d="M426.965 429.18l-.362 3.509c1.088.726 2.54.847 3.629.121l.242-.121.605-3.509h-4.114z" fill="#fff"/><path d="M450.679 432.689s-2.42 2.178-7.864 3.629c-1.21.363-2.541-.121-2.541 1.936h6.654l5.566-.968v.968h3.025s.846-4.839-.968-5.444c-1.573-.121-3.872-.121-3.872-.121z" fill="#021A14"/><path d="M451.042 429.18l-.363 3.509c1.089.726 2.541.847 3.63.121l.242-.121.605-3.509h-4.114z" fill="#fff"/><path d="M441 280.849l-.605 6.897 7.259.242-1.452-10.526-5.202 3.387z" fill="#F0FAFA"/><path d="M438.822 282.18c-.847 0-1.694-.121-2.057-.484-2.419-3.629.363-13.187.363-13.187l3.872-1.694 4.961 3.145.241 6.413c.121 1.694-.725 3.387-2.177 4.476a11.083 11.083 0 01-5.203 1.331z" fill="#fff"/><path d="M445.235 273.59c-.242-1.089-.121-3.63-1.21-3.388-.847.121-3.509.242-4.477.242-2.178 0-6.17-.847-6.17-4.234 0-1.694 1.694-3.146 2.662-3.509.967-.484 2.177-.363 3.145 0 2.42.847 5.687 2.783 7.018 2.42 2.177-.484 4.355.847 4.355 2.662 0 1.935-1.089 4.96-2.057 6.775a13.027 13.027 0 01-2.178 2.904l-1.088-3.872z" fill="#021A14"/><path d="M447.412 273.832c-.484-.484-1.451-.363-2.056.242-.605.484-.726 1.331-.242 1.815s1.451.363 2.056-.242.726-1.331.242-1.815zm-33.755-22.504c-.242-.363-.847-1.452-.726-4.113.121-2.299 1.815-7.139-.847-6.534-1.573 2.057-3.63 4.356-3.63 4.356-.847 1.331-.484 3.993.121 5.565l2.299 4.719s2.541.726 2.662.726l.605-.968c-.484-1.331-.605-2.541-.484-3.751z" fill="#fff"/><path d="M412.568 250.36l-.242-.242a3.677 3.677 0 01-.605.847c-.242 1.21-.363 2.42-.605 3.63h1.936l3.025-7.743s-.847-.726-1.936.605c-1.21 1.331-1.573 2.903-1.573 2.903z" fill="#fff"/><path d="M436.403 289.439c-12.946-13.913-21.052-36.417-21.052-36.417l-7.018.968s2.541 33.393 21.415 52.146c6.413 6.412 18.511-3.751 6.655-16.697z" fill="#51BF9D"/><path d="M464.593 247.094c.121-.363.484-1.573 0-4.235-.484-2.299-3.146-6.775-.484-6.533 1.935 1.694 4.355 3.508 4.355 3.508 1.089 1.21 1.21 3.751.968 5.445l-1.331 5.081s-2.42 1.21-2.54 1.21l-.726-.847c.242-1.21.121-2.419-.242-3.629z" fill="#fff"/><path d="M465.44 246.005s.121-.121.242-.363l.725.726c.363 1.21.847 2.299 1.331 3.509-.726.121-1.815.363-1.815.363l-4.355-7.018s.605-.847 2.057.242c1.21 1.089 1.815 2.541 1.815 2.541z" fill="#fff"/><path d="M449.469 288.955c10.042-16.091 13.793-39.804 13.793-39.804l7.138-.363s3.751 33.271-11.131 55.17c-5.202 7.501-18.995-.121-9.8-15.003z" fill="#51BF9D"/><path d="M444.025 285.81h-.726c-8.106.242-14.398 11.494-14.398 19.6v29.158h31.215v-33.514c0-7.501-5.323-13.913-12.704-15.123-1.089-.121-2.177-.121-3.387-.121z" fill="#51BF9D"/><path d="M428.901 334.568c-3.629 17.301-4.113 35.933-4.234 51.54-.121 25.166 1.936 43.556 1.936 43.556h5.202l10.768-71.988s1.21 10.768 2.783 28.916c1.209 14.277 1.814 26.255 5.202 43.193h5.203s4.476-52.025 4.476-95.217h-31.336z" fill="#021A14"/><path d="M440.637 283.874h6.533l1.089 2.42h-8.469l.847-2.42z" fill="#51BF9D"/><path d="M435.445 247.993c33.37-1.66 59.076-30.058 57.416-63.427-1.66-33.37-30.058-59.076-63.427-57.416-33.37 1.66-59.076 30.058-57.416 63.427 1.66 33.37 30.058 59.076 63.427 57.416z" fill="#FF5741"/><path d="M452.795 214.904l-34.206 2.985c2.873-3.173 4.852-6.308 5.911-9.405 1.228-3.445 1.843-6.932 1.843-10.458a31.82 31.82 0 00-.231-3.822l-.386-3.203h19.219v-5.759h-20.173a398.893 398.893 0 01-1.613-7.889 50.081 50.081 0 01-.673-8.212c0-1.735.186-3.316.552-4.745h0l.001-.006c.363-1.485.975-2.743 1.829-3.785.851-1.038 1.953-1.839 3.32-2.4l.01-.004.01-.005c1.35-.624 3.088-.95 5.234-.95 3.107 0 5.696.649 7.795 1.92l.008.005.009.005c2.056 1.136 3.144 3.289 3.144 6.645 0 1.811-.185 3.736-.559 5.776l-.094.518.522.067 8.507 1.107.405.053.132-.387c.847-2.478 1.275-4.857 1.275-7.134 0-2.723-.581-5.034-1.776-6.903-1.105-1.845-2.64-3.34-4.597-4.485-1.948-1.141-4.199-1.933-6.744-2.385-2.527-.448-5.203-.671-8.027-.671-6.872 0-12.154 1.563-15.758 4.774-3.601 3.208-5.385 7.558-5.385 12.99 0 3.063.344 5.981 1.035 8.754l.001.003a158.85 158.85 0 002.074 7.344h-4.244v5.759h5.894c.33 1.339.598 2.709.803 4.11l.002.014.003.014c.295 1.441.443 2.92.443 4.437 0 2.957-.591 5.995-1.782 9.118h0l-.003.01c-1.106 3.093-3.22 6.433-6.37 10.02l-.125.141v4.894h43.308v-8.903l-.543.048z" fill="#FF7C6A" stroke="#FF7C6A"/><path d="M432.429 250.481c-34.723 0-62.914-28.19-62.914-62.913 0-34.724 28.191-62.914 62.914-62.914s62.914 28.19 62.914 62.914c0 34.723-28.191 62.913-62.914 62.913zm0-120.987c-32.062 0-58.074 26.133-58.074 58.074 0 32.062 26.133 58.074 58.074 58.074 32.062 0 58.074-26.133 58.074-58.074 0-32.062-26.012-58.074-58.074-58.074z" fill="#E8442E"/><path d="M197.059 533.305h14.738c1.911.273 4.094.819 4.503 2.457 0 0 .273 1.091.273 2.32-.546.682-20.197-.137-20.197-.137l-.136-.136c-1.911-2.457.819-4.504.819-4.504z" fill="#FF5741"/><path d="M216.71 538.082l-20.197-.137.136.819h20.061v-.682z" fill="#FF5741"/><path d="M202.927 533.305h1.364l-.409 1.911h-1.228l.273-1.911zm2.865 0h1.365l-.409 1.911h-1.228l.272-1.911zm-9.689-4.912l.956 4.912c1.228.546 2.729.683 3.957.137l.273-.137.682-4.912h-5.868z" fill="#fff"/><path d="M162.533 533.305h14.738c1.91.273 4.094.819 4.503 2.457 0 0 .273 1.091.273 2.32-.546.682-20.197-.137-20.197-.137l-.136-.136c-1.911-2.457.819-4.504.819-4.504z" fill="#FF5741"/><path d="M182.047 538.082l-20.06-.137.136.819h19.924v-.682z" fill="#FF5741"/><path d="M168.401 533.305h1.364l-.409 1.911h-1.365l.41-1.911zm2.865 0h1.365l-.409 1.911h-1.365l.409-1.911zm-8.051-4.912l-.682 4.912c1.228.546 2.729.683 3.957.137l.273-.137 2.32-4.912h-5.868zm22.107-165.671l-12.145 7.915 3.821 9.689c0 .137.136.273.136.41h1.092c3.275 0 6.005 2.047 7.779 4.639 1.91-.136 3.957-.682 5.731-1.501 1.229-.546 2.32-1.228 2.73-2.047 1.091-6.823-9.144-19.105-9.144-19.105zm15.421 2.456s1.501 14.193-1.501 23.2c1.365 1.228 6.551 6.687 8.188-.41 1.638-7.096-1.774-25.246-1.774-25.246l-4.913 2.456z" fill="#fff"/><path d="M193.51 364.223l-2.865 1.774.955 2.184 3.139-1.365-1.229-2.593z" fill="#E5503C"/><path d="M191.736 366.816c.273.682.273 1.228 0 1.365-.273.136-.682-.273-.955-.956-.273-.682-.273-1.228 0-1.364.273-.137.682.273.955.955zm36.301-12.964c0-.137 0-.137 0 0a26.955 26.955 0 00-2.73-5.05c-2.047-2.865-2.729-4.367-2.729-4.367l-29.613 19.379 1.91 3.684 33.162-12.282v-1.364z" fill="#FF5741"/><path d="M182.593 385.375l-1.092 6.687h9.417l.682-8.188-9.007 1.501z" fill="#F0FAFA"/><path d="M206.884 401.888s11.19-3.548 14.602-8.325c3.548-4.776-2.456-30.841-2.456-30.841l.819-4.64c.409-2.593-1.638-5.049-4.231-5.049h-3.002c-1.228 0-2.047 1.228-1.501 2.456l3.957 8.734s2.866 19.788-1.228 21.289c-4.913 1.774-10.508 2.183-10.508 2.183l3.548 14.193z" fill="#fff"/><path d="M186.005 385.375l-2.866-6.414 1.911-1.228c1.364-.819 1.91-2.593 1.501-4.094l-2.047-6.004s5.731-.683 5.595-6.141c0-2.73-3.821-2.73-3.821-2.73s-1.092 2.457-4.64 2.73c-1.501-.137-5.732.409-8.598 5.322-1.91 3.275-1.091 8.461.546 12.418 1.501 3.548 5.323 5.459 9.007 6.005h3.412v.136zm-11.327 53.359s.546 13.51 3.548 28.249a26.115 26.115 0 01-.819 12.964c-6.686 19.788-15.966 49.401-15.966 49.401h8.324s18.833-35.072 23.609-52.403c4.776-17.332 5.732-22.927 5.732-22.927l-5.732-15.148h-18.696v-.136z" fill="#021A14"/><path d="M181.638 376.096c-.273.955.409 2.32 1.501 3.002 1.228.682 2.456.273 2.729-.682.273-.956-.409-2.32-1.501-3.003-1.228-.682-2.456-.273-2.729.683z" fill="#fff"/><path d="M201.698 438.734h-27.02v-34.663c0-7.642 5.732-13.919 13.374-14.602l18.832-2.32s2.184 3.412 8.325 11.191c-7.37 4.503-15.967 6.687-15.967 6.687l2.456 33.707z" fill="#FF5741"/><path d="M174.678 438.734s3.821 13.783 17.877 29.34c2.32 2.32 5.732 7.233 5.186 14.056l-2.866 47.218h8.461s10.235-39.166 8.052-58.544c-2.184-19.379-9.69-32.07-9.69-32.07h-27.02z" fill="#021A14"/><path d="M223.533 350.576c1.501 3.003 3.412 5.05 4.367 4.64.955-.409.546-3.275-.819-6.277-1.501-3.002-3.411-5.049-4.367-4.64-1.091.409-.682 3.275.819 6.277z" fill="#E5503C"/><path d="M199.651 359.447l.273.136c.819.41 1.911.546 2.866.137h.137c1.501-.546 2.729-1.774 3.138-3.276.273-.682-.409-1.364-1.091-1.228l-1.911.41c-.682.136-1.365.545-1.774 1.228l-1.638 2.593zm92.49 30.897s-11.704 22.488-10.901 27.536c.804 4.933 10.901 13.538 10.901 13.538l1.607-2.753-5.049-11.588 6.541-18.931-3.099-7.802z" fill="#fff"/><path d="M304.649 380.707l-.918 6.425h-5.737l-.574-9.867 7.229 3.442z" fill="#F0FAFA"/><path d="M315.206 409.16v-18.128c-7.344-5.163-12.508-4.704-12.508-4.704-1.262-.114-1.606-.114-3.327-.114 0 0-12.278-.918-10.098 18.471 4.934 16.522 2.524 23.865 2.524 23.865s12.852 5.277 19.967 1.491c-1.722-4.13 1.606-15.489 3.442-20.881z" fill="#51BF9D"/><path d="M296.043 384.263s-4.82 2.868-4.82 7.343c0 2.754 1.148 4.475 2.41 6.425 2.065 3.213 2.065 7.458-.23 10.555l-.114.115c-.918 1.147-1.033 2.295-.804 3.442.918 4.245 6.771 4.934 9.065 1.147a28.357 28.357 0 002.295-4.933c1.033-3.213 0-5.163-1.262-6.31-1.033-1.033-1.147-2.639-.115-3.672 1.836-1.835 3.672-4.704 1.377-7.228-3.901-4.245-4.934-8.146-4.934-8.146l-2.868 1.262z" fill="#021A14"/><path d="M285.257 529.4l3.442.573c.689-4.245 11.36-24.438 12.278-34.993.918-11.588 3.672-24.553 3.672-24.553l-11.475-3.442s-2.869 0 .23 23.75c-7.229 9.523-9.18 30.863-8.147 38.665zm24.671-163.953l-10.557-.459-1.836 7.343c0 .115 0 .229-.115.344.115.115.344.23.459.344l.115.115h.115c1.95 1.377 2.754 3.786 2.639 6.081 1.262.803 2.639 1.262 4.016 1.606 1.033.23 1.951.23 2.525-.115 3.557-3.556 2.639-15.259 2.639-15.259z" fill="#fff"/><path d="M296.043 382.772c2.754.344-1.606 0 2.754.344.115-2.295 7.574-8.376 9.066-9.638 3.672-3.098 3.327-6.884 3.327-6.884s-7.229-7.802-11.934-6.081c-3.672 1.263-4.934 4.131-5.508 6.196-.459 1.606-1.606 4.589 2.295 16.063z" fill="#021A14"/><path d="M293.633 458.38s2.754 16.177 6.426 33.617c-3.901 10.44 2.066 39.697 2.181 39.582.459-.458 2.524 2.066 2.524 2.066s4.36-25.815 5.278-37.518c.918-11.588 2.41-25.815 2.41-25.815l-18.819-11.932z" fill="#fff"/><path d="M301.78 529.973s-1.606 1.377-1.377 3.098c.345 1.721.689 5.851.689 5.851h1.721v-3.901c0-.229 3.557 3.901 4.246 3.901h8.95s.574-2.639-4.59-3.442c-5.393-.688-9.639-5.507-9.639-5.507z" fill="#021A14"/><path d="M298.797 384.263h-2.754c-.574 0-1.148-.459-1.148-1.147v-.23a1.15 1.15 0 011.148-1.147h2.754c.574 0 1.147.459 1.147 1.147v.23c0 .688-.573 1.147-1.147 1.147z" fill="#0DDAA7"/><path d="M311.304 426.14s2.869 16.407 2.869 24.553c0 4.475-2.066 23.52-2.066 23.52s-17.097.459-20.54.459c-.459-13.538-5.508-22.373-5.508-33.158 0-7.572 6.656-14.226 6.656-14.226l18.589-1.148z" fill="#021A14"/><path d="M343.778 407.095l-.803.229c-1.492.459-2.754 1.607-3.213 3.213l-.23.574s-6.77 2.294-14.228 3.327c-7.689-21.799-10.213-23.406-10.213-23.406s-4.934 1.607-4.934 7.573c0 5.048 3.327 19.16 9.639 23.635 1.721 1.262 4.016 1.376 5.967.458 10.212-4.818 17.441-8.949 17.441-8.949l7.689-4.245-3.443-1.835c-.918-.804-2.295-.918-3.672-.574zm-54.735 120.01l-.23 3.671c0 .803.115 1.492.574 2.18.459.689 1.262 1.721 2.639 2.754-2.524.803-4.934-2.065-6.196-4.016-.574-.918-.803-2.065-.688-3.212l.459-2.869 3.442 1.492z" fill="#fff"/><path d="M285.257 529.055s-2.295.23-2.64 1.951c-.344 1.721-1.491 5.163-1.491 5.163l1.262 1.032 1.721-3.442s3.787 5.049 4.361 5.278h9.753s0-3.213-6.081-3.327c-5.623-.115-6.885-6.655-6.885-6.655z" fill="#021A14"/><path d="M152.092 148.097l4.285 8.558-9.045-2.14-31.184-9.746 35.944 3.328z" fill="#0DAB83"/><path d="M156.377 156.655l-15.472-.951 3.808-1.902 11.664 2.853z" fill="#0DAB83"/><path d="M152.092 148.097l2.619-8.319-38.563 4.991 35.944 3.328zm-35.944-3.328l31.184 9.746-4.642 12.004-26.542-21.75z" fill="#0DDAA7"/><path d="M152.926 165.212c.119 0 .119-.119.238-.119.238-.357.238-.713-.119-1.07-.953-.832-2.024-1.545-3.095-2.258-.357-.238-.833-.119-.952.238-.238.356-.119.832.238.951.952.594 1.904 1.307 2.856 2.02.358.357.596.357.834.238zm-11.307 79.392c-.238-.356-.119-.832.238-.951 1.904-1.188 3.808-2.733 5.356-4.635.238-.356.714-.356 1.071-.119.357.238.357.714.119 1.07-1.666 2.021-3.571 3.684-5.713 4.992-.476.119-.833 0-1.071-.357zm8.331-8.082c-.357-.237-.476-.594-.238-.95 1.19-2.021 2.023-4.279 2.619-6.656.119-.357.476-.594.833-.475.357.118.595.475.476.832-.595 2.495-1.548 4.754-2.738 7.012-.119.119-.238.237-.357.237-.119.119-.357.119-.595 0zm3.69-11.053c-.357 0-.714-.356-.714-.832v-.356c.119-2.258 0-4.517-.357-6.775-.119-.356.238-.713.595-.832s.714.238.833.595c.357 2.377.476 4.872.357 7.131v.356a.652.652 0 01-.357.594c-.119.119-.238.119-.357.119zm-.952-11.647c-.357.119-.834-.119-.834-.476-.595-2.139-1.428-4.516-2.38-6.893-.119-.356 0-.832.357-.951s.833 0 .952.357c1.071 2.377 1.786 4.754 2.381 7.012.119.357-.119.713-.357.832 0 .119-.119.119-.119.119zm-4.166-11.053c-.357.119-.833 0-.952-.357-.119-.238-.238-.356-.238-.594-.714.356-1.548.594-2.381.832-.357.119-.833-.119-.952-.476-.119-.356.119-.831.476-.95.714-.238 1.428-.476 2.023-.713a58.745 58.745 0 00-2.499-4.517c-.238-.356-.119-.832.238-.951.357-.237.833-.118.952.238a209.69 209.69 0 012.619 4.754c1.071-.475 2.023-1.07 2.975-1.664.357-.237.833-.119.952.238.238.356.119.832-.238.951a14.002 14.002 0 01-3.213 1.783c.119.118.119.356.238.475.595.356.357.832 0 .951zm5.832-6.062c-.238-.237-.238-.713 0-1.069 1.071-1.07 1.904-2.259 2.618-3.447.476-.713.833-1.545 1.191-2.377.119-.357.595-.594.952-.357.357.119.595.595.357.951-.357.951-.833 1.783-1.309 2.615-.834 1.307-1.786 2.615-2.857 3.684 0 0-.119.119-.238.119-.238.119-.476.119-.714-.119zm-13.926 6.775c-2.618.238-5.117 0-7.498-.594-.357-.119-.595-.476-.476-.832.119-.357.476-.595.833-.476 2.262.594 4.642.713 7.022.594.357 0 .715.238.834.714 0 .356-.119.594-.358.713-.119-.119-.238-.119-.357-.119zm19.52-16.877c-.357-.119-.714-.475-.595-.832.357-2.258.476-4.635.119-7.131-.119-.357.238-.713.595-.832s.714.238.833.594c.357 2.615.357 5.111-.119 7.488 0 .238-.238.475-.357.475-.238.238-.357.238-.476.238zm-31.303 14.738c-.595-.357-1.19-.595-1.666-.951a18.609 18.609 0 01-4.166-3.922c-.238-.357-.119-.832.119-1.07.357-.238.834-.119 1.072.119.952 1.426 2.261 2.615 3.689 3.565.476.357 1.071.595 1.547.951.358.238.477.594.358.951l-.358.357c-.119.118-.357.118-.595 0zm13.212-9.033c-1.548-2.377-2.976-4.16-4.523-5.586-.357-.238-.357-.713 0-1.07.238-.238.714-.356 1.071 0 1.547 1.426 3.095 3.328 4.761 5.824.238.356.119.832-.238.951h-.119c-.357.356-.714.237-.952-.119zm17.496-17.352c-.357.118-.833-.119-.952-.476-.358-1.069-.834-2.02-1.31-2.971-.595-1.189-1.309-2.258-2.023-3.328-.238-.356-.119-.832.119-1.07.357-.237.833-.237 1.071.119.833 1.07 1.547 2.258 2.143 3.447.476 1.07.952 2.139 1.309 3.209.119.475 0 .832-.357 1.07zm-37.611 17.827c-.357.119-.833-.119-.833-.475-.476-2.021-.357-4.041.595-5.824.357-.594.714-1.188 1.19-1.664.238-.237.714-.237 1.072 0 .238.238.238.713 0 1.07a4.256 4.256 0 00-.953 1.426c-.714 1.426-.952 2.971-.476 4.754.119.357-.119.713-.357.832-.119-.238-.238-.238-.238-.119zm12.14-8.319c-2.023-.951-4.522-1.189-6.665-.595-.357.119-.833-.118-.833-.475-.119-.357.119-.832.476-.832 2.499-.594 5.356-.357 7.617.713.357.119.476.594.357.951l-.357.357c-.119-.119-.357 0-.595-.119zm4.642 62.278c.357-.119.476-.476.357-.832-.119-.357-.476-.595-.952-.476-1.071.357-2.261.476-3.452.594-.357 0-.714.357-.714.714 0 .356.357.713.714.713 1.31-.119 2.5-.238 3.69-.595.238-.118.238-.118.357-.118z" fill="#FF5741"/><path d="M512.988 90.452l-25.643-14.029-13.063-2.66-9.797 1.45 48.503 15.239z" fill="#0DDAA7"/><path d="M512.988 90.452l-47.899-12.215-.604-3.023" fill="#0DAB83"/><path d="M463.638 86.46h.121l1.935 7.499 47.173-3.386-49.229-4.112z" fill="#068E69"/><path d="M454.566 82.107l6.773-5.563 51.286 13.908-44.149-1.33-13.91-7.015z" fill="#0DDAA7"/><path d="M346.675 177.043c1.572-.604 3.144-1.209 4.596-2.056a.941.941 0 01.968.242.941.941 0 01-.242.968c-1.573.846-3.145 1.451-4.839 2.056-.604.242-1.209.363-1.814.604-.242.121-.484 0-.605-.121-.121-.12-.242-.241-.242-.362-.121-.363.121-.726.484-.847.484-.121 1.089-.242 1.694-.484zm93.861-100.136a80.62 80.62 0 016.894 1.088.91.91 0 01.605.847.91.91 0 01-.847.604 80.67 80.67 0 00-6.894-1.088c-.121 0-.242-.121-.363-.121-.242-.121-.363-.363-.242-.605.121-.605.484-.846.847-.725zm-11.612.483a.924.924 0 01-.242-.604c0-.363.363-.726.726-.726 2.177 0 4.596.121 7.015.242.363 0 .726.363.605.726 0 .362-.363.725-.726.604-2.419-.242-4.717-.242-6.894-.242-.242.121-.363.121-.484 0zM360.1 168.699c.242-.242.726-.242.968 0 .242.241.242.725 0 .967-1.694 1.693-3.508 3.145-5.443 4.475a1.034 1.034 0 01-.847 0c-.121 0-.121-.121-.121-.121-.242-.363-.121-.726.242-.968 1.814-1.33 3.508-2.781 5.201-4.353zm2.903-2.056c-.241-.242-.362-.726-.12-.968l1.088-1.451c.968-1.33 1.935-2.782 2.661-4.233.242-.363.605-.484.968-.242s.484.605.242.968c-.847 1.451-1.694 2.902-2.782 4.353-.363.484-.726.968-1.21 1.573-.121.121-.605.241-.847 0zm5.806-9.433s-.121 0-.121-.121c-.242-.242-.363-.484-.242-.847.847-2.056 1.572-4.112 2.177-6.53.121-.363.484-.605.847-.484s.605.483.484.846a47.645 47.645 0 01-2.178 6.652c-.242.484-.604.605-.967.484zm18.507-59.502c-.605.726-1.089 1.451-1.694 2.177-.846 1.088-1.572 2.298-2.298 3.386-.242.363-.605.484-.967.242-.242-.242-.363-.605-.121-.967a35.764 35.764 0 012.419-3.508c.604-.725 1.088-1.45 1.693-2.176.242-.242.605-.363.968-.121.242.242.242.725 0 .967zm-6.048 9.191c-1.089 2.056-1.935 4.112-2.782 6.289-.121.363-.484.605-.847.363-.121 0-.121 0-.121-.121-.242-.121-.363-.484-.242-.847.847-2.176 1.694-4.353 2.782-6.409.121-.363.605-.484.968-.242.242.242.363.605.242.967zm13.789-16.931a46.806 46.806 0 00-5.08 4.716c-.242.242-.605.242-.968.121h-.121c-.242-.242-.242-.725 0-.967 1.572-1.693 3.387-3.265 5.201-4.838a.64.64 0 01.968.121c.363.121.363.605 0 .847zm12.821-7.982c-.242.121-.484.121-.726-.12l-.242-.243c-.121-.363 0-.725.363-.967 2.177-.968 4.354-1.814 6.652-2.419.363-.12.726.121.847.484s-.121.725-.484.846c-2.056.726-4.233 1.573-6.41 2.42zm-34.23 53.455c-.121 0-.242-.121-.363-.121-.242-.121-.363-.363-.242-.605l.121-.846c.242-2.056.484-3.991.726-6.047 0-.363.362-.605.725-.605s.605.363.605.726c-.242 2.056-.484 3.991-.726 6.046l-.121.847c0 .363-.362.726-.725.605zm24.675-48.013a1.034 1.034 0 01-.847 0l-.121-.12c-.242-.363-.121-.726.121-.968 1.935-1.33 3.992-2.66 6.048-3.75a.939.939 0 01.967.243.942.942 0 01-.241.967c-2.057 1.089-3.992 2.298-5.927 3.628zm-25.039 50.794c.363 0 .605.363.605.726-.363 2.661-.726 4.958-1.089 6.893a.909.909 0 01-.846.605c-.121 0-.242-.121-.242-.121-.242-.121-.363-.363-.242-.725a121.9 121.9 0 001.089-6.894c0-.242.362-.484.725-.484zm-32.295 40.394c.363-.121.726.121.847.604.121.363-.121.726-.605.847-2.177.484-4.475.726-7.015.846-.121 0-.363 0-.484-.12-.121-.121-.242-.242-.242-.484 0-.363.242-.726.605-.726 2.54-.242 4.717-.605 6.894-.967zm35.803-62.404c.363.121.604.483.484.846-.605 2.056-.968 4.233-1.452 6.773-.121.363-.363.604-.847.604-.121 0-.242-.12-.242-.12-.241-.121-.362-.363-.241-.726.483-2.54.846-4.838 1.451-6.894 0-.362.484-.483.847-.483zm45.843-39.668c.846-.121 1.572-.121 2.419-.242.363 0 .725.242.725.605 0 .362-.242.725-.604.725-.847 0-1.573.121-2.42.242-1.451.121-2.902.363-4.475.726-.242 0-.363 0-.605-.121-.121-.121-.242-.242-.242-.363-.121-.363.121-.726.484-.847 1.694-.241 3.145-.483 4.718-.725z" fill="#FF5741"/><g filter="url(#filter0_d)"><path d="M60.06 416.557l-.055-27.626-1.757.081a40.667 40.667 0 00-25.48 10.514l-1.311 1.178 19.578 19.578 1.17-.902a13.163 13.163 0 016.382-2.641l1.473-.182zm-3.413-24.066l.067 21.188a16.52 16.52 0 00-5.345 2.191l-15.006-15.006a37.425 37.425 0 0120.284-8.373z" fill="#0DDAA7"/></g><g filter="url(#filter1_d)"><path d="M554.158 20l.882.976a30.573 30.573 0 017.959 20.586c0 7.621-2.84 14.966-7.959 20.586l-.882.985-14.553-14.617.679-.887a9.925 9.925 0 002.058-6.054c0-2.191-.724-4.32-2.058-6.053l-.679-.887L554.158 20zm-.106 39.46a28.068 28.068 0 006.435-17.894 28.067 28.067 0 00-6.435-17.894l-11.148 11.211a12.473 12.473 0 010 13.367l11.148 11.21z" fill="#0DDAA7"/></g><defs><filter id="filter0_d" x="1.457" y="360.543" width="102.389" height="102.389" filterUnits="userSpaceOnUse" color-interpolation-filters="sRGB"><feFlood flood-opacity="0" result="BackgroundImageFix"/><feColorMatrix in="SourceAlpha" values="0 0 0 0 0 0 0 0 0 0 0 0 0 0 0 0 0 0 127 0"/><feOffset dy="10"/><feGaussianBlur stdDeviation="15"/><feColorMatrix values="0 0 0 0 0.0509804 0 0 0 0 0.854902 0 0 0 0 0.654902 0 0 0 0.15 0"/><feBlend in2="BackgroundImageFix" result="effect1_dropShadow"/><feBlend in="SourceGraphic" in2="effect1_dropShadow" result="shape"/></filter><filter id="filter1_d" x="509.605" y="0" width="83.394" height="103.133" filterUnits="userSpaceOnUse" color-interpolation-filters="sRGB"><feFlood flood-opacity="0" result="BackgroundImageFix"/><feColorMatrix in="SourceAlpha" values="0 0 0 0 0 0 0 0 0 0 0 0 0 0 0 0 0 0 127 0"/><feOffset dy="10"/><feGaussianBlur stdDeviation="15"/><feColorMatrix values="0 0 0 0 0.0509804 0 0 0 0 0.854902 0 0 0 0 0.654902 0 0 0 0.15 0"/><feBlend in2="BackgroundImageFix" result="effect1_dropShadow"/><feBlend in="SourceGraphic" in2="effect1_dropShadow" result="shape"/></filter></defs></svg>