<?xml version="1.0" encoding="UTF-8"?> <svg xmlns="http://www.w3.org/2000/svg" width="381" height="198" viewBox="0 0 381 198" fill="none"><path d="M14.8542 196.927H354.281" stroke="#0DDAA7" stroke-miterlimit="10" stroke-linecap="round"></path><path d="M8.91667 196.927H1" stroke="#0DDAA7" stroke-miterlimit="10" stroke-linecap="round"></path><path d="M380.01 196.927L364.177 196.927" stroke="#0DDAA7" stroke-miterlimit="10" stroke-linecap="round"></path><path opacity="0.05" d="M381 196.927C381 169.756 375.24 143.945 364.867 120.644C368.6 112.877 370.707 104.175 370.707 94.967C370.707 62.2971 344.253 35.7928 311.587 35.7928C305.48 35.7928 299.56 36.727 294.013 38.4619C264.947 19.9383 230.44 9.20844 193.427 9.20844C188.813 9.20844 184.253 9.36859 179.72 9.71557C171.64 3.6033 161.56 0 150.653 0C130.04 0 112.467 12.9185 105.533 31.0952C91.32 38.6487 78.1733 47.9906 66.4133 58.8005C62.6 57.9464 58.6267 57.466 54.5467 57.466C24.9733 57.466 1 81.4613 1 111.062C1 123.954 5.56 135.804 13.1333 145.04C8.41333 161.508 5.88 178.937 5.88 196.927H381Z" fill="#0DDAA7"></path><path opacity="0.15" d="M329.542 196.927C329.542 120.964 268.396 59.375 192.979 59.375C117.563 59.375 56.4167 120.964 56.4167 196.927H329.542Z" fill="#0DDAA7"></path><path d="M195.02 113.682L186.646 106.983" stroke="#0DDAA7" stroke-width="2" stroke-miterlimit="10"></path><path d="M108.62 126.51C112.799 126.523 116.886 127.738 120.393 130.01C124.995 132.978 128.299 137.581 129.639 142.89C130.979 148.199 130.254 153.819 127.611 158.615V158.615C127.207 159.36 127.035 160.208 127.117 161.052V161.052C127.26 162.14 127.419 163.237 127.569 164.292L127.796 165.833L127.879 166.478L128.022 167.466C125.87 167.164 123.835 166.888 121.75 166.628C121.566 166.616 121.381 166.616 121.197 166.628C120.455 166.628 119.724 166.812 119.07 167.164C115.916 168.889 112.382 169.801 108.787 169.819C107.166 169.818 105.549 169.644 103.964 169.3C100.972 168.632 98.1558 167.336 95.7018 165.499C93.2478 163.661 91.2119 161.323 89.7289 158.64C88.2236 155.961 87.3162 152.988 87.069 149.925C86.8219 146.862 87.2408 143.782 88.297 140.896C89.7702 136.681 92.5178 133.029 96.1591 130.446C99.8004 127.862 104.155 126.475 108.62 126.477" stroke="#0DDAA7" stroke-width="2" stroke-miterlimit="10"></path><path d="M160.897 77.2567C165.077 77.268 169.165 78.4863 172.67 80.7653C175.499 82.5163 177.868 84.9177 179.581 87.7696C181.294 90.6214 182.301 93.8412 182.517 97.1609C182.898 101.396 181.987 105.646 179.905 109.353C179.5 110.097 179.331 110.947 179.419 111.79V111.79C179.57 112.878 179.721 113.975 179.88 115.03C179.947 115.541 180.022 116.052 180.097 116.571L180.181 117.216L180.324 118.196C178.171 117.902 176.137 117.618 174.052 117.358C173.868 117.346 173.683 117.346 173.499 117.358C172.757 117.359 172.026 117.543 171.372 117.894C168.222 119.617 164.696 120.537 161.106 120.574C159.487 120.573 157.873 120.399 156.291 120.054C153.299 119.387 150.482 118.092 148.028 116.254C145.574 114.416 143.538 112.078 142.056 109.395C140.236 106.106 139.304 102.4 139.35 98.6418C139.397 94.8833 140.421 91.2018 142.322 87.9592C144.223 84.7167 146.935 82.0247 150.192 80.1482C153.449 78.2717 157.138 77.2752 160.897 77.2567" stroke="#0DDAA7" stroke-width="2" stroke-miterlimit="10"></path><path d="M166.649 104.111C165.935 104.907 165.066 105.549 164.095 105.998C163.125 106.447 162.072 106.693 161.003 106.721C159.934 106.749 158.871 106.559 157.877 106.162C156.884 105.765 155.983 105.17 155.228 104.412" stroke="#0DDAA7" stroke-width="2" stroke-miterlimit="10"></path><path d="M128.031 129.592L140.592 117.031" stroke="#0DDAA7" stroke-width="2" stroke-miterlimit="10"></path><path d="M218.457 102.645C222.637 102.661 226.724 103.879 230.23 106.154C234.833 109.119 238.139 113.719 239.482 119.027C240.824 124.334 240.104 129.953 237.465 134.75V134.75C237.061 135.495 236.889 136.343 236.971 137.187C237.114 138.275 237.273 139.372 237.423 140.427L237.65 141.968L237.733 142.613L237.876 143.601C235.724 143.3 233.689 143.023 231.604 142.764C231.42 142.751 231.235 142.751 231.051 142.764C230.309 142.763 229.578 142.947 228.924 143.3C225.77 145.024 222.236 145.936 218.641 145.954C217.02 145.953 215.403 145.779 213.818 145.435C210.826 144.767 208.01 143.471 205.556 141.634C203.102 139.796 201.066 137.458 199.583 134.775C198.084 132.098 197.182 129.129 196.937 126.071C196.693 123.012 197.113 119.937 198.168 117.057C199.641 112.842 202.389 109.19 206.03 106.606C209.671 104.023 214.026 102.635 218.491 102.637" stroke="#0DDAA7" stroke-width="2" stroke-miterlimit="10"></path><path d="M212.788 132.07C213.502 131.275 214.371 130.633 215.341 130.184C216.312 129.735 217.363 129.489 218.432 129.46C219.501 129.431 220.564 129.62 221.558 130.015C222.551 130.411 223.453 131.005 224.21 131.761" stroke="#0DDAA7" stroke-width="2" stroke-miterlimit="10"></path><path d="M102.44 155.743C102.44 154.093 103.095 152.51 104.262 151.343C105.429 150.177 107.011 149.521 108.662 149.521C110.312 149.521 111.894 150.177 113.061 151.343C114.228 152.51 114.883 154.093 114.883 155.743" stroke="#0DDAA7" stroke-width="2" stroke-miterlimit="10"></path><path d="M282.689 159.184V163.169" stroke="#0DDAA7" stroke-width="2" stroke-miterlimit="10"></path><path d="M282.689 151.205V155.19" stroke="#0DDAA7" stroke-width="2" stroke-miterlimit="10"></path><path d="M282.689 167.153V171.138" stroke="#0DDAA7" stroke-width="2" stroke-miterlimit="10"></path><path d="M95.3735 56.3815V52.3966" stroke="#0DDAA7" stroke-width="2" stroke-miterlimit="10"></path><path d="M95.3735 64.3605V60.3663" stroke="#0DDAA7" stroke-width="2" stroke-miterlimit="10"></path><path d="M95.3735 48.4115V44.4174" stroke="#0DDAA7" stroke-width="2" stroke-miterlimit="10"></path><path d="M237.726 104.471L252.798 88.5608" stroke="#FF5741" stroke-width="2" stroke-miterlimit="10" stroke-linecap="square"></path><path d="M272.944 45.0177C277.125 45.029 281.213 46.2473 284.718 48.5263C287.546 50.2767 289.915 52.6781 291.627 55.5302C293.338 58.3824 294.343 61.6025 294.557 64.9219C294.94 69.1583 294.032 73.4115 291.953 77.1223V77.1223C291.547 77.8634 291.374 78.7099 291.459 79.5507V79.5507C291.601 80.6392 291.76 81.7362 291.911 82.7913L292.137 84.332L292.221 84.9768L292.363 85.9565L286.091 85.1191C285.907 85.1066 285.722 85.1066 285.538 85.1191C284.796 85.1188 284.065 85.3029 283.412 85.6551C280.254 87.3719 276.722 88.2836 273.129 88.3095C271.507 88.3088 269.89 88.1348 268.305 87.7903C265.313 87.1225 262.497 85.8269 260.043 83.9893C257.589 82.1517 255.553 79.8139 254.07 77.1307C252.572 74.4535 251.67 71.4842 251.425 68.4261C251.181 65.3679 251.601 62.293 252.655 59.412C254.131 55.2074 256.875 51.5645 260.509 48.9862C264.143 46.4078 268.488 45.0212 272.944 45.0177" stroke="#FF5741" stroke-width="2" stroke-miterlimit="10"></path><path d="M279.174 69.1591C279.174 70.8091 278.519 72.3916 277.352 73.5584C276.185 74.7252 274.603 75.3807 272.952 75.3807C271.302 75.3807 269.72 74.7252 268.553 73.5584C267.386 72.3916 266.731 70.8091 266.731 69.1591" stroke="#FF5741" stroke-width="2" stroke-miterlimit="10"></path><path d="M254.473 100.284V87.7235H241.075" stroke="#FF5741" stroke-width="2" stroke-miterlimit="10" stroke-linecap="square"></path><path d="M270.761 123.532V169.091C270.761 171.2 269.923 173.222 268.432 174.713C266.941 176.204 264.919 177.042 262.81 177.042H217.26" stroke="#FF5741" stroke-width="2" stroke-miterlimit="10"></path><path d="M180.881 177.126H185.926" stroke="#FF5741" stroke-width="2" stroke-miterlimit="10"></path><path d="M170.816 177.126H175.848" stroke="#FF5741" stroke-width="2" stroke-miterlimit="10"></path><path d="M190.958 177.126H195.991" stroke="#FF5741" stroke-width="2" stroke-miterlimit="10"></path><path d="M107.388 92.1205V46.5615C107.388 44.4527 108.225 42.4302 109.717 40.939C111.208 39.4478 113.23 38.6101 115.339 38.6101H160.898" stroke="#FF5741" stroke-width="2" stroke-miterlimit="10"></path><path d="M192.604 38.9612H197.649" stroke="#FF5741" stroke-width="2" stroke-miterlimit="10"></path><path d="M182.539 38.9612H187.571" stroke="#FF5741" stroke-width="2" stroke-miterlimit="10"></path><path d="M202.681 38.9612H207.714" stroke="#FF5741" stroke-width="2" stroke-miterlimit="10"></path></svg> 