<?xml version="1.0" encoding="UTF-8"?> <svg xmlns="http://www.w3.org/2000/svg" width="381" height="198" viewBox="0 0 381 198" fill="none"><path d="M14.8542 196.927H354.281" stroke="#0DDAA7" stroke-miterlimit="10" stroke-linecap="round"></path><path d="M8.91667 196.927H1" stroke="#0DDAA7" stroke-miterlimit="10" stroke-linecap="round"></path><path d="M380.01 196.927L364.177 196.927" stroke="#0DDAA7" stroke-miterlimit="10" stroke-linecap="round"></path><path opacity="0.05" d="M381 196.927C381 169.756 375.24 143.945 364.867 120.644C368.6 112.877 370.707 104.175 370.707 94.967C370.707 62.2971 344.253 35.7928 311.587 35.7928C305.48 35.7928 299.56 36.727 294.013 38.4619C264.947 19.9383 230.44 9.20844 193.427 9.20844C188.813 9.20844 184.253 9.36859 179.72 9.71557C171.64 3.6033 161.56 0 150.653 0C130.04 0 112.467 12.9185 105.533 31.0952C91.32 38.6487 78.1733 47.9906 66.4133 58.8005C62.6 57.9464 58.6267 57.466 54.5467 57.466C24.9733 57.466 1 81.4613 1 111.062C1 123.954 5.56 135.804 13.1333 145.04C8.41333 161.508 5.88 178.937 5.88 196.927H381Z" fill="#0DDAA7"></path><path opacity="0.15" d="M329.542 196.927C329.542 120.964 268.396 59.3751 192.979 59.3751C117.563 59.3751 56.4167 120.964 56.4167 196.927H329.542Z" fill="#0DDAA7"></path><path d="M245.257 29H248.41" stroke="#FF5741" stroke-width="3" stroke-miterlimit="10"></path><path d="M238.966 29H242.112" stroke="#FF5741" stroke-width="3" stroke-miterlimit="10"></path><path d="M251.556 29H254.701" stroke="#FF5741" stroke-width="3" stroke-miterlimit="10"></path><path d="M264.116 153.489V156.634" stroke="#FF5741" stroke-width="3" stroke-miterlimit="10"></path><path d="M264.116 147.19V150.336" stroke="#FF5741" stroke-width="3" stroke-miterlimit="10"></path><path d="M264.116 159.78V162.925" stroke="#FF5741" stroke-width="3" stroke-miterlimit="10"></path><path d="M142.729 177H139.584" stroke="#FF5741" stroke-width="3" stroke-miterlimit="10"></path><path d="M117.58 52.5114V49.3658" stroke="#FF5741" stroke-width="3" stroke-miterlimit="10"></path><path d="M117.58 58.8098V55.657" stroke="#FF5741" stroke-width="3" stroke-miterlimit="10"></path><path d="M117.58 46.2203V43.0675" stroke="#FF5741" stroke-width="3" stroke-miterlimit="10"></path><path d="M136.438 177H133.293" stroke="#FF5741" stroke-width="3" stroke-miterlimit="10"></path><path d="M130.14 177H126.994" stroke="#FF5741" stroke-width="3" stroke-miterlimit="10"></path><path d="M248.108 96.3333H242.792V95.9948C242.877 94.0368 243.693 92.1817 245.078 90.7959C246.464 89.4101 248.319 88.5944 250.277 88.5099H250.616V93.8321L250.334 93.8697C249.775 93.9404 249.255 94.1949 248.857 94.5933C248.459 94.9916 248.204 95.5111 248.133 96.07L248.108 96.3333ZM243.476 95.7064H247.557C247.686 95.112 247.983 94.5673 248.413 94.1371C248.843 93.707 249.388 93.4096 249.983 93.2804V89.1744C248.309 89.3284 246.742 90.0634 245.553 91.2519C244.365 92.4405 243.63 94.0076 243.476 95.6814" fill="#FF5741"></path><path d="M243.476 95.7064H247.557C247.686 95.112 247.983 94.5673 248.413 94.1371C248.843 93.707 249.388 93.4096 249.983 93.2804V89.1744C248.309 89.3284 246.742 90.0634 245.553 91.2519C244.365 92.4405 243.63 94.0076 243.476 95.6814M248.108 96.3333H242.792V95.9948C242.877 94.0368 243.693 92.1817 245.078 90.7959C246.464 89.4101 248.319 88.5944 250.277 88.5099H250.616V93.8321L250.334 93.8697C249.775 93.9404 249.255 94.1949 248.857 94.5933C248.459 94.9916 248.204 95.5111 248.133 96.07L248.108 96.3333Z" stroke="#FF5741" stroke-miterlimit="10"></path><path d="M194.378 163.51H189.063V163.171C189.147 161.213 189.963 159.358 191.349 157.972C192.734 156.586 194.589 155.771 196.547 155.686H196.886V161.008L196.604 161.046C196.045 161.117 195.525 161.371 195.127 161.769C194.729 162.168 194.474 162.687 194.404 163.246L194.378 163.51ZM189.746 162.883H193.827C193.956 162.288 194.253 161.744 194.684 161.313C195.114 160.883 195.658 160.586 196.253 160.457V156.351C194.579 156.505 193.012 157.24 191.823 158.428C190.635 159.617 189.9 161.184 189.746 162.858" fill="#FF5741"></path><path d="M189.746 162.883H193.827C193.956 162.288 194.253 161.744 194.684 161.313C195.114 160.883 195.658 160.586 196.253 160.457V156.351C194.579 156.505 193.012 157.24 191.823 158.428C190.635 159.617 189.9 161.184 189.746 162.858M194.378 163.51H189.063V163.171C189.147 161.213 189.963 159.358 191.349 157.972C192.734 156.586 194.589 155.771 196.547 155.686H196.886V161.008L196.604 161.046C196.045 161.117 195.525 161.371 195.127 161.769C194.729 162.168 194.474 162.687 194.404 163.246L194.378 163.51Z" stroke="#FF5741" stroke-miterlimit="10"></path><path d="M212.765 151.072L212.539 150.897C212.176 150.616 211.742 150.44 211.285 150.389L211.003 150.351V145.029H211.342C213.165 145.118 214.902 145.836 216.257 147.06L216.507 147.292L212.765 151.072ZM211.668 149.819C212.035 149.9 212.385 150.044 212.702 150.245L215.58 147.361C214.466 146.445 213.104 145.882 211.668 145.744V149.819Z" fill="#FF5741" stroke="#FF5741" stroke-miterlimit="10"></path><path d="M217.228 81.9841L217.002 81.8086C216.639 81.5277 216.205 81.3521 215.748 81.3008L215.466 81.2632V75.941H215.805C217.629 76.0276 219.366 76.7456 220.72 77.9721L220.97 78.2041L217.228 81.9841ZM216.131 80.7304C216.498 80.8117 216.848 80.9559 217.165 81.1567L220.049 78.273C218.932 77.3575 217.568 76.7945 216.131 76.6557V80.7304Z" fill="#FF5741" stroke="#FF5741" stroke-miterlimit="10"></path><path d="M144.874 49.1169V54.4453L144.592 54.483C144.031 54.5483 143.508 54.8012 143.109 55.2005C142.71 55.5999 142.457 56.1223 142.391 56.6833L142.354 56.9654H137.032V56.6269C137.116 54.6651 137.934 52.8067 139.324 51.4194C140.714 50.0321 142.573 49.2171 144.535 49.1357L144.874 49.1169ZM144.247 53.8812V49.8064C142.567 49.9531 140.991 50.687 139.798 51.8791C138.605 53.0713 137.869 54.6457 137.721 56.326H141.815C141.945 55.7306 142.244 55.1851 142.675 54.754C143.106 54.323 143.652 54.0244 144.247 53.8937" fill="#FF5741"></path><path d="M144.247 53.8812V49.8064C142.567 49.9531 140.991 50.687 139.798 51.8791C138.605 53.0713 137.869 54.6457 137.721 56.326H141.815C141.945 55.7306 142.244 55.1851 142.675 54.754C143.106 54.323 143.652 54.0244 144.247 53.8937M144.874 49.1169V54.4453L144.592 54.483C144.031 54.5483 143.508 54.8012 143.109 55.2005C142.71 55.5999 142.457 56.1223 142.391 56.6833L142.354 56.9654H137.032V56.6269C137.116 54.6651 137.934 52.8067 139.324 51.4194C140.714 50.0321 142.573 49.2171 144.535 49.1357L144.874 49.1169Z" stroke="#FF5741" stroke-miterlimit="10"></path><path d="M239.618 153.605L239.386 153.354C238.065 151.909 237.332 150.021 237.332 148.063C237.332 146.105 238.065 144.218 239.386 142.772L239.618 142.522L243.379 146.283L243.203 146.509C242.853 146.956 242.662 147.508 242.662 148.076C242.662 148.644 242.853 149.196 243.203 149.643L243.379 149.869L239.618 153.605ZM239.618 143.462C238.542 144.754 237.953 146.382 237.953 148.063C237.953 149.745 238.542 151.373 239.618 152.665L242.501 149.781C242.173 149.268 241.998 148.672 241.998 148.063C241.998 147.454 242.173 146.858 242.501 146.346L239.618 143.462Z" fill="#FF5741" stroke="#FF5741" stroke-miterlimit="10"></path><path d="M195.72 41.8389L195.952 42.0896C197.273 43.536 198.006 45.4244 198.006 47.3836C198.006 49.3428 197.273 51.2312 195.952 52.6776L195.72 52.9283L191.959 49.1671L192.134 48.9414C192.485 48.4943 192.676 47.9425 192.676 47.3742C192.676 46.8059 192.485 46.2541 192.134 45.807L191.959 45.5813L195.72 41.8389ZM195.72 51.988C196.796 50.6961 197.385 49.068 197.385 47.3867C197.385 45.7055 196.796 44.0774 195.72 42.7855L192.824 45.6691C193.155 46.1832 193.331 46.7816 193.331 47.393C193.331 48.0044 193.155 48.6029 192.824 49.1169L195.72 51.988Z" fill="#FF5741" stroke="#FF5741" stroke-miterlimit="10"></path><path d="M144.88 160.375H139.539V152.552H144.88V160.375ZM140.185 159.748H144.235V153.197H140.185V159.748Z" fill="#FF5741" stroke="#FF5741" stroke-miterlimit="10"></path><path d="M150.196 71.3836V66.0426H158.02V71.3836H150.196ZM150.823 66.6883V70.7379H157.374V66.6883H150.823Z" fill="#FF5741" stroke="#FF5741" stroke-miterlimit="10"></path><path d="M237.038 66.4375H231.69V50.9975H237.038V66.4375ZM232.342 65.8106H236.392V51.6432H232.342V65.8106Z" fill="#FF5741" stroke="#FF5741" stroke-miterlimit="10"></path><path d="M140.793 97.1545L137.032 93.3932L137.282 93.1613C138.63 91.9329 140.363 91.2106 142.185 91.1177H142.523V96.4399L142.241 96.4775C141.784 96.5287 141.351 96.7043 140.987 96.9853L140.793 97.1545ZM137.978 93.3932L140.856 96.2769C141.173 96.0761 141.523 95.9319 141.89 95.8506V91.7759C140.453 91.9107 139.09 92.4742 137.978 93.3932Z" fill="#FF5741"></path><path d="M137.978 93.3932L140.856 96.2769C141.173 96.0761 141.523 95.9319 141.89 95.8506V91.7759C140.453 91.9107 139.09 92.4742 137.978 93.3932M140.793 97.1545L137.032 93.3932L137.282 93.1613C138.63 91.9329 140.363 91.2106 142.185 91.1177H142.523V96.4399L142.241 96.4775C141.784 96.5287 141.351 96.7043 140.987 96.9853L140.793 97.1545Z" stroke="#FF5741" stroke-miterlimit="10"></path><path d="M160.552 154.138H155.211V148.79H160.552V154.138ZM155.857 153.511H159.906V149.461H155.857V153.511Z" fill="#FF5741" stroke="#FF5741" stroke-miterlimit="10"></path><path d="M212.33 38.4148H248.285C249.949 38.4148 251.546 39.0761 252.723 40.2531C253.9 41.4302 254.561 43.0267 254.561 44.6913V80.6537" stroke="#0DDAA7" stroke-width="2" stroke-miterlimit="10"></path><path d="M254.702 125.346V161.309C254.702 162.973 254.04 164.57 252.863 165.747C251.686 166.924 250.09 167.585 248.425 167.585H212.47" stroke="#0DDAA7" stroke-width="2" stroke-miterlimit="10"></path><path d="M169.233 167.585H133.271C131.606 167.585 130.01 166.924 128.833 165.747C127.656 164.57 126.994 162.973 126.994 161.309V125.346" stroke="#0DDAA7" stroke-width="2" stroke-miterlimit="10"></path><path d="M127.063 80.7225V44.7601C127.063 43.0954 127.724 41.499 128.902 40.3219C130.079 39.1449 131.675 38.4836 133.34 38.4836H169.302" stroke="#0DDAA7" stroke-width="2" stroke-miterlimit="10"></path><path d="M206.854 111.642C206.854 113.444 207.569 115.172 208.844 116.447C210.118 117.721 211.847 118.437 213.649 118.437C215.451 118.437 217.18 117.721 218.454 116.447C219.728 115.172 220.444 113.444 220.444 111.642" stroke="#0DDAA7" stroke-width="2" stroke-miterlimit="10"></path><path d="M209.812 91.5314C211.091 91.2813 212.39 91.1533 213.693 91.149" stroke="#0DDAA7" stroke-width="2" stroke-miterlimit="10"></path><path d="M213.693 91.149C218.726 91.1557 223.58 93.0196 227.324 96.3833C231.068 99.7471 233.439 104.374 233.982 109.378C234.526 114.382 233.204 119.41 230.27 123.499C227.335 127.589 222.995 130.451 218.081 131.539C216.588 131.864 215.064 132.028 213.536 132.028C210.142 132.006 206.806 131.145 203.826 129.52C203.209 129.19 202.52 129.016 201.82 129.012C201.646 129.014 201.472 129.024 201.299 129.044" stroke="#0DDAA7" stroke-width="2" stroke-miterlimit="10"></path><path d="M177.942 82.5859C177.914 83.4961 178.07 84.4025 178.399 85.2515C178.728 86.1005 179.224 86.8747 179.858 87.5283C180.492 88.1819 181.251 88.7015 182.09 89.0563C182.928 89.4112 183.83 89.594 184.74 89.594C185.651 89.594 186.552 89.4112 187.391 89.0563C188.229 88.7015 188.988 88.1819 189.622 87.5283C190.256 86.8747 190.753 86.1005 191.082 85.2515C191.411 84.4025 191.566 83.4961 191.539 82.5859" stroke="#0DDAA7" stroke-width="2" stroke-miterlimit="10"></path><path d="M165.385 89.1368C164.47 86.489 164.128 83.677 164.382 80.8871C165.009 74.1795 168.144 68.9764 173.673 65.4095C176.98 63.2598 180.837 62.1105 184.781 62.0995" stroke="#0DDAA7" stroke-width="2" stroke-miterlimit="10"></path><path d="M184.781 62.0996C188.994 62.0958 193.104 63.4034 196.54 65.841C199.976 68.2786 202.569 71.7253 203.957 75.7028C204.953 78.4222 205.349 81.3246 205.118 84.2114C204.888 87.0981 204.036 89.9009 202.622 92.4279C201.131 95.1447 199.038 97.4842 196.504 99.2672" stroke="#0DDAA7" stroke-width="2" stroke-miterlimit="10"></path><path d="M180.368 119.954C180.398 121.028 180.212 122.097 179.822 123.098C179.432 124.099 178.845 125.011 178.096 125.781C177.347 126.551 176.451 127.164 175.462 127.582C174.472 128 173.409 128.215 172.334 128.215C171.26 128.215 170.197 128 169.207 127.582C168.218 127.164 167.322 126.551 166.573 125.781C165.824 125.011 165.237 124.099 164.847 123.098C164.457 122.097 164.271 121.028 164.301 119.954" stroke="#0DDAA7" stroke-width="2" stroke-miterlimit="10"></path><path d="M172.287 95.7002C176.961 95.7079 181.532 97.0663 185.452 99.6119C192.003 103.825 195.701 109.981 196.435 117.911C196.867 122.635 195.852 127.379 193.526 131.514V131.545C193.075 132.375 192.885 133.32 192.981 134.259V134.303C193.144 135.52 193.319 136.736 193.488 137.92C193.576 138.491 193.658 139.061 193.739 139.638L193.833 140.353L193.99 141.456L186.994 140.503C186.786 140.477 186.577 140.465 186.367 140.466C185.536 140.477 184.72 140.692 183.991 141.092C180.471 143.013 176.529 144.032 172.519 144.058C170.713 144.055 168.912 143.86 167.147 143.475C163.799 142.732 160.648 141.285 157.902 139.232C155.156 137.179 152.877 134.565 151.218 131.564C149.547 128.579 148.539 125.269 148.262 121.859C147.986 118.45 148.446 115.02 149.613 111.805C151.259 107.104 154.325 103.03 158.387 100.149C162.449 97.2667 167.307 95.7188 172.287 95.719" stroke="#0DDAA7" stroke-width="2" stroke-miterlimit="10"></path></svg> 