<?xml version="1.0" encoding="UTF-8"?> <svg xmlns="http://www.w3.org/2000/svg" width="381" height="198" viewBox="0 0 381 198" fill="none"><path d="M14.8542 196.927H354.281" stroke="#0DDAA7" stroke-miterlimit="10" stroke-linecap="round"></path><path d="M8.91667 196.927H1" stroke="#0DDAA7" stroke-miterlimit="10" stroke-linecap="round"></path><path d="M380.01 196.927L364.177 196.927" stroke="#0DDAA7" stroke-miterlimit="10" stroke-linecap="round"></path><path opacity="0.05" d="M381 196.927C381 169.756 375.24 143.945 364.867 120.644C368.6 112.877 370.707 104.175 370.707 94.967C370.707 62.2971 344.253 35.7928 311.587 35.7928C305.48 35.7928 299.56 36.727 294.013 38.4619C264.947 19.9383 230.44 9.20844 193.427 9.20844C188.813 9.20844 184.253 9.36859 179.72 9.71557C171.64 3.6033 161.56 0 150.653 0C130.04 0 112.467 12.9185 105.533 31.0952C91.32 38.6487 78.1733 47.9906 66.4133 58.8005C62.6 57.9464 58.6267 57.466 54.5467 57.466C24.9733 57.466 1 81.4613 1 111.062C1 123.954 5.56 135.804 13.1333 145.04C8.41333 161.508 5.88 178.937 5.88 196.927H381Z" fill="#0DDAA7"></path><path opacity="0.15" d="M329.542 196.927C329.542 120.964 268.396 59.375 192.979 59.375C117.563 59.375 56.4167 120.964 56.4167 196.927H329.542Z" fill="#0DDAA7"></path><path d="M267 67.432L267 62.4628" stroke="#FF5741" stroke-width="2" stroke-miterlimit="10"></path><path d="M267 77.3477L267 72.39" stroke="#FF5741" stroke-width="2" stroke-miterlimit="10"></path><path d="M267 57.505L267 52.5473" stroke="#FF5741" stroke-width="2" stroke-miterlimit="10"></path><path d="M113.718 167.085V162.127" stroke="#FF5741" stroke-width="2" stroke-miterlimit="10"></path><path d="M113.718 177V172.042" stroke="#FF5741" stroke-width="2" stroke-miterlimit="10"></path><path d="M113.718 157.157V152.2" stroke="#FF5741" stroke-width="2" stroke-miterlimit="10"></path><path d="M191.485 86.4274L198.381 97.3408L211.282 97.839L203.036 107.779L206.543 120.204L194.55 115.431L183.813 122.606L184.647 109.72L174.502 101.73L187.021 98.5379L191.485 86.4274Z" stroke="#FF5741" stroke-width="2" stroke-miterlimit="10"></path><path d="M160.75 59.1134L169.612 64.6597L179.209 60.5047L176.674 70.6443L183.592 78.4873L173.157 79.2116L167.84 88.2171L163.933 78.5159L153.726 76.2478L161.741 69.5294L160.75 59.1134Z" stroke="#FF5741" stroke-width="2" stroke-miterlimit="10"></path><path d="M210.161 55.6543L213.297 63.8022L221.778 65.832L215.003 71.3306L215.689 80.0217L208.37 75.2855L200.308 78.6209L202.557 70.1966L196.896 63.5639L205.606 63.097L210.161 55.6543Z" stroke="#FF5741" stroke-width="2" stroke-miterlimit="10"></path><path d="M182.512 32.7742L185.565 38.2017L191.89 38.7899L187.526 43.3347L188.862 49.3878L183.116 46.7781L177.613 49.9269L178.423 43.7707L173.692 39.6608L179.94 38.4679L182.512 32.7742Z" stroke="#FF5741" stroke-width="2" stroke-miterlimit="10"></path><path d="M208.224 27.8394L210.448 31.7928L215.055 32.2213L211.876 35.5318L212.849 39.9408L208.664 38.0399L204.655 40.3335L205.246 35.8493L201.799 32.8557L206.351 31.9867L208.224 27.8394Z" stroke="#FF5741" stroke-width="2" stroke-miterlimit="10"></path><path d="M152.452 177H138.449C135.834 177.003 133.325 175.97 131.471 174.126C129.616 172.283 128.569 169.78 128.556 167.165V144.867" stroke="#0DDAA7" stroke-width="2" stroke-miterlimit="10"></path><path d="M232.407 53.3894H242.286C243.585 53.3879 244.871 53.6424 246.071 54.1383C247.271 54.6342 248.362 55.3617 249.281 56.2794C250.199 57.1971 250.928 58.2869 251.426 59.4865C251.923 60.686 252.179 61.9719 252.179 63.2704V85.5228" stroke="#0DDAA7" stroke-width="2" stroke-miterlimit="10"></path><path d="M159.325 132.434L147.203 120.36V118.635C147.203 117.262 147.748 115.944 148.718 114.972C149.688 114 151.004 113.453 152.378 113.451H154.102L171.361 130.709C174.82 134.168 174.82 139.343 174.82 139.343V153.151H155.827V149.702C155.827 149.702 155.827 146.242 152.378 142.793L140.265 130.709C136.815 127.259 136.815 123.809 136.815 123.809V96.1733C136.873 94.838 137.444 93.5765 138.409 92.652C139.374 91.7274 140.658 91.2113 141.995 91.2113C143.331 91.2113 144.616 91.7274 145.581 92.652C146.546 93.5765 147.117 94.838 147.174 96.1733V109.982" stroke="#0DDAA7" stroke-width="2" stroke-miterlimit="10"></path><path d="M221.42 132.434L233.504 120.36V118.635C233.501 117.261 232.954 115.943 231.983 114.972C231.011 114 229.694 113.453 228.32 113.451H226.595L209.336 130.709C205.887 134.168 205.887 139.343 205.887 139.343V153.151H224.87V149.702C224.87 149.702 224.87 146.242 228.32 142.793L240.403 130.709C243.853 127.259 243.853 123.809 243.853 123.809V96.1733C243.853 95.4937 243.719 94.8208 243.459 94.193C243.199 93.5652 242.818 92.9947 242.337 92.5142C241.857 92.0337 241.286 91.6526 240.659 91.3925C240.031 91.1325 239.358 90.9986 238.678 90.9986C237.999 90.9986 237.326 91.1325 236.698 91.3925C236.07 91.6526 235.5 92.0337 235.019 92.5142C234.539 92.9947 234.158 93.5652 233.898 94.193C233.638 94.8208 233.504 95.4937 233.504 96.1733V109.982" stroke="#0DDAA7" stroke-width="2" stroke-miterlimit="10"></path><path d="M202.428 165.235V154.876C202.428 154.649 202.472 154.424 202.56 154.214C202.647 154.004 202.775 153.813 202.936 153.653C203.097 153.493 203.289 153.366 203.499 153.28C203.709 153.194 203.935 153.15 204.162 153.151H226.595C227.052 153.151 227.491 153.333 227.815 153.656C228.138 153.98 228.32 154.419 228.32 154.876V165.235" stroke="#0DDAA7" stroke-width="2" stroke-miterlimit="10"></path><path d="M152.377 165.235V154.876C152.377 154.419 152.559 153.98 152.883 153.656C153.206 153.333 153.645 153.151 154.102 153.151H176.545C177.002 153.151 177.441 153.333 177.764 153.656C178.088 153.98 178.27 154.419 178.27 154.876V165.235" stroke="#0DDAA7" stroke-width="2" stroke-miterlimit="10"></path></svg> 