<?xml version="1.0" encoding="UTF-8"?> <svg xmlns="http://www.w3.org/2000/svg" width="381" height="198" viewBox="0 0 381 198" fill="none"><path d="M14.8542 196.927H354.281" stroke="#0DDAA7" stroke-miterlimit="10" stroke-linecap="round"></path><path d="M8.91667 196.927H1" stroke="#0DDAA7" stroke-miterlimit="10" stroke-linecap="round"></path><path d="M380.01 196.927L364.177 196.927" stroke="#0DDAA7" stroke-miterlimit="10" stroke-linecap="round"></path><path opacity="0.05" d="M381 196.927C381 169.756 375.24 143.945 364.867 120.644C368.6 112.877 370.707 104.175 370.707 94.967C370.707 62.2971 344.253 35.7928 311.587 35.7928C305.48 35.7928 299.56 36.727 294.013 38.4619C264.947 19.9383 230.44 9.20844 193.427 9.20844C188.813 9.20844 184.253 9.36859 179.72 9.71557C171.64 3.6033 161.56 0 150.653 0C130.04 0 112.467 12.9185 105.533 31.0952C91.32 38.6487 78.1733 47.9906 66.4133 58.8005C62.6 57.9464 58.6267 57.466 54.5467 57.466C24.9733 57.466 1 81.4613 1 111.062C1 123.954 5.56 135.804 13.1333 145.04C8.41333 161.508 5.88 178.937 5.88 196.927H381Z" fill="#0DDAA7"></path><path opacity="0.15" d="M329.542 196.927C329.542 120.964 268.396 59.375 192.979 59.375C117.563 59.375 56.4167 120.964 56.4167 196.927H329.542Z" fill="#0DDAA7"></path><path d="M148.859 72.423L161.422 72.423L161.422 59.8593" stroke="#FF5741" stroke-width="2" stroke-miterlimit="10"></path><path d="M160.633 71.6336L142.025 53.0251" stroke="#FF5741" stroke-width="2" stroke-miterlimit="10"></path><path d="M223.096 59.8592L223.096 72.423L235.66 72.423" stroke="#FF5741" stroke-width="2" stroke-miterlimit="10"></path><path d="M223.886 71.6337L242.494 53.0253" stroke="#FF5741" stroke-width="2" stroke-miterlimit="10"></path><path d="M147.537 136.642L160.101 136.642L160.101 149.206" stroke="#FF5741" stroke-width="2" stroke-miterlimit="10"></path><path d="M159.311 137.431L140.703 156.04" stroke="#FF5741" stroke-width="2" stroke-miterlimit="10"></path><path d="M221.774 149.206L221.774 136.642L234.338 136.642" stroke="#FF5741" stroke-width="2" stroke-miterlimit="10"></path><path d="M222.564 137.431L241.172 156.04" stroke="#FF5741" stroke-width="2" stroke-miterlimit="10"></path><path d="M245.678 29H248.83" stroke="#FF5741" stroke-width="2" stroke-miterlimit="10"></path><path d="M239.387 29H242.532" stroke="#FF5741" stroke-width="2" stroke-miterlimit="10"></path><path d="M251.976 29H255.122" stroke="#FF5741" stroke-width="2" stroke-miterlimit="10"></path><path d="M264.536 153.489V156.634" stroke="#FF5741" stroke-width="2" stroke-miterlimit="10"></path><path d="M264.536 147.19V150.336" stroke="#FF5741" stroke-width="2" stroke-miterlimit="10"></path><path d="M264.536 159.78V162.925" stroke="#FF5741" stroke-width="2" stroke-miterlimit="10"></path><path d="M143.149 177H140.004" stroke="#FF5741" stroke-width="2" stroke-miterlimit="10"></path><path d="M118 52.5114V49.3658" stroke="#FF5741" stroke-width="2" stroke-miterlimit="10"></path><path d="M118 58.8098V55.657" stroke="#FF5741" stroke-width="2" stroke-miterlimit="10"></path><path d="M118 46.2202V43.0674" stroke="#FF5741" stroke-width="2" stroke-miterlimit="10"></path><path d="M136.859 177H133.713" stroke="#FF5741" stroke-width="2" stroke-miterlimit="10"></path><path d="M130.56 177H127.415" stroke="#FF5741" stroke-width="2" stroke-miterlimit="10"></path><path d="M212.75 38.4148H248.705C250.37 38.4148 251.966 39.0761 253.143 40.2531C254.32 41.4302 254.982 43.0267 254.982 44.6913V80.6537" stroke="#0DDAA7" stroke-width="2" stroke-miterlimit="10"></path><path d="M255.122 125.346V161.309C255.122 162.973 254.461 164.57 253.283 165.747C252.106 166.924 250.51 167.585 248.845 167.585H212.89" stroke="#0DDAA7" stroke-width="2" stroke-miterlimit="10"></path><path d="M169.654 167.585H133.691C132.027 167.585 130.43 166.924 129.253 165.747C128.076 164.57 127.415 162.973 127.415 161.309V125.346" stroke="#0DDAA7" stroke-width="2" stroke-miterlimit="10"></path><path d="M127.483 80.7221V44.7596C127.483 43.095 128.144 41.4986 129.321 40.3215C130.498 39.1444 132.095 38.4832 133.759 38.4832H169.722" stroke="#0DDAA7" stroke-width="2" stroke-miterlimit="10"></path><path d="M201.531 102.177C201.531 104.653 200.548 107.027 198.797 108.778C197.047 110.528 194.672 111.512 192.197 111.512C189.721 111.512 187.347 110.528 185.596 108.778C183.845 107.027 182.862 104.653 182.862 102.177" stroke="#0DDAA7" stroke-width="2" stroke-miterlimit="10"></path><path d="M192.138 74.0422C197.566 74.0524 202.876 75.6301 207.429 78.5858C215.038 83.4788 219.327 90.6291 220.186 99.8399C220.68 105.327 219.503 110.835 216.807 115.64V115.677C216.282 116.639 216.058 117.738 216.167 118.83V118.881C216.349 120.293 216.553 121.706 216.756 123.082L217.04 125.077L217.157 125.907L217.332 127.189C214.55 126.803 211.885 126.46 209.206 126.082C208.01 125.934 206.799 126.163 205.74 126.737C201.646 128.964 197.067 130.147 192.408 130.181C190.31 130.178 188.218 129.951 186.168 129.504C182.279 128.641 178.619 126.961 175.429 124.576C172.239 122.191 169.593 119.155 167.666 115.67C164.366 109.619 163.391 102.572 164.926 95.8531C166.46 89.1345 170.397 83.2084 175.996 79.1901C180.713 75.8419 186.354 74.043 192.138 74.0422" stroke="#0DDAA7" stroke-width="2" stroke-miterlimit="10"></path></svg> 