<?xml version="1.0" encoding="UTF-8"?> <svg xmlns="http://www.w3.org/2000/svg" width="381" height="198" viewBox="0 0 381 198" fill="none"><path d="M14.8542 196.927H354.281" stroke="#0DDAA7" stroke-miterlimit="10" stroke-linecap="round"></path><path d="M8.91667 196.927H1" stroke="#0DDAA7" stroke-miterlimit="10" stroke-linecap="round"></path><path d="M380.01 196.927L364.177 196.927" stroke="#0DDAA7" stroke-miterlimit="10" stroke-linecap="round"></path><path opacity="0.05" d="M381 196.927C381 169.756 375.24 143.945 364.867 120.644C368.6 112.877 370.707 104.175 370.707 94.967C370.707 62.2971 344.253 35.7928 311.587 35.7928C305.48 35.7928 299.56 36.727 294.013 38.4619C264.947 19.9383 230.44 9.20844 193.427 9.20844C188.813 9.20844 184.253 9.36859 179.72 9.71557C171.64 3.6033 161.56 0 150.653 0C130.04 0 112.467 12.9185 105.533 31.0952C91.32 38.6487 78.1733 47.9906 66.4133 58.8005C62.6 57.9464 58.6267 57.466 54.5467 57.466C24.9733 57.466 1 81.4613 1 111.062C1 123.954 5.56 135.804 13.1333 145.04C8.41333 161.508 5.88 178.937 5.88 196.927H381Z" fill="#0DDAA7"></path><path opacity="0.15" d="M329.542 196.927C329.542 120.964 268.396 59.375 192.979 59.375C117.563 59.375 56.4167 120.964 56.4167 196.927H329.542Z" fill="#0DDAA7"></path><path d="M153.936 124.057C153.965 125.056 153.787 126.05 153.414 126.981C153.041 127.912 152.48 128.76 151.764 129.476C151.048 130.193 150.192 130.762 149.246 131.151C148.3 131.539 147.283 131.74 146.257 131.74C145.23 131.74 144.213 131.539 143.267 131.151C142.321 130.762 141.465 130.193 140.749 129.476C140.033 128.76 139.472 127.912 139.099 126.981C138.726 126.05 138.548 125.056 138.577 124.057" stroke="#0DDAA7" stroke-width="2" stroke-miterlimit="10"></path><circle cx="146.353" cy="122.617" r="21.6067" stroke="#0DDAA7" stroke-width="2" stroke-miterlimit="10"></circle><path d="M178.848 152.184C178.848 154.965 176.628 157.105 173.985 157.105H161.617L171.448 177L132.125 157.105H119.863C117.114 157.105 115 154.858 115 152.184V92.6054C115 89.8243 117.22 87.6851 119.863 87.6851H173.879C176.628 87.6851 178.742 89.9313 178.742 92.6054V152.184H178.848Z" stroke="#0DDAA7" stroke-width="2" stroke-miterlimit="10" stroke-linejoin="round"></path><path d="M241.907 99.364C241.936 100.363 241.758 101.357 241.385 102.288C241.012 103.218 240.451 104.067 239.735 104.783C239.019 105.499 238.163 106.069 237.217 106.457C236.271 106.846 235.255 107.046 234.228 107.046C233.201 107.046 232.184 106.846 231.238 106.457C230.292 106.069 229.436 105.499 228.72 104.783C228.004 104.067 227.443 103.218 227.07 102.288C226.697 101.357 226.52 100.363 226.548 99.364" stroke="#0DDAA7" stroke-width="2" stroke-miterlimit="10"></path><path d="M218.279 83.4509C222.234 79.0699 227.957 76.3164 234.324 76.3164C246.257 76.3164 255.93 85.9901 255.93 97.9231C255.93 109.856 246.257 119.53 234.324 119.53C224.799 119.53 216.714 113.368 213.838 104.813" stroke="#0DDAA7" stroke-width="2" stroke-miterlimit="10"></path><path d="M220.602 62.7627H262.357C265.105 62.7627 267.219 65.0089 267.219 67.683V127.262C267.219 130.043 265 132.182 262.357 132.182H250.095L210.771 152.078L220.602 132.182H208.34C205.592 132.182 203.478 129.936 203.478 127.262V105.013" stroke="#0DDAA7" stroke-width="2" stroke-miterlimit="10" stroke-linejoin="round"></path><path d="M189.433 65.4111C189.462 66.4098 189.284 67.4039 188.911 68.3346C188.538 69.2654 187.977 70.114 187.261 70.8302C186.545 71.5464 185.689 72.1157 184.743 72.5045C183.797 72.8932 182.781 73.0935 181.754 73.0935C180.727 73.0935 179.71 72.8932 178.764 72.5045C177.818 72.1157 176.962 71.5464 176.246 70.8302C175.53 70.114 174.969 69.2654 174.596 68.3346C174.223 67.4039 174.046 66.4098 174.074 65.4111" stroke="#0DDAA7" stroke-width="2" stroke-miterlimit="10"></path><path d="M184.151 85.4559C195.002 84.3071 203.456 75.126 203.456 63.9703C203.456 52.0372 193.783 42.3635 181.85 42.3635C169.917 42.3635 160.243 52.0372 160.243 63.9703C160.243 71.3127 163.905 77.7997 169.503 81.7042" stroke="#0DDAA7" stroke-width="2" stroke-miterlimit="10"></path><path d="M149.355 80.1984V32.9203C149.355 30.1393 151.575 28 154.218 28H208.235C210.983 28 213.097 30.2462 213.097 32.9203V92.4993C213.097 95.2803 210.877 97.4196 208.235 97.4196H195.972L186.247 112.502" stroke="#FF5741" stroke-width="2" stroke-miterlimit="10" stroke-linejoin="round"></path><path d="M208.34 167.159H213.203" stroke="#FF5741" stroke-width="2" stroke-miterlimit="10" stroke-linejoin="round"></path><path d="M198.509 167.159H203.372" stroke="#FF5741" stroke-width="2" stroke-miterlimit="10" stroke-linejoin="round"></path><path d="M188.678 167.159H193.541" stroke="#FF5741" stroke-width="2" stroke-miterlimit="10" stroke-linejoin="round"></path><path d="M218.065 167.159H223.034" stroke="#FF5741" stroke-width="2" stroke-miterlimit="10" stroke-linejoin="round"></path></svg> 