<?xml version="1.0" encoding="UTF-8"?> <svg xmlns="http://www.w3.org/2000/svg" width="614" height="517" viewBox="0 0 614 517" fill="none"><path d="M589.433 517C589.433 517 682.338 278.248 499.223 278.248C402.472 278.248 570.825 114.221 505.065 38.4308C439.305 -37.3592 186.999 -0.754336 138.066 145.63C89.0989 292.015 237.562 420.311 119.384 420.311C27.0001 420.311 27 517 27 517H589.433Z" fill="#DEF8F1"></path><path d="M310.17 103.748H293V83H310.17V103.748ZM295.093 101.743H308.097V85.0644H295.093V101.743Z" fill="#0DDAA7" stroke="#0DDAA7" stroke-miterlimit="10"></path><path d="M27 243H168.579C168.579 243 176.276 233.417 168.579 227C164.351 223.417 159.361 223.833 155.724 224.833C153.356 225.5 150.988 223.917 150.48 221.583C149.634 217.667 146.928 212.5 139.316 209.417C131.789 206.417 127.053 211 124.346 215.667C123.416 217.25 121.048 217 120.456 215.25C118.088 207.833 109.799 198 82.5661 198C47.9747 198 51.7806 216.167 54.9099 223.667C55.4174 225 54.3179 226.333 52.8801 226C47.5518 224.833 37.6565 223.417 33.174 226.833C27 231.75 27 243 27 243Z" fill="#A6E5D4"></path><path d="M613.835 516.735L27.1648 517C27.0824 517 27 516.912 27 516.824V514.441C27 514.353 27.0824 514.265 27.1648 514.265L613.835 514C613.918 514 614 514.088 614 514.176V516.559C614 516.647 613.945 516.735 613.835 516.735Z" fill="#068E69"></path><path d="M489.915 211.444C489.854 209.289 489.364 207.134 488.569 204.979C489.915 205.937 490.955 207.314 491.75 208.691C492.423 209.828 494.136 209.649 494.564 208.391C496.277 203.064 502.272 196 521.969 196C546.989 196 544.236 209.05 541.973 214.438C541.606 215.395 542.401 216.353 543.441 216.114C547.295 215.276 554.452 214.258 557.694 216.712C562.221 220.184 562.221 228.206 562.221 228.206H486C489.059 223.297 490.16 217.191 489.915 211.444Z" fill="#A6E6D5"></path><path d="M27 99.2778H144.015L101.712 92.8631C101.712 92.8631 101.478 80.4879 87.5721 85.526C87.5721 85.526 86.434 76.131 75.6941 75.6769C64.9543 75.2228 65.6547 84.1636 65.6547 84.1636C65.6547 84.1636 51.9818 75.4498 43.9707 83.9365C35.945 92.3948 48.684 94.6939 48.684 94.6939L27 99.2778Z" fill="#A6E6D5"></path><g filter="url(#filter0_d)"><path d="M55.3798 469.956L55.3314 445.443L53.7716 445.514C45.3709 445.901 37.3782 449.199 31.1641 454.844L30 455.889L47.3714 473.26L48.4098 472.46C50.0541 471.189 52.0086 470.38 54.0728 470.116L55.3798 469.956ZM52.3515 448.601L52.411 467.402C50.7272 467.766 49.1219 468.425 47.6682 469.346L34.3531 456.031C39.4711 451.813 45.7387 449.226 52.3515 448.601Z" fill="#0DDAA7"></path></g><g filter="url(#filter1_d)"><path d="M560.913 43.9999L561.695 44.8656C566.238 49.8521 568.758 56.3693 568.758 63.1319C568.758 69.8945 566.238 76.4116 561.695 81.3982L560.913 82.2717L548 69.302L548.603 68.515C549.786 66.9774 550.428 65.0881 550.428 63.1437C550.428 61.1993 549.786 59.31 548.603 57.7724L548 56.9854L560.913 43.9999ZM560.819 79.0135C564.509 74.5546 566.529 68.9368 566.529 63.1358C566.529 57.3348 564.509 51.717 560.819 47.2581L550.927 57.2058C552.052 58.9768 552.649 61.0344 552.649 63.1358C552.649 65.2372 552.052 67.2948 550.927 69.0659L560.819 79.0135Z" fill="#0DDAA7"></path></g><path d="M363.1 149C363.1 149 356.2 100.9 387 83C434.8 121.3 397 168.2 397 168.2L363.1 149Z" fill="#0DDAA7"></path><path opacity="0.5" d="M387 83C387.2 83.1 387.3 83.3 387.5 83.4L381.2 140.3L410.5 120C410.6 120.4 410.6 120.8 410.7 121.2L381 141.7L379.2 158.1L378.2 157.5L381.8 124.8L366 111.5C366.1 111.1 366.2 110.8 366.3 110.4L382 123.5L386.5 83.3C386.6 83.2 386.8 83.1 387 83Z" fill="white"></path><path d="M372.7 149.7C372.7 149.7 397.2 99.4999 436 100.2C454.7 136.7 417.1 163.7 417.1 163.7L375.8 173.3L372.7 149.7Z" fill="#0CC194"></path><path d="M400.8 113.8L407.2 134.3L435.3 100.2C435.6 100.2 435.8 100.2 436.1 100.2C436.2 100.3 436.2 100.5 436.3 100.6L421.3 118.9L441.2 118.2C441.2 118.4 441.2 118.6 441.2 118.8V119.3L420.3 120L395.2 150.5L430.2 150.4C429.9 150.8 429.7 151.1 429.4 151.5L394.3 151.6L376.5 173.2L375.8 173.4V172.3L406.2 135.3L399.7 114.5C400.2 114.3 400.5 114.1 400.8 113.8Z" fill="#1AD3A5"></path><path d="M379 162.3C379 162.3 422.3 145.9 441.6 165C429.2 219.1 359.6 207.1 359.6 207.1L379 162.3Z" fill="#0C9774"></path><path d="M441.6 165C441.6 165.2 441.5 165.4 441.5 165.6L389.9 184L415.3 199.7C414.9 199.9 414.6 200.1 414.2 200.3L388.7 184.5L368.6 191.7L369.4 190.3L408.6 176.3L418.4 155.9C418.8 155.9 419.2 155.9 419.6 156L410.1 175.9L441.3 164.7C441.3 164.7 441.5 164.9 441.6 165Z" fill="#13AB85"></path><path d="M327.7 189.7C327.7 189.7 333.2 151.1 308.5 136.8C270.2 167.6 300.5 205.2 300.5 205.2L327.7 189.7Z" fill="#0DDAA7"></path><path opacity="0.5" d="M308.5 136.8C308.4 136.9 308.2 137 308.1 137.1L313.2 182.8L289.7 166.5C289.6 166.8 289.6 167.1 289.6 167.4L313.4 183.9L314.9 197.1L315.7 196.6L312.8 170.3L325.5 159.6C325.4 159.3 325.3 159 325.2 158.7L312.7 169.3L309 137C308.8 137 308.7 136.9 308.5 136.8Z" fill="white"></path><path d="M320 190.3C320 190.3 300.3 150 269.2 150.5C254.2 179.8 284.4 201.5 284.4 201.5L317.5 209.2L320 190.3Z" fill="#0CC194"></path><path d="M297.5 161.5L292.4 178L269.9 150.6C269.7 150.6 269.5 150.6 269.3 150.6C269.2 150.7 269.2 150.8 269.1 150.9L281.2 165.6L265.2 165.1C265.2 165.3 265.2 165.4 265.2 165.6V166L282 166.6L302.1 191H274C274.2 191.3 274.4 191.6 274.7 191.9H302.9L317.2 209.3L317.8 209.4V208.6L293 178.7L298.2 162C298 161.9 297.7 161.7 297.5 161.5Z" fill="#1AD3A5"></path><path d="M315 200.4C315 200.4 280.2 187.2 264.7 202.6C274.7 246 330.5 236.4 330.5 236.4L315 200.4Z" fill="#0C9774"></path><path d="M264.7 202.6C264.7 202.8 264.8 202.9 264.8 203.1L306.2 217.9L285.8 230.5C286.1 230.7 286.4 230.8 286.7 231L307.2 218.3L323.4 224.1L322.7 223L291.2 211.8L283.3 195.4C283 195.4 282.7 195.4 282.4 195.5L290.1 211.4L265 202.4C264.9 202.4 264.8 202.5 264.7 202.6Z" fill="#13AB85"></path><path d="M286 315H251.123L246 219H286V315Z" fill="#248FFB"></path><path d="M336.2 179.6H300.8V315.4H336.2V179.6Z" fill="#EB5768"></path><path d="M336.3 315.4H300.8V179.6H340.1L336.3 315.4Z" fill="#248FFB"></path><path d="M386.3 315.4H350.9V131.3H396.7L386.3 315.4Z" fill="#248FFB"></path><path fill-rule="evenodd" clip-rule="evenodd" d="M395.446 150.605L387.588 145.675L419 125.232L413.017 161.63L404.833 156.496L335.235 238.914L309.308 221.962L257.454 281.295H241L306.815 208.499L332.742 224.953L395.446 150.605Z" fill="#FF5741"></path><path d="M441.3 280.8H170.2V316.9H441.3V280.8Z" fill="#0C9774"></path><path d="M427.9 316.9L386.8 505.9H228.9L184.6 316.9H427.9Z" fill="#0CC194"></path><path d="M576.208 506L511.948 306H507.558L571.818 506H576.208Z" fill="#A2D7C5"></path><path d="M536.395 506L472.035 306H467.645L532.004 506H536.395Z" fill="#A2D7C5"></path><path d="M531.904 368.275V371.868L490.594 371.768L489.896 368.275H531.904Z" fill="#A2D7C5"></path><path d="M523.323 345.022V348.615H482.113L481.315 345.022H523.323Z" fill="#A2D7C5"></path><path d="M516.339 321.868V325.361H475.029L474.33 321.768L516.339 321.868Z" fill="#A2D7C5"></path><path d="M539.388 391.728V395.321H498.078L497.38 391.728H539.388Z" fill="#A2D7C5"></path><path d="M546.473 415.281V418.874L505.163 418.774L504.464 415.281H546.473Z" fill="#A2D7C5"></path><path d="M553.757 439.732L555.453 443.226H514.143L513.445 439.633L553.757 439.732Z" fill="#A2D7C5"></path><path d="M561.54 464.084L563.137 467.677H521.926L521.228 464.084H561.54Z" fill="#A2D7C5"></path><path d="M568.724 488.036L570.42 491.628L529.11 491.528L528.412 488.036H568.724Z" fill="#A2D7C5"></path><path d="M405.281 506L469.541 306H465.15L400.89 506H405.281Z" fill="#021A14"></path><path d="M445.094 506L509.453 306H505.063L440.703 506H445.094Z" fill="#021A14"></path><path d="M445.194 368.275V371.868L486.504 371.768L487.202 368.275H445.194Z" fill="#021A14"></path><path d="M453.775 345.022V348.614H495.085L495.784 345.022H453.775Z" fill="#021A14"></path><path d="M460.86 321.868V325.361H502.07L502.768 321.768L460.86 321.868Z" fill="#021A14"></path><path d="M437.71 391.728V395.321H479.02L479.718 391.728H437.71Z" fill="#021A14"></path><path d="M430.625 415.281V418.874L471.935 418.774L472.634 415.281H430.625Z" fill="#021A14"></path><path d="M423.341 439.732L421.645 443.226H462.955L463.653 439.633L423.341 439.732Z" fill="#021A14"></path><path d="M415.658 464.084L413.962 467.677H455.272L455.97 464.084H415.658Z" fill="#021A14"></path><path d="M408.374 488.036L406.678 491.628L447.988 491.528L448.686 488.036H408.374Z" fill="#021A14"></path><path d="M448.981 224.164C448.981 224.164 466.449 212.683 470.741 206.992C474.933 201.301 477.528 173.348 469.243 188.622C460.959 203.897 445.886 221.668 445.886 221.668L448.981 224.164Z" fill="white"></path><path d="M448.981 224.164V227.458C448.981 228.556 448.681 229.754 448.083 230.653L445.787 234.546L443.691 223.165L445.787 221.568L448.981 224.164Z" fill="white"></path><path d="M468.445 165.36L471.14 172.549L478.626 169.254L471.939 159.271L468.445 165.36Z" fill="white"></path><path d="M466.848 167.657C465.95 168.056 465.152 168.356 464.553 168.156C460.36 165.76 458.364 154.678 458.364 154.678L461.458 151.084L468.046 151.783L471.54 158.173C472.438 159.87 472.438 161.966 471.54 163.763C470.342 165.46 468.745 166.858 466.848 167.657Z" fill="white"></path><path d="M469.044 155.876C468.245 154.878 467.148 152.282 466.149 153.081C465.451 153.58 462.656 155.078 461.757 155.577C459.561 156.675 455.169 157.773 453.473 154.379C452.674 152.682 453.572 150.385 454.371 149.487C455.169 148.588 456.367 147.989 457.565 147.89C460.46 147.59 464.652 147.89 465.75 146.991C467.746 145.493 470.541 145.693 471.44 147.59C472.338 149.587 472.837 153.081 472.737 155.477C472.737 156.875 472.438 158.173 471.939 159.47L469.044 155.876Z" fill="#021A14"></path><path d="M471.44 155.078C470.741 154.878 469.843 155.377 469.443 156.276C469.044 157.174 469.344 157.973 470.042 158.173C470.741 158.372 471.639 157.873 472.039 156.975C472.438 156.076 472.138 155.277 471.44 155.078Z" fill="white"></path><path d="M434.008 239.338C434.008 239.338 426.422 235.345 415.542 236.942C415.342 236.243 414.145 236.144 414.145 236.144L428.818 232.25L434.008 239.338Z" fill="#FF5741"></path><path d="M425.624 229.455C425.624 229.355 421.531 220.969 429.716 215.777C437.901 210.686 444.289 221.668 444.389 221.767L443.291 222.566C443.092 222.167 437.502 212.583 430.415 217.075C423.328 221.468 426.622 228.456 426.821 228.756L425.624 229.455Z" fill="#FF5741"></path><path d="M480.523 167.757C495.895 177.042 492.302 219.172 492.302 219.172H466.648C466.648 219.172 463.155 186.027 471.04 170.552C472.737 167.058 477.129 165.76 480.523 167.757Z" fill="#51BF9D"></path><path d="M447.883 234.247L444.988 222.666C444.688 221.468 443.391 220.769 442.193 221.268L426.921 227.259C425.324 227.858 424.825 229.954 425.923 231.252L433.908 240.636C433.908 240.636 437.701 241.036 442.193 238.939C446.785 236.743 447.883 234.247 447.883 234.247Z" fill="#FF5741"></path><path d="M504.778 313.915C504.778 313.915 504.778 318.407 495.795 321.103C493.998 321.702 494.597 322.201 494.198 323C497.192 323 504.579 323 504.579 323L508.671 318.407L509.969 319.506L512.863 316.61C512.863 316.61 511.466 312.417 509.27 312.417C507.374 313.116 504.778 313.915 504.778 313.915Z" fill="#51BF9D"></path><path d="M503.181 310.121L504.878 314.014C506.375 314.414 508.072 313.915 509.07 312.717L509.27 312.517L507.873 308.524L503.181 310.121Z" fill="#F0FAFA"></path><path d="M480.623 266.593C480.623 267.092 503.481 310.92 503.481 310.92L507.773 308.424C507.773 308.424 500.187 273.182 491.702 258.607C490.405 256.41 489.606 254.014 489.407 251.518C487.909 236.942 486.911 231.252 486.911 231.252L477.828 264.197L480.623 266.593Z" fill="#021A14"></path><path d="M474.933 195.81C474.933 195.81 469.543 204.396 463.254 208.589C456.966 212.782 433.908 214.679 433.908 214.679L430.814 218.173C430.315 218.772 429.516 218.972 428.817 218.672L428.119 218.473C426.422 217.874 425.823 215.877 426.921 214.38L428.318 212.483C428.817 211.784 429.616 211.285 430.514 211.185L436.803 210.486C436.803 210.486 453.772 205.394 457.764 201.301C461.757 197.208 467.047 184.928 467.047 184.928L474.933 195.81Z" fill="white"></path><path d="M471.839 315.713C471.839 315.713 468.944 318.408 462.356 320.105C460.958 320.505 459.361 320.005 459.361 322.401C462.456 322.401 467.347 322.401 467.347 322.401L473.935 321.303V322.401H477.528C477.528 322.401 478.526 316.511 476.43 315.812C474.534 315.713 471.839 315.713 471.839 315.713Z" fill="#51BF9D"></path><path d="M472.537 311.519L471.839 315.712C473.136 316.611 474.833 316.711 476.23 315.812L476.43 315.712L476.031 311.519H472.537Z" fill="#F0FAFA"></path><path d="M466.648 219.172L472.238 312.517H476.73C476.73 312.517 485.414 289.356 482.32 271.086C481.521 266.693 482.02 262.101 483.817 258.007C491.802 239.738 492.201 219.172 492.201 219.172H466.648Z" fill="#021A14"></path><path d="M413.945 239.039C413.945 239.039 408.754 250.021 409.553 256.51C410.152 261.003 412.148 262.201 413.646 262.6C415.243 263 416.84 262.301 417.738 261.003C422.03 254.614 413.945 239.039 413.945 239.039Z" fill="#0DAB83"></path><path d="M222.858 505.735L287.169 305.885H282.782L218.47 505.735H222.858Z" fill="#021A14"></path><path d="M262.741 505.735L326.953 305.885H322.566L258.354 505.735H262.741Z" fill="#021A14"></path><path d="M262.84 368.114V371.704L304.02 371.604L304.817 368.114H262.84Z" fill="#021A14"></path><path d="M271.316 344.877V348.468H312.595L313.293 344.877H271.316Z" fill="#021A14"></path><path d="M278.395 321.741V325.231H319.674L320.372 321.641L278.395 321.741Z" fill="#021A14"></path><path d="M255.262 391.549V395.139H296.542L297.239 391.549H255.262Z" fill="#021A14"></path><path d="M248.283 415.084V418.675L289.462 418.575L290.16 415.084H248.283Z" fill="#021A14"></path><path d="M241.004 439.517L239.309 443.008H280.588L281.286 439.417L241.004 439.517Z" fill="#021A14"></path><path d="M233.227 463.85L231.532 467.44H272.811L273.509 463.85H233.227Z" fill="#021A14"></path><path d="M225.949 487.784L224.353 491.374L265.533 491.275L266.231 487.784H225.949Z" fill="#021A14"></path><path d="M256.518 272.144C256.518 272.144 245.251 293.884 246.049 298.671C246.846 303.458 256.518 311.735 256.518 311.735L258.113 309.043L253.228 297.873L259.609 279.623L256.518 272.144Z" fill="#F0FAFA"></path><path d="M268.583 262.869L267.685 269.052H262.102L261.603 259.479L268.583 262.869Z" fill="#F0FAFA"></path><path d="M278.753 290.294V272.742C271.674 267.756 266.588 268.255 266.588 268.255C265.392 268.155 265.093 268.155 263.398 268.155C263.398 268.155 251.533 267.257 253.726 286.006C258.412 301.962 256.219 309.042 256.219 309.042C256.219 309.042 268.583 314.128 275.462 310.538C273.767 306.549 276.958 295.579 278.753 290.294C278.653 290.294 278.653 290.294 278.753 290.294Z" fill="#108C8C"></path><path d="M260.207 266.26C260.207 266.26 255.521 269.052 255.521 273.34C255.521 276.033 256.618 277.629 257.814 279.523C259.808 282.615 259.808 286.704 257.615 289.695L257.515 289.795C256.717 290.892 256.518 291.989 256.717 293.086C257.615 297.275 263.298 297.873 265.492 294.283C266.289 292.986 267.087 291.391 267.685 289.496C268.682 286.405 267.685 284.51 266.489 283.313C265.492 282.316 265.392 280.72 266.389 279.723C268.184 277.928 269.879 275.136 267.685 272.742C263.996 268.653 262.899 264.864 262.899 264.864L260.207 266.26Z" fill="#021A14"></path><path d="M249.738 406.475L253.028 407.073C253.726 402.984 263.996 383.438 264.893 373.366C265.791 362.097 268.483 349.631 268.483 349.631L257.415 346.34C257.415 346.34 254.623 346.34 257.714 369.277C250.735 378.252 248.84 398.895 249.738 406.475Z" fill="#F0FAFA"></path><path d="M273.667 248.11L263.398 247.612L261.603 254.692C261.603 254.792 261.603 254.892 261.503 254.991C261.702 255.091 261.802 255.191 262.002 255.29C262.002 255.29 262.002 255.29 262.101 255.39H262.201C264.095 256.687 264.793 259.08 264.694 261.274C265.89 261.972 267.186 262.57 268.582 262.77C269.579 262.969 270.477 262.969 270.975 262.67C274.565 259.379 273.667 248.11 273.667 248.11Z" fill="#F0FAFA"></path><path d="M260.207 264.764C262.899 265.063 258.612 264.764 262.899 265.063C262.999 262.869 270.278 256.985 271.574 255.789C275.064 252.797 274.864 249.107 274.864 249.107C274.864 249.107 267.885 241.628 263.398 243.223C259.908 244.52 258.612 247.212 258.113 249.207C257.515 250.902 256.518 253.794 260.207 264.764Z" fill="#021A14"></path><path d="M257.914 337.863C257.914 337.863 260.507 353.52 264.096 370.274C260.307 380.446 266.09 408.668 266.19 408.569C266.589 408.17 268.583 410.663 268.583 410.663C268.583 410.663 272.771 385.731 273.768 374.462C274.665 363.193 276.161 349.531 276.161 349.531L257.914 337.863Z" fill="#F0FAFA"></path><path d="M265.791 406.973C265.791 406.973 264.196 408.269 264.495 410.065C264.794 411.76 265.193 415.749 265.193 415.749H266.788L266.688 412.059C266.688 411.86 270.178 415.749 270.776 415.749H279.351C279.351 415.749 279.95 413.256 274.864 412.458C269.879 411.66 265.791 406.973 265.791 406.973Z" fill="#021A14"></path><path d="M262.899 266.26H260.307C259.709 266.26 259.21 265.761 259.21 265.163V264.864C259.21 264.265 259.709 263.767 260.307 263.767H262.899C263.498 263.767 263.996 264.265 263.996 264.864V265.163C263.896 265.861 263.498 266.26 262.899 266.26Z" fill="#108C8C"></path><path d="M274.964 306.649C274.964 306.649 277.756 322.505 277.756 330.383C277.756 334.672 275.762 353.121 275.762 353.121C275.762 353.121 259.31 353.62 255.92 353.62C255.521 340.555 250.635 331.979 250.635 321.608C250.635 314.228 257.116 307.845 257.116 307.845L274.964 306.649Z" fill="#021A14"></path><path d="M306.372 288.299L305.674 288.499C304.178 288.898 302.982 290.094 302.583 291.59L302.384 292.188C302.384 292.188 295.903 294.482 288.624 295.38C281.245 274.338 278.753 272.742 278.753 272.742C278.753 272.742 273.967 274.238 273.967 280.022C273.967 284.809 277.157 298.471 283.339 302.759C285.034 303.956 287.228 304.056 289.122 303.158C298.993 298.471 305.973 294.482 305.973 294.482L313.451 290.393L310.161 288.698C308.865 288.1 307.568 288 306.372 288.299Z" fill="#F0FAFA"></path><path d="M253.427 404.181L253.227 407.771C253.227 408.569 253.427 409.267 253.826 409.865C254.324 410.563 255.122 411.461 256.418 412.558C253.925 413.356 251.632 410.563 250.436 408.669C249.837 407.771 249.638 406.674 249.837 405.577L250.236 402.785L253.427 404.181Z" fill="#F0FAFA"></path><path d="M249.738 406.175C249.738 406.175 247.544 406.375 247.145 408.07C246.747 409.765 245.749 413.156 245.749 413.156L246.946 414.153L248.641 410.763C248.641 410.763 252.23 415.649 252.829 415.849H262.201C262.201 415.849 262.201 412.757 256.319 412.558C251.034 412.358 249.738 406.175 249.738 406.175Z" fill="#021A14"></path><path d="M234.784 170.995C237.288 169.292 230.978 168.591 228.575 165.886L223.867 157.872L222.766 164.884L226.371 169.392C226.371 169.392 229.877 171.796 230.077 173.399C229.977 174 234.384 171.295 234.784 170.995Z" fill="white"></path><path d="M185.808 274.172C185.808 274.172 188.312 276.977 194.722 278.68C196.124 279.081 197.827 278.58 197.426 281.084C194.221 281.084 189.113 281.084 189.113 281.084L182.403 279.882L182.203 281.084H178.497C178.497 281.084 178.597 274.973 181.001 274.172C183.004 274.172 185.808 274.172 185.808 274.172Z" fill="#021A14"></path><path d="M186.009 269.865L185.909 274.272C184.406 275.174 182.604 275.274 181.302 274.472L181.101 274.272L182.303 269.865H186.009Z" fill="white"></path><path d="M217.858 184.117L187.11 269.765H182.203C182.203 269.765 178.597 252.836 189.714 228.494C191.317 224.988 192.218 221.381 192.318 217.875C193.02 198.542 197.927 177.907 197.927 177.907L217.858 184.117Z" fill="#021A14"></path><path d="M230.578 126.818L225.37 133.129L220.162 128.421L228.575 120.407L230.578 126.818Z" fill="white"></path><path d="M231.68 129.423C232.381 130.024 233.182 130.425 233.783 130.425C238.29 129.022 242.396 119.005 242.396 119.005L240.193 114.898L233.883 114.197L229.276 119.506C228.074 120.908 227.673 122.912 228.174 124.815C228.875 126.618 230.077 128.221 231.68 129.423Z" fill="white"></path><path d="M231.98 117.803C232.981 117.102 234.484 114.798 235.285 115.699C235.886 116.401 239.191 118.304 239.992 118.905C241.895 120.407 245.3 122.711 247.003 119.506C250.508 112.995 232.581 107.686 231.379 109.288C230.077 110.991 228.975 114.197 228.474 116.401C228.174 117.703 228.174 119.005 228.374 120.307L231.98 117.803Z" fill="#021A14"></path><path d="M229.876 116.501C230.577 116.501 231.279 117.202 231.479 118.003C231.679 118.905 231.279 119.606 230.477 119.706C229.776 119.706 229.075 119.005 228.875 118.204C228.775 117.302 229.175 116.501 229.876 116.501Z" fill="white"></path><path d="M204.538 274.172C204.538 274.172 207.542 276.977 214.353 278.68C215.855 279.081 217.458 278.58 217.458 281.084C214.253 281.084 209.145 281.084 209.145 281.084L202.234 279.882V281.084H198.528C198.528 281.084 197.527 274.973 199.63 274.172C201.733 274.172 204.538 274.172 204.538 274.172Z" fill="#021A14"></path><path d="M203.837 269.865L204.538 274.272C203.136 275.174 201.433 275.274 199.931 274.472L199.63 274.272L200.031 269.865H203.837Z" fill="white"></path><path d="M226.071 132.629C225.97 130.625 224.268 126.618 222.265 126.518C216.155 126.117 203.936 126.218 201.232 134.933C197.927 145.651 197.927 178.007 197.927 178.007L219.06 184.117C219.06 184.117 227.072 146.252 226.071 132.629Z" fill="#108C8C"></path><path d="M219.06 184.117L205.038 269.765H200.13C200.13 269.765 193.22 252.836 199.63 228.494C200.531 224.988 200.731 221.381 200.13 217.875C197.026 198.542 198.027 177.907 198.027 177.907L219.06 184.117Z" fill="#021A14"></path><path d="M203.336 134.131C203.536 136.535 205.439 139.04 205.539 141.444C205.539 141.544 200.732 146.953 200.732 146.953L224.669 167.789L220.963 170.494C220.963 170.494 191.117 155.268 191.117 144.549C191.117 140.843 194.422 135.133 199.53 131.827C200.031 133.33 201.633 134.532 203.336 134.131Z" fill="white"></path><path d="M205.138 143.948L196.825 133.631L198.828 132.228C201.833 130.024 205.238 128.522 208.844 127.72L213.151 129.724L205.138 143.948Z" fill="#108C8C"></path><path d="M246.402 194.735L244.9 195.136L245.1 194.335L246.402 194.735Z" fill="#01898C"></path><path d="M226.371 192.932C226.371 192.932 234.684 190.929 244.9 195.136C245.2 194.435 246.402 194.735 246.402 194.735L233.082 187.323L226.371 192.932Z" fill="white"></path><path d="M236.987 185.319C237.088 185.219 243.097 178.007 236.387 170.994C229.676 163.982 220.762 173.098 220.662 173.198L221.564 174.3C221.864 174 229.676 166.086 235.385 172.096C241.194 178.107 236.186 184.117 235.986 184.317L236.987 185.319Z" fill="white"></path><path d="M214.152 184.418L219.761 173.8C220.362 172.698 221.764 172.397 222.765 173.098L236.186 182.615C237.588 183.616 237.588 185.72 236.186 186.722L226.071 193.834C226.071 193.834 222.265 193.233 218.459 190.128C214.653 187.123 214.152 184.418 214.152 184.418Z" fill="white"></path><path d="M220.862 170.494L226.471 174.2C228.875 175.502 232.58 172.998 234.584 170.694C234.884 170.293 234.684 169.793 234.283 169.692C231.879 169.091 225.77 167.789 223.967 167.789L220.862 170.494Z" fill="white"></path><path d="M247.212 203C247.212 203 242.327 214.133 243.079 220.712C243.642 225.267 245.521 226.481 246.93 226.886C248.433 227.291 249.936 226.583 250.781 225.267C254.914 218.789 247.212 203 247.212 203Z" fill="#FF5741"></path><path d="M347.944 340.301L358.367 367.405L364.933 362.61L350.237 337.903L347.944 340.301Z" fill="#F0FAFA"></path><path d="M349.299 332.065C349.924 332.899 350.341 333.942 350.237 334.984L350.654 338.946L350.133 339.571L348.257 341.031C348.361 340.197 348.465 341.031 348.465 341.031L345.547 335.923C345.547 335.923 342.003 333.629 346.485 330.293C346.902 329.98 347.527 329.876 347.944 330.189C348.986 330.919 349.299 332.065 349.299 332.065Z" fill="#F0FAFA"></path><path d="M370.874 387.108C363.37 377.101 358.367 367.51 358.367 367.51L363.995 361.046L370.874 369.073V387.108Z" fill="#01898C"></path><path d="M387.134 504.803L383.799 505.428C383.069 501.363 372.855 481.869 372.021 471.757C371.083 460.498 368.477 447.988 368.477 447.988L379.526 444.652C379.526 444.652 382.34 444.652 379.213 467.587C386.196 476.656 388.072 497.297 387.134 504.803Z" fill="#F0FAFA"></path><path d="M379.004 436.417C379.004 436.417 376.398 452.054 372.75 468.838C376.503 478.95 370.77 507.2 370.666 507.096C370.249 506.679 368.269 509.181 368.269 509.181C368.269 509.181 364.099 484.266 363.161 473.007C362.223 461.749 362.015 448.092 362.015 448.092L379.004 436.417Z" fill="#F0FAFA"></path><path d="M371.187 505.428C371.187 505.428 372.75 506.784 372.438 508.452C372.125 510.12 371.708 514.185 371.708 514.185H370.145V510.432C370.145 510.224 366.705 514.185 366.08 514.185H357.533C357.533 514.185 357.012 511.683 362.015 510.849C367.018 510.015 371.187 505.428 371.187 505.428Z" fill="#021A14"></path><path d="M383.486 502.614L383.695 506.158C383.695 506.888 383.486 507.618 383.069 508.243C382.548 508.973 381.818 509.807 380.463 510.954C382.965 511.788 385.258 508.973 386.405 507.096C387.03 506.158 387.238 505.116 387.03 504.073L386.613 501.259L383.486 502.614Z" fill="#F0FAFA"></path><path d="M387.134 504.49C387.134 504.49 389.323 504.699 389.635 506.367C389.948 508.035 390.99 511.371 390.99 511.371L389.844 512.309L388.176 508.973C388.176 508.973 384.528 513.872 384.007 514.081H374.626C374.626 514.081 374.627 510.954 380.463 510.849C385.883 510.745 387.134 504.49 387.134 504.49Z" fill="#021A14"></path><path d="M337 338.946L347.423 366.154L353.989 361.255L339.397 336.548L337 338.946Z" fill="#F0FAFA"></path><path d="M338.876 332.781C339.476 333.581 339.876 334.581 339.776 335.581L340.176 339.381L339.676 339.981L337.876 341.581C337.976 340.781 338.076 341.581 338.076 341.581L335.276 336.681C335.276 336.681 331.876 334.481 336.176 331.281C336.576 330.981 337.176 330.881 337.576 331.181C338.676 331.681 338.876 332.781 338.876 332.781Z" fill="#F0FAFA"></path><path d="M368.477 372.826H375.148L372.542 364.903L367.33 368.135L368.477 372.826Z" fill="#F0FAFA"></path><path d="M359.618 381.27C359.618 381.061 359.722 380.957 359.722 380.749C353.051 372.2 347.423 366.154 347.423 366.154L353.051 359.691L365.871 371.888H369.624C369.624 371.888 374.731 368.552 379.108 373.139C380.776 374.806 381.818 379.393 380.776 384.189C377.753 397.428 380.151 404.413 380.151 404.413L362.849 410.876C362.849 410.876 362.432 399.409 362.223 391.278C362.119 389.714 361.598 388.254 360.868 386.899C359.826 385.231 359.201 383.355 359.618 381.27Z" fill="#108C8C"></path><path d="M366.184 350.726L377.128 354.583L376.086 362.819C376.086 362.923 376.086 363.027 375.982 363.131C375.773 363.131 375.565 363.236 375.356 363.236H375.252H375.148C372.646 363.861 370.77 365.946 370.041 368.344C368.477 368.656 366.914 368.656 365.246 368.239C364.204 368.031 363.161 367.718 362.745 367.197C360.452 362.297 366.184 350.726 366.184 350.726Z" fill="#F0FAFA"></path><path d="M366.392 357.71C369.311 359.17 368.685 374.39 369.206 384.815C369.519 390.444 373.688 394.926 379.212 395.865C383.173 396.49 387.446 396.595 390.052 395.135C388.384 393.78 379.108 380.123 382.026 362.089C382.443 359.691 382.443 353.123 378.483 349.579C375.252 346.66 369.519 348.641 366.705 349.892C365.35 350.517 364.412 351.768 364.203 353.332C363.891 354.791 364.308 356.668 366.392 357.71Z" fill="#021A14"></path><path d="M362.536 403.892C362.536 403.892 360.243 415.567 360.243 422.552C360.243 426.409 361.181 450.49 361.181 450.49C361.181 450.49 377.649 451.637 380.776 451.637C381.61 431.83 386.091 431.309 386.091 422.031C386.091 418.069 384.007 413.482 382.443 410.564C381.297 408.479 380.567 407.019 380.15 404.204L380.046 403.787L362.536 403.892Z" fill="#FF5741"></path><path d="M189.019 365.714C189.582 366.962 189.644 368.336 189.269 369.585L188.581 374.642L187.706 375.204L184.455 376.515C184.83 375.516 184.455 374.517 184.455 374.517L183.017 369.335C183.017 369.335 180.828 360.532 186.768 360.906C186.768 353.726 188.706 354.912 188.706 354.912L188.831 361.093L189.019 365.714Z" fill="white"></path><path d="M203.837 383.071C203.837 383.071 199.648 398.992 196.084 399.242C192.52 399.554 188.831 374.018 188.831 374.018L184.017 374.58C184.017 374.58 182.141 411.23 193.021 411.917C203.9 412.603 205.338 404.487 205.338 404.487L203.837 383.071Z" fill="#FF7664"></path><path d="M204.338 426.589H232.787C232.787 426.589 232.787 405.861 232.787 383.508C224.658 371.146 214.529 374.518 214.529 374.518C214.529 374.518 205.338 374.705 203.9 383.134C203.837 389.19 204.338 426.589 204.338 426.589Z" fill="#FF5741"></path><path d="M217.531 368.96L217.906 374.33L217.718 374.517C215.968 376.203 213.154 376.266 211.341 374.58L211.278 370.521L217.531 368.96Z" fill="#F0FAFA"></path><path d="M219.531 357.659L219.094 366.588C218.218 366.525 217.656 367.524 217.843 368.336C217.781 368.523 217.718 368.773 217.718 369.023C216.155 370.147 213.341 371.583 209.777 370.896C204.15 369.834 207.527 358.908 207.527 358.908L219.531 357.659Z" fill="white"></path><path d="M222.345 364.403C222.408 363.778 223.283 362.342 223.783 361.905C226.972 359.158 224.096 357.098 223.095 356.473C221.97 355.724 222.22 353.726 220.719 352.602C218.469 350.854 216.343 352.665 214.905 352.415C213.467 352.165 212.591 350.292 210.528 351.291C208.465 352.29 208.715 353.913 208.027 354.6C207.339 355.287 206.151 353.414 204.15 355.537C201.087 358.846 207.089 360.219 207.089 360.219C207.089 360.219 210.403 361.593 214.717 359.845C215.342 359.595 216.03 359.72 216.405 360.282C217.468 361.718 217.468 369.148 217.468 369.148L218.906 367.962C219.031 367.899 222.158 367.4 222.345 364.403Z" fill="#FF5741"></path><path d="M218.969 365.089C218.656 365.776 217.906 366.151 217.156 365.839C216.468 365.526 216.093 364.777 216.405 364.028C216.718 363.341 217.468 362.967 218.218 363.279C218.906 363.591 219.281 364.403 218.969 365.089Z" fill="white"></path><path d="M210.34 503.073L210.715 507.881C212.216 508.942 214.216 509.005 215.78 508.068L216.092 507.881V503.073H210.34Z" fill="white"></path><path d="M232.474 507.694C232.474 507.694 231.161 509.504 224.909 511.128C223.533 511.502 222.033 511.69 222.033 514C224.971 514 228.223 514 228.223 514L234.538 512.938V514H237.914C237.914 514 238.852 508.443 236.851 507.756C235.038 507.694 232.474 507.694 232.474 507.694Z" fill="#FF5741"></path><path d="M231.536 503.073L231.911 507.881C233.412 508.942 235.413 509.005 236.976 508.068L237.289 507.881V503.073H231.536Z" fill="white"></path><path d="M232.724 383.508C232.724 383.508 241.228 403.113 230.348 413.166C219.469 423.218 204.713 421.47 204.713 421.47V415.788C204.713 415.788 218.031 414.664 222.345 405.736C226.597 396.807 220.657 389.128 220.657 389.128" fill="#FF5741"></path><path d="M205.588 420.721L198.773 420.845C196.022 420.721 194.146 416.6 193.708 413.54C193.646 413.103 194.084 412.729 194.521 412.854C196.835 413.665 202.775 415.726 204.275 416.725L205.588 420.721Z" fill="white"></path><path d="M204.338 426.589C195.834 450.502 209.715 505.259 209.715 505.259H216.655C216.655 505.259 213.091 428.338 222.908 426.589C207.902 426.589 210.778 426.589 204.338 426.589Z" fill="#021A14"></path><path d="M223.846 399.866C223.783 401.739 223.346 403.737 222.345 405.798C218.093 414.726 204.025 415.85 204.025 415.85V421.532C204.025 421.532 219.469 423.155 230.348 413.103C234.287 409.482 235.663 404.549 235.851 399.804H223.846V399.866Z" fill="#FF7664"></path><path d="M223.783 400.741C224.096 400.616 224.408 400.491 224.658 400.366C225.159 393.81 221.345 388.815 221.282 388.753L220.594 389.252C220.719 389.315 224.533 394.247 223.783 400.741Z" fill="#F14C36"></path><path d="M187.706 366.463C187.706 366.463 189.269 365.963 189.519 363.154C189.769 360.282 191.145 361.156 191.145 361.156C191.145 361.156 190.457 372.394 188.644 372.831C186.831 373.268 187.706 366.463 187.706 366.463Z" fill="white"></path><path d="M212.653 426.589C210.34 455.872 230.348 505.259 230.348 505.259H237.476C237.476 505.259 231.974 472.979 231.849 444.509C231.849 438.327 232.099 432.271 232.724 426.589C226.534 426.589 218.281 426.589 212.653 426.589Z" fill="#021A14"></path><path d="M210.778 507.694C210.778 507.694 209.465 509.504 203.212 511.128C201.837 511.502 200.336 511.69 200.336 514C203.275 514 206.526 514 206.526 514L212.841 512.938V514H216.218C216.218 514 217.155 508.443 215.155 507.756C213.341 507.694 210.778 507.694 210.778 507.694Z" fill="#FF5741"></path><path d="M100.964 511.291H99.353C102.253 491.956 105.153 472.514 107.839 453.609C109.665 440.933 111.598 427.829 113.532 414.831L115.036 415.046C113.102 428.043 111.169 441.148 109.343 453.823C106.657 472.621 103.864 491.956 100.964 511.291Z" fill="#021A14"></path><path d="M146.616 511.291H145.005C147.905 491.956 150.806 472.514 153.491 453.609C155.317 440.933 157.251 427.829 159.184 414.831L160.688 415.046C158.754 428.043 156.821 441.148 154.995 453.823C152.309 472.621 149.517 491.956 146.616 511.291Z" fill="#021A14"></path><path d="M100.749 451.89C114.069 424.606 114.069 371.22 114.069 371.22L126.637 451.89H100.749Z" fill="#00666A"></path><path d="M186.575 514.406C181.742 483.148 177.445 452.964 172.826 421.061L171.322 417.624L172.826 417.409L174.33 420.846C178.949 452.857 183.245 483.148 188.079 514.514H186.575V514.406Z" fill="#021A14"></path><path d="M136.197 514.406C133.297 494.964 130.396 475.307 127.604 456.401C125.777 443.726 123.844 430.621 121.91 417.517L123.414 417.302C125.348 430.299 127.281 443.404 129.107 456.187C131.9 475.199 134.8 494.857 137.701 514.406H136.197Z" fill="#021A14"></path><path d="M108.054 453.501L117.399 392.166L129.859 449.097L128.248 453.501H108.054Z" fill="#021A14"></path><path d="M171.215 368.105C158.969 366.064 114.069 369.071 114.069 369.071C114.069 369.071 112.78 430.514 127.281 451.138C141.997 451.138 187.757 451.138 187.757 451.138C187.757 451.138 169.603 411.608 171.215 368.105Z" fill="#ACE1D3"></path><path d="M186.038 451.138L183.89 454.898L127.604 455.005L126.852 451.138H186.038Z" fill="#021A14"></path><path d="M171.107 366.708L170.57 370.468H114.284L114.069 366.708H171.107Z" fill="#021A14"></path><path d="M118.258 368.642C118.258 370.146 117.077 371.327 115.573 371.327C114.069 371.327 112.887 370.146 112.887 368.642C112.887 367.138 114.069 365.956 115.573 365.956C117.077 365.956 118.258 367.138 118.258 368.642Z" fill="#1C2C57"></path><path d="M174.008 368.642C174.008 370.146 172.826 371.327 171.322 371.327C169.818 371.327 168.637 370.146 168.637 368.642C168.637 367.138 169.818 365.956 171.322 365.956C172.719 365.956 174.008 367.138 174.008 368.642Z" fill="#021A14"></path><path d="M135.4 424.6H122L121.8 420.1H135.5L135.4 424.6Z" fill="#248FFB"></path><path d="M150.3 424.6H137.3L137.2 406.9H151L150.3 424.6Z" fill="#248FFB"></path><path d="M164.9 424.6H152.2V401.2H166L164.9 424.6Z" fill="#248FFB"></path><path d="M66.8262 506.243C66.8262 506.243 65.215 507.102 65.215 508.606C65.215 510.11 65.0001 513.547 65.0001 513.547L66.5039 513.869L67.041 510.647C67.041 510.432 69.7265 513.977 71.5525 515.803L78.105 515.91C78.105 515.91 78.9643 513.869 74.4528 512.365C69.9413 510.862 66.8262 506.243 66.8262 506.243Z" fill="#021A14"></path><path d="M72.197 479.925C72.197 478.851 72.4118 477.025 72.6267 475.951C73.3786 472.084 74.9898 469.184 75.9566 467.68C77.5678 467.035 79.0717 466.284 80.7903 465.639C82.509 464.995 84.3351 464.565 86.5908 464.028C86.4834 464.243 86.376 464.458 86.376 464.672C76.7085 490.13 71.3377 501.731 70.4783 504.524C70.3709 504.954 70.2635 505.383 70.2635 505.813C70.3709 507.102 71.0154 510.002 74.8824 512.688C70.8006 513.762 66.9336 506.35 66.9336 506.35C66.9336 506.35 71.9822 488.734 72.197 479.925Z" fill="white"></path><path d="M92.1765 376.913L91.7468 383.788L84.9796 382.391L85.7315 372.939L92.1765 376.913Z" fill="white"></path><path d="M93.6803 376.913C94.647 376.913 95.6138 376.698 96.0434 376.268C98.9437 371.757 95.6138 359.511 95.6138 359.511L85.3018 361.337L84.9795 369.501C84.8721 371.649 85.8389 373.798 87.5575 375.194C89.3836 376.376 91.5319 377.02 93.6803 376.913Z" fill="white"></path><path d="M87.0205 508.713C87.0205 508.713 85.6241 509.788 85.8389 511.291C86.0538 512.688 86.4834 516.018 86.4834 516.018H87.9873V512.903C87.9873 512.688 91.1024 516.018 91.6394 516.018H99.3734C99.3734 516.018 99.9105 513.869 95.2916 513.225C90.7801 512.58 87.0205 508.713 87.0205 508.713Z" fill="#021A14"></path><path d="M83.1535 482.396C82.8312 481.322 82.2942 479.603 82.0793 478.529C81.4348 474.662 81.4348 469.291 81.7571 467.573C83.0461 466.498 84.7648 467.358 86.0538 466.176C87.4502 464.887 89.0614 463.92 90.9949 462.631C90.9949 462.846 90.9949 463.061 90.9949 463.383C90.7801 490.667 89.7059 503.342 89.9207 506.243C89.9207 506.672 91.2097 512.365 95.8287 513.547C92.2839 515.91 87.1279 509.035 87.1279 509.035C87.1279 509.035 85.9463 490.667 83.1535 482.396Z" fill="white"></path><path d="M91.7467 382.606L98.1917 393.24C98.9437 394.959 99.1585 396.785 98.8363 398.611L94.7544 416.765C94.5396 417.839 94.4322 418.913 94.3248 419.987L93.358 467.465H72.6266C72.6266 467.465 75.312 458.12 76.601 445.982C77.89 433.844 74.023 428.58 75.0972 423.317C75.7417 420.202 77.5677 416.227 80.2532 413.005C81.6496 411.286 82.4015 409.138 82.4015 406.99C82.6163 397.967 73.1637 373.153 82.1867 379.276C91.1023 385.184 91.7467 382.606 91.7467 382.606Z" fill="#0C9774"></path><path d="M92.1764 409.46L92.7135 411.179C93.0358 412.146 93.358 412.468 94.1099 413.757C96.3657 417.624 104.1 426.862 104.1 426.862L110.33 430.406C110.33 430.406 110.222 431.266 108.826 431.051C107.43 430.836 106.355 429.977 106.355 429.977C106.355 429.977 106.141 431.051 107.43 433.092C108.396 434.596 111.511 437.281 109.363 437.711C107.43 436.851 105.066 435.348 105.066 435.348C103.992 434.703 103.24 433.629 103.026 432.447L102.488 429.117L89.2762 418.268C87.7724 417.087 86.6982 415.476 86.1611 413.649V413.542L92.1764 409.46Z" fill="white"></path><path d="M128.054 398.719C128.376 398.719 129.45 398.719 131.276 397.537C132.887 396.57 135.68 393.348 136.217 395.496C135.358 397.43 134.606 399.9 134.606 399.9C133.962 400.974 132.028 401.834 130.632 402.049L126.335 402.263C126.335 402.263 124.831 400.76 124.724 400.652L125.153 399.9C126.335 399.685 127.194 399.256 128.054 398.719Z" fill="white"></path><path d="M85.624 414.294L92.4987 409.675L89.9207 391.414L89.2762 391.522L91.7467 409.353L86.0537 413.22L81.757 398.719L81.2199 398.933L85.624 414.294Z" fill="#0B7C60"></path><path d="M88.417 364.453C90.3505 365.527 92.3914 365.849 94.0026 365.742C96.0435 365.634 98.6215 364.023 99.4809 362.09C100.233 360.478 100.34 358.867 97.977 357.041C96.3658 355.859 94.3249 356.611 93.3581 357.363C92.7136 358.008 91.7469 358.008 91.1024 357.471C89.8134 356.396 87.5576 355 84.1203 355C80.5755 355 80.5755 358.437 81.22 361.015C81.5423 362.519 80.8978 364.13 79.6088 364.882C77.4605 366.171 74.775 368.32 75.3121 370.468C75.7418 372.187 76.816 373.798 77.6753 374.98C78.5346 376.161 78.5346 377.772 77.6753 378.846C76.3863 380.565 74.775 383.143 75.2047 384.969C75.6344 386.688 76.9234 388.944 77.9975 390.555C78.7495 391.737 78.7495 393.133 77.9975 394.315C77.4605 395.174 76.9234 396.463 77.2456 397.859C77.4604 398.933 77.9975 399.9 78.5346 400.652C79.5014 402.049 81.6497 401.834 82.4016 400.33C84.7648 395.604 88.8466 385.829 87.4502 378.417C86.6983 374.657 85.7315 368.105 85.7315 368.105C85.7315 368.105 84.6574 362.841 88.417 364.453Z" fill="#021A14"></path><path d="M93.7878 404.627L101.737 408.708C102.703 409.245 103.885 409.353 104.959 409.031L126.765 402.156V399.363L105.496 401.941L98.8363 398.504L93.7878 404.627Z" fill="white"></path><path d="M84.4425 366.386C84.9796 365.849 86.0538 365.957 86.8057 366.601C87.5576 367.246 87.665 368.32 87.1279 368.857C86.5908 369.394 85.5167 369.286 84.7647 368.642C84.0128 367.89 83.798 366.923 84.4425 366.386Z" fill="white"></path><path d="M92.1764 403.874L94.3248 390.34L103.777 401.189L101.199 409.568L92.2838 404.949C92.4987 403.874 92.1764 404.841 92.1764 403.874Z" fill="#0C9774"></path><path d="M96.0435 411.071C95.8287 410.857 95.8287 410.857 95.5064 410.749L98.5141 398.611C98.9438 396.892 98.7289 395.066 97.977 393.455L91.532 382.928C91.7468 382.821 91.6394 382.821 91.7468 382.606C91.7468 382.606 92.0691 382.606 92.0691 382.499L98.5141 393.025C99.3734 394.744 99.5883 396.785 99.1586 398.719" fill="#0B7C60"></path><path d="M129.128 399.041C129.128 399.041 129.235 399.041 129.45 399.148C129.343 399.363 129.235 399.685 129.02 399.9C128.268 400.545 127.409 401.189 126.657 401.834C126.335 401.297 125.905 400.545 125.798 400.545L130.095 395.281C130.095 395.281 130.954 395.604 130.417 396.893C130.095 398.182 129.128 399.041 129.128 399.041Z" fill="white"></path><path d="M504.138 508.875C504.138 508.875 502.965 510.439 497.622 511.872C496.449 512.133 495.145 512.394 495.145 514.349C497.622 514.349 500.489 514.349 500.489 514.349L505.832 513.436V514.349H508.7C508.7 514.349 509.482 509.526 507.787 509.005C506.354 508.875 504.138 508.875 504.138 508.875Z" fill="#021A14"></path><path d="M503.878 505.486L504.138 508.874C505.181 509.656 506.614 509.656 507.657 509.005L507.918 508.874V505.486H503.878Z" fill="white"></path><path d="M531.247 509.526C531.247 509.526 530.074 511.09 524.731 512.524C523.558 512.784 522.254 513.045 522.254 515C524.731 515 527.598 515 527.598 515L532.941 514.088V515H535.809C535.809 515 536.591 510.178 534.896 509.656C533.463 509.526 531.247 509.526 531.247 509.526Z" fill="#021A14"></path><path d="M530.986 506.137L531.247 509.526C532.29 510.308 533.723 510.308 534.766 509.656L535.027 509.526V506.137H530.986Z" fill="white"></path><path d="M501.792 421.291L503.096 507.31H509.351C509.351 507.31 518.866 437.843 516.911 421.291C514.825 404.609 501.792 421.291 501.792 421.291Z" fill="#021A14"></path><path d="M508.309 421.161C508.309 421.161 510.524 447.618 515.477 462.216C520.43 476.813 529.553 507.18 529.553 507.18H536.069C536.069 507.18 525.252 443.709 527.728 421.161H508.309Z" fill="#021A14"></path><path d="M502.705 377.37C502.705 377.37 495.015 395.355 493.06 395.355C491.496 395.355 493.712 380.628 493.712 380.628H487.195C487.195 380.628 479.114 405.782 485.501 410.474C491.887 415.166 506.223 397.441 506.223 397.441L502.705 377.37Z" fill="#FF5741"></path><path d="M525.773 423.507L523.427 429.242C522.254 431.457 518.214 431.588 515.347 430.806C514.956 430.675 514.825 430.154 515.086 429.893C516.65 428.199 520.56 424.028 521.863 422.986L525.773 423.507Z" fill="white"></path><path d="M509.091 373.72C506.614 373.72 504.138 375.024 502.835 377.109C502.444 377.891 502.053 378.673 502.053 379.585C502.053 382.713 502.053 421.292 502.053 421.292H525.643V382.322C525.643 382.322 525.122 373.72 516.65 373.72C513.261 373.59 510.785 373.59 509.091 373.72Z" fill="#FF5741"></path><path d="M502.574 421.291V383.886H501.792V421.291H502.574Z" fill="#D73722"></path><path d="M517.693 365.64L515.216 375.154C515.216 375.154 513.001 376.848 510.264 376.197C507.396 375.415 507.918 373.329 507.918 373.329L509.482 367.204H514.043L517.693 365.64Z" fill="white"></path><path d="M508.7 369.028C507.787 368.768 507.005 368.377 506.745 367.855C505.311 363.164 511.046 352.998 511.046 352.998L519.778 357.038L518.084 364.467C517.693 366.422 516.259 368.116 514.434 368.898C512.61 369.55 510.524 369.55 508.7 369.028Z" fill="white"></path><path d="M515.347 356.126C515.347 356.126 512.088 355.865 509.091 354.431C506.093 352.998 509.091 350 509.091 350C509.091 350 511.176 351.694 515.607 352.216C518.605 352.607 519.517 352.216 521.081 353.649C523.167 355.604 521.472 359.905 521.472 359.905L517.562 369.028L517.041 368.898C517.041 368.898 518.475 363.164 518.866 361.339C518.605 360.296 517.953 360.166 517.432 360.296C516.911 360.427 516.52 360.818 516.389 361.339L513.783 371.244C513.783 371.244 506.745 372.287 505.311 371.374C503.877 370.462 506.875 363.424 506.875 363.424C506.875 363.424 508.96 363.164 509.873 365.118C510.915 367.073 513.001 365.9 513.001 365.9L515.347 356.126Z" fill="#021A14"></path><path d="M488.368 380.758L488.629 379.455C489.15 376.718 491.757 373.329 494.363 372.417H497.1L496.188 378.282L492.278 380.758H488.368Z" fill="white"></path><path d="M518.344 360.296C517.693 360.035 516.78 360.557 516.389 361.339C515.998 362.251 516.259 363.033 516.911 363.294C517.562 363.554 518.475 363.033 518.866 362.251C519.257 361.469 518.996 360.557 518.344 360.296Z" fill="white"></path><path d="M495.145 377.63L489.802 380.758H493.19L498.795 376.066C498.795 376.066 498.404 375.284 497.1 375.936C495.927 376.587 495.145 377.63 495.145 377.63Z" fill="white"></path><path d="M523.297 376.197C523.297 376.197 536.721 391.055 536.721 399.917C536.721 408.78 525.904 424.55 525.904 424.55L520.56 422.986C520.56 422.986 525.382 403.567 525.382 398.353C525.382 393.14 515.477 385.581 515.477 385.581" fill="#FF5741"></path><path d="M524.861 398.484C524.861 402.915 520.951 419.206 520.039 422.986C520.299 423.116 520.43 423.116 520.821 423.247C521.994 418.555 525.643 402.915 525.643 398.614C525.643 393.27 515.998 385.841 515.607 385.581L515.086 386.232C515.216 386.102 524.861 393.531 524.861 398.484Z" fill="#D73722"></path><path d="M498.664 368.768C498.664 368.768 499.055 374.633 494.885 378.803C494.624 379.064 494.233 379.194 493.842 379.194C493.06 379.194 492.408 378.803 492.017 378.673C491.366 378.412 491.105 378.021 490.975 377.761C490.844 377.5 490.975 377.239 491.105 376.979C492.017 376.066 494.624 372.678 493.972 369.289C496.188 367.986 498.664 368.768 498.664 368.768Z" fill="#D73722"></path><path d="M493.972 374.372L493.581 374.242H493.972V374.372Z" fill="#E8375E"></path><path d="M500.75 364.076L501.401 364.206C502.574 364.337 503.487 365.379 503.356 366.552L503.096 368.247C502.965 369.42 501.792 370.202 500.619 370.071L499.968 369.941L500.75 364.076Z" fill="#D73722"></path><path d="M481.2 363.424C480.678 367.986 481.2 371.765 482.503 371.896C483.806 372.026 485.24 368.507 485.892 364.076C486.413 359.514 485.892 355.735 484.588 355.604C483.285 355.344 481.851 358.863 481.2 363.424Z" fill="white"></path><path d="M486.413 360.948L484.328 361.86L484.067 364.597L485.761 366.552L486.804 363.163L486.413 360.948Z" fill="#D73722"></path><path d="M485.892 363.946C486.413 360.166 486.022 356.908 485.11 355.865C492.148 362.382 501.01 364.337 501.01 364.337L500.228 370.071C500.228 370.071 488.107 367.856 483.024 371.635C484.328 370.853 485.37 367.725 485.892 363.946Z" fill="#FF5741"></path><path d="M483.937 363.164C483.806 363.946 483.937 364.467 484.067 364.467C484.197 364.467 484.328 363.946 484.458 363.164C484.588 362.382 484.458 361.86 484.328 361.86C484.197 361.86 484.067 362.512 483.937 363.164Z" fill="#FF5741"></path><path d="M491.366 376.457C491.496 376.588 492.278 376.979 494.363 376.979C495.927 376.979 496.579 375.024 496.84 373.981C496.97 373.59 496.97 373.069 496.579 372.808L494.103 372.417L491.366 376.457Z" fill="white"></path><defs><filter id="filter0_d" x="0" y="418" width="97.612" height="97.612" color-interpolation-filters="sRGB"><feFlood flood-opacity="0" result="BackgroundImageFix"></feFlood><feColorMatrix in="SourceAlpha" type="matrix" values="0 0 0 0 0 0 0 0 0 0 0 0 0 0 0 0 0 0 127 0"></feColorMatrix><feOffset dy="10"></feOffset><feGaussianBlur stdDeviation="15"></feGaussianBlur><feColorMatrix type="matrix" values="0 0 0 0 0.0509804 0 0 0 0 0.854902 0 0 0 0 0.654902 0 0 0 0.15 0"></feColorMatrix><feBlend mode="normal" in2="BackgroundImageFix" result="effect1_dropShadow"></feBlend><feBlend mode="normal" in="SourceGraphic" in2="effect1_dropShadow" result="shape"></feBlend></filter><filter id="filter1_d" x="518" y="24" width="80.7576" height="98.2718" color-interpolation-filters="sRGB"><feFlood flood-opacity="0" result="BackgroundImageFix"></feFlood><feColorMatrix in="SourceAlpha" type="matrix" values="0 0 0 0 0 0 0 0 0 0 0 0 0 0 0 0 0 0 127 0"></feColorMatrix><feOffset dy="10"></feOffset><feGaussianBlur stdDeviation="15"></feGaussianBlur><feColorMatrix type="matrix" values="0 0 0 0 0.0509804 0 0 0 0 0.854902 0 0 0 0 0.654902 0 0 0 0.15 0"></feColorMatrix><feBlend mode="normal" in2="BackgroundImageFix" result="effect1_dropShadow"></feBlend><feBlend mode="normal" in="SourceGraphic" in2="effect1_dropShadow" result="shape"></feBlend></filter></defs></svg> 