<svg width="242" height="102" fill="none" xmlns="http://www.w3.org/2000/svg"><path fill-rule="evenodd" clip-rule="evenodd" d="M35.36 5.525A21.003 21.003 0 0022.168 0v13.303a8.262 8.262 0 013.859 1.631l9.333-9.409zm-9.01 16.881H0V35.7h26.35V22.406zM20.111 0v13.303a8.04 8.04 0 00-4.658 2.329 8.194 8.194 0 00-2.287 4.708H0A21.522 21.522 0 016.162 6.256 21.165 21.165 0 0120.111 0zm60.052 0H66.998v13.303h13.166V0zM0 37.782h13.166v26.623H0V37.781zM154.096 21.25v13.269a8.055 8.055 0 016.937 7.038h13.217a21.527 21.527 0 00-6.171-14.085 21.139 21.139 0 00-13.983-6.222zm-2.048 0v13.269a7.97 7.97 0 00-3.927 1.632l-9.35-9.41a21.116 21.116 0 0113.277-5.491zm-13.243 37.188a21.107 21.107 0 0013.209 5.516V50.66a8.107 8.107 0 01-3.859-1.64l-9.35 9.417zm-1.403-30.218l9.308 9.35a8.236 8.236 0 000 9.953l-9.308 9.427a21.522 21.522 0 010-28.739v.009zm36.848 15.402h-13.175v20.34h13.175v-20.34zM54.247 36.151a8.033 8.033 0 00-3.85-1.633V21.217a21.114 21.114 0 0113.209 5.525l-9.359 9.41zm-26.002 5.405h13.15a8.143 8.143 0 012.286-4.717 7.998 7.998 0 014.667-2.32V21.25a21.14 21.14 0 00-13.94 6.256 21.48 21.48 0 00-6.163 14.05zm0 2.066h13.167v20.34H28.246v-20.34zm76.73-9.103V21.25A21.02 21.02 0 0091.8 26.741l9.299 9.41a8.18 8.18 0 013.876-1.633zm2.057 29.444V50.66a8.09 8.09 0 006.945-7.038h13.26a21.483 21.483 0 01-6.197 14.11 21.157 21.157 0 01-14.008 6.23zm-7.395-26.35l-9.299-9.35a21.522 21.522 0 000 28.738l9.299-9.401a8.203 8.203 0 010-9.953v-.035zm5.338 26.35A20.97 20.97 0 0191.8 58.436l9.35-9.417a8.192 8.192 0 003.859 1.64l-.034 13.303zM80.164 22.405H66.996v41.982h13.166V22.406zM113.977 0h13.166v41.556h-13.166V0zM221 44.438h-13.209a8.105 8.105 0 01-2.286 4.7 7.899 7.899 0 01-4.659 2.313v13.327a21.15 21.15 0 0013.941-6.264A21.504 21.504 0 00221 44.438zm-42.245 36.966h13.166a8.214 8.214 0 002.296 4.71 8.065 8.065 0 004.666 2.328v13.303a21.182 21.182 0 01-13.957-6.256 21.515 21.515 0 01-6.213-14.085h.042zm20.094-16.626V51.476a8.065 8.065 0 01-4.666-2.329 8.155 8.155 0 01-2.295-4.709h-13.209a21.424 21.424 0 006.171 14.084 21.179 21.179 0 0013.957 6.256h.042zm6.741 21.335a8.192 8.192 0 002.278-4.709H221a21.457 21.457 0 01-6.162 14.077 21.147 21.147 0 01-13.94 6.264V88.442a8.066 8.066 0 004.649-2.328h.043zM221 21.88h-13.209v20.494H221V21.879zm-42.279 0h13.124v20.494h-13.166l.042-20.494z" fill="#0DDAA7"/><path d="M160.635 0h-8.619v3.647h8.619v1.657h-8.619v7.973h3.646V8.959h8.628V0h-3.655zm60.358 3.647V0h-12.274v13.277h12.274V9.631h-8.628V8.287h8.628V4.641h-8.628v-.994h8.628zM184.189 0h-3.646v13.277h12.248V9.631h-8.602V0zm10.291 0v8.287h8.619V9.63h-8.619v3.647h12.274V4.641h-8.627v-.994h8.627V0H194.48zm-19.583 9.63h-4.981V0h-3.646v13.277h12.274V0h-3.647v9.63zm56.842 12.86V21H225v1.49h2.469V28h1.79v-5.51h2.48zM242 28v-7h-2.458l-2.095 4.73-2.209-4.73h-2.333v7h1.699v-4.581L236.699 28h1.45l2.095-4.64V28H242z" fill="#0DDAA7"/></svg>