<?xml version="1.0" encoding="UTF-8"?> <svg xmlns="http://www.w3.org/2000/svg" width="322" height="184" viewBox="0 0 322 184" fill="none"><path d="M11.8654 182.907H299.243" stroke="#248FFB" stroke-miterlimit="10" stroke-linecap="round"></path><path d="M314.417 183H307.714" stroke="#248FFB" stroke-miterlimit="10" stroke-linecap="round"></path><path opacity="0.05" d="M321.865 182.907C321.865 159.961 316.988 138.163 308.205 118.485C311.366 111.926 313.15 104.577 313.15 96.8008C313.15 69.2106 290.753 46.8274 263.095 46.8274C257.925 46.8274 252.913 47.6164 248.217 49.0815C223.607 33.4381 194.392 24.3766 163.055 24.3766C159.149 24.3766 155.288 24.5119 151.45 24.8049C144.609 19.643 136.074 16.6 126.84 16.6C109.388 16.6 94.5094 27.5098 88.6392 42.8602C76.6054 49.2393 65.4747 57.1287 55.518 66.2578C52.2895 65.5365 48.9254 65.1307 45.4711 65.1307C20.4326 65.1307 0.135498 85.3951 0.135498 110.393C0.135498 121.28 3.99625 131.288 10.4082 139.088C6.41204 152.995 4.26718 167.715 4.26718 182.907H321.865Z" fill="#248FFB"></path><path opacity="0.15" d="M278.297 182.907C278.297 118.755 226.528 66.7429 162.676 66.7429C98.8239 66.7429 47.0545 118.755 47.0545 182.907H278.297Z" fill="#248FFB"></path><path d="M186.589 177.043V89.1182H143.99V177.043" stroke="#248FFB" stroke-width="2" stroke-miterlimit="10"></path><path d="M105.666 177.043V89.1182L151.669 47.0502H159.324V73.8228H151.669V89.1182H143.99V177.043" stroke="#248FFB" stroke-width="2" stroke-miterlimit="10"></path><path d="M117.171 161.747H132.506" stroke="#248FFB" stroke-width="2" stroke-miterlimit="10"></path><path d="M178.933 73.8224H151.668V89.1178H178.933V73.8224Z" stroke="#248FFB" stroke-width="2" stroke-miterlimit="10"></path><path d="M159.436 115.876V104.399H171.151V115.876" stroke="#248FFB" stroke-width="2" stroke-miterlimit="10"></path><path d="M159.436 138.808V127.338H171.151V138.808" stroke="#248FFB" stroke-width="2" stroke-miterlimit="10"></path><path d="M159.436 161.747V150.285H171.151V161.747" stroke="#248FFB" stroke-width="2" stroke-miterlimit="10"></path><path d="M117.171 115.876H132.506" stroke="#248FFB" stroke-width="2" stroke-miterlimit="10"></path><path d="M117.171 100.58H132.506" stroke="#248FFB" stroke-width="2" stroke-miterlimit="10"></path><path d="M117.171 131.171H132.506" stroke="#248FFB" stroke-width="2" stroke-miterlimit="10"></path><path d="M117.171 146.452H132.506" stroke="#248FFB" stroke-width="2" stroke-miterlimit="10"></path><path d="M205.968 177.042V58.5269H167.427V73.8223H178.934V89.1178H186.59V177.042" stroke="#248FFB" stroke-width="2" stroke-miterlimit="10"></path><path d="M195.965 81.4589V92.936" stroke="#248FFB" stroke-width="2" stroke-miterlimit="10"></path><path d="M195.965 100.58V112.05" stroke="#248FFB" stroke-width="2" stroke-miterlimit="10"></path><path d="M195.965 119.694V131.171" stroke="#248FFB" stroke-width="2" stroke-miterlimit="10"></path><path d="M195.965 138.808V150.285" stroke="#248FFB" stroke-width="2" stroke-miterlimit="10"></path><path d="M100.937 76.0288C100.965 76.8215 100.833 77.6117 100.548 78.3523C100.264 79.0929 99.8323 79.7688 99.28 80.3395C98.7278 80.9102 98.066 81.3641 97.3341 81.6741C96.6021 81.9842 95.8151 82.144 95.0199 82.144C94.2247 82.144 93.4377 81.9842 92.7057 81.6741C91.9738 81.3641 91.312 80.9102 90.7597 80.3395C90.2075 79.7688 89.7762 79.0929 89.4915 78.3523C89.2069 77.6117 89.0747 76.8215 89.1029 76.0288" stroke="#248FFB" stroke-width="2" stroke-miterlimit="10"></path><path d="M95.1347 93.7087C93.8026 93.7093 92.4743 93.5674 91.1726 93.2853C88.7083 92.7418 86.388 91.6819 84.3657 90.1757C82.3435 88.6696 80.6654 86.7517 79.4429 84.5493C78.2134 82.353 77.4731 79.9181 77.2726 77.4105C77.0721 74.903 77.4161 72.3818 78.2811 70.019C79.4934 66.5645 81.7523 63.5715 84.745 61.454C87.7378 59.3365 91.3165 58.1994 94.9857 58.2001" stroke="#248FFB" stroke-width="2" stroke-miterlimit="10"></path><path d="M94.9854 58.2001C98.4233 58.2052 101.786 59.2038 104.667 61.0749C106.996 62.5115 108.946 64.4841 110.354 66.8275C111.761 69.1709 112.584 71.8166 112.755 74.543" stroke="#248FFB" stroke-width="2" stroke-miterlimit="10"></path><path d="M225.003 85.0692C225.003 86.3794 225.525 87.6359 226.453 88.5623C227.382 89.4888 228.642 90.0092 229.955 90.0092C231.269 90.0092 232.529 89.4888 233.457 88.5623C234.386 87.6359 234.908 86.3794 234.908 85.0692" stroke="#248FFB" stroke-width="2" stroke-miterlimit="10"></path><path d="M229.985 70.175C233.648 70.1905 237.176 71.5514 239.896 73.9976C242.616 76.4439 244.338 79.804 244.731 83.4361C245.124 87.0682 244.162 90.7175 242.029 93.6868C239.895 96.6562 236.74 98.7374 233.165 99.5328C232.077 99.7704 230.966 99.8899 229.851 99.8894C227.381 99.8713 224.954 99.2461 222.784 98.0694C222.222 97.7656 221.579 97.6436 220.944 97.7202C219.522 97.9059 218.107 98.0991 216.632 98.3071L216.721 97.6311L216.788 97.1854C216.833 96.8362 216.885 96.4425 216.937 96.1305C217.042 95.3877 217.153 94.6448 217.25 93.9019C217.306 93.3232 217.187 92.741 216.908 92.2305C215.478 89.6866 214.852 86.7709 215.113 83.8659C215.261 81.5879 215.954 79.3784 217.132 77.4218C218.311 75.4652 219.943 73.8185 221.89 72.6191C224.3 71.0567 227.111 70.221 229.985 70.2122" stroke="#248FFB" stroke-width="2" stroke-miterlimit="10"></path><path d="M171.493 23.0107C171.493 24.5869 170.865 26.0985 169.748 27.213C168.631 28.3275 167.115 28.9536 165.535 28.9536C163.955 28.9536 162.44 28.3275 161.322 27.213C160.205 26.0985 159.577 24.5869 159.577 23.0107" stroke="#248FFB" stroke-width="2" stroke-miterlimit="10"></path><path d="M165.468 5.08594C168.927 5.09557 172.31 6.10161 175.21 7.98309C177.552 9.42663 179.514 11.4086 180.932 13.7633C182.349 16.118 183.181 18.777 183.357 21.518C183.677 25.0131 182.927 28.5229 181.205 31.5837C180.863 32.1964 180.72 32.8997 180.795 33.5968V33.5968C180.914 34.4957 181.041 35.3946 181.168 36.2711C181.227 36.6946 181.287 37.118 181.354 37.5414L181.421 38.0763L181.54 38.886L176.327 38.1431C176.178 38.1431 176.021 38.1431 175.872 38.1431C175.257 38.1414 174.65 38.292 174.107 38.5814C171.501 40.0154 168.579 40.7811 165.602 40.81C164.26 40.8079 162.922 40.6634 161.611 40.3791C159.137 39.8315 156.808 38.7671 154.778 37.2561C152.747 35.7452 151.06 33.822 149.829 31.6134C148.589 29.4033 147.843 26.9521 147.641 24.4275C147.439 21.9029 147.786 19.3647 148.66 16.9865C149.877 13.5086 152.149 10.4946 155.161 8.36226C158.173 6.22996 161.775 5.08495 165.468 5.08594" stroke="#248FFB" stroke-width="2" stroke-miterlimit="10"></path><path d="M84.4029 117.413L84.1348 117.116C82.5616 115.404 81.6889 113.165 81.6889 110.843C81.6889 108.52 82.5616 106.282 84.1348 104.569L84.4029 104.272L88.8713 108.729L88.6703 108.997C88.2472 109.524 88.0168 110.179 88.0168 110.854C88.0168 111.529 88.2472 112.184 88.6703 112.711L88.8713 112.978L84.4029 117.413ZM84.4029 105.386C83.122 106.916 82.4203 108.846 82.4203 110.839C82.4203 112.832 83.122 114.762 84.4029 116.291L87.8287 112.874C87.4386 112.267 87.2312 111.56 87.2312 110.839C87.2312 110.117 87.4386 109.411 87.8287 108.803L84.4029 105.386Z" fill="#FF5741" stroke="#FF5741" stroke-miterlimit="10"></path><path d="M231.4 138.05H225.048V128.772H231.4V138.05ZM225.822 137.307H230.633V129.582H225.822V137.307Z" fill="#FF5741" stroke="#FF5741" stroke-miterlimit="10"></path><path d="M212.037 48.9738H205.684V32.2001H212.037V48.9738ZM206.459 48.231H211.27V32.9726H206.459V48.231Z" fill="#FF5741" stroke="#FF5741" stroke-miterlimit="10"></path><path d="M197.493 8.13887L193.024 3.68172L193.322 3.40686C194.93 1.95448 196.994 1.10379 199.161 1H199.563V7.29201L199.228 7.33658C198.685 7.39727 198.17 7.60541 197.738 7.9383L197.493 8.13887ZM194.141 3.68172L197.567 7.09887C197.942 6.86109 198.355 6.69016 198.788 6.59372V1.79486C197.082 1.95458 195.463 2.62233 194.141 3.71143" fill="#FF5741"></path><path d="M194.141 3.68172L197.567 7.09887C197.942 6.86109 198.355 6.69016 198.788 6.59372V1.79486C197.082 1.95458 195.463 2.62233 194.141 3.71143M197.493 8.13887L193.024 3.68172L193.322 3.40686C194.93 1.95448 196.994 1.10379 199.161 1H199.563V7.29201L199.228 7.33658C198.685 7.39727 198.17 7.60541 197.738 7.9383L197.493 8.13887Z" stroke="#FF5741" stroke-miterlimit="10"></path><path d="M109.049 20.3427L109.049 14.0393L109.454 14.0551C111.621 14.1624 113.683 15.0164 115.289 16.4714L115.573 16.755L111.113 21.2041L110.844 20.9993C110.418 20.6596 109.906 20.4434 109.365 20.3742L109.049 20.3427ZM109.839 14.8272L109.839 19.6598C110.272 19.756 110.685 19.9266 111.06 20.1641L114.462 16.7708C113.142 15.68 111.524 15.0102 109.818 14.8483" fill="#FF5741"></path><path d="M109.839 14.8272L109.839 19.6598C110.272 19.756 110.685 19.9266 111.06 20.1641L114.462 16.7708C113.142 15.68 111.524 15.0102 109.818 14.8483M109.049 20.3427L109.049 14.0393L109.454 14.0551C111.621 14.1624 113.683 15.0164 115.289 16.4714L115.573 16.755L111.113 21.2041L110.844 20.9993C110.418 20.6596 109.906 20.4434 109.365 20.3742L109.049 20.3427Z" stroke="#FF5741" stroke-miterlimit="10"></path><path d="M127.333 54.4856H122.273V54.1642C122.353 52.305 123.13 50.5435 124.449 49.2276C125.768 47.9118 127.534 47.1372 129.398 47.057H129.72V52.1106L129.452 52.1463C128.92 52.2134 128.425 52.4551 128.046 52.8333C127.667 53.2116 127.424 53.7049 127.357 54.2356L127.333 54.4856ZM122.923 53.8903H126.808C126.931 53.3259 127.214 52.8087 127.624 52.4002C128.033 51.9918 128.552 51.7094 129.118 51.5868V47.688C127.524 47.8342 126.032 48.5321 124.901 49.6607C123.77 50.7892 123.07 52.2772 122.923 53.8665" fill="#FF5741"></path><path d="M122.923 53.8903H126.808C126.931 53.3259 127.214 52.8087 127.624 52.4002C128.033 51.9918 128.552 51.7094 129.118 51.5868V47.688C127.524 47.8342 126.032 48.5321 124.901 49.6607C123.77 50.7892 123.07 52.2772 122.923 53.8665M127.333 54.4856H122.273V54.1642C122.353 52.305 123.13 50.5435 124.449 49.2276C125.768 47.9118 127.534 47.1372 129.398 47.057H129.72V52.1106L129.452 52.1463C128.92 52.2134 128.425 52.4551 128.046 52.8333C127.667 53.2116 127.424 53.7049 127.357 54.2356L127.333 54.4856Z" stroke="#FF5741" stroke-miterlimit="10"></path></svg> 