<?xml version="1.0" encoding="UTF-8"?> <svg xmlns="http://www.w3.org/2000/svg" width="614" height="494" viewBox="0 0 614 494" fill="none"><path d="M589.433 493C589.433 493 682.338 267.178 499.223 267.178C402.472 267.178 570.825 112.035 505.065 40.3494C439.305 -31.3359 186.999 3.28652 138.066 141.743C89.0989 280.2 237.562 401.548 119.384 401.548C27.0001 401.548 27 493 27 493H589.433Z" fill="#DEF8F1"></path><path d="M613.835 492.735L27.1648 493C27.0824 493 27 492.912 27 492.824V490.441C27 490.353 27.0824 490.265 27.1648 490.265L613.835 490C613.918 490 614 490.088 614 490.176V492.559C614 492.647 613.945 492.735 613.835 492.735Z" fill="#068E69"></path><path d="M522.915 218.444C522.854 216.289 522.364 214.134 521.569 211.979C522.915 212.937 523.955 214.314 524.75 215.691C525.423 216.828 527.136 216.649 527.564 215.391C529.277 210.064 535.272 203 554.969 203C579.989 203 577.236 216.05 574.973 221.438C574.606 222.395 575.401 223.353 576.441 223.114C580.295 222.276 587.452 221.258 590.694 223.712C595.221 227.184 595.221 235.206 595.221 235.206H519C522.059 230.297 523.16 224.191 522.915 218.444Z" fill="#A6E6D5"></path><path d="M27 75.2778H144.015L101.712 68.8631C101.712 68.8631 101.478 56.4879 87.5721 61.526C87.5721 61.526 86.434 52.131 75.6941 51.6769C64.9543 51.2228 65.6547 60.1636 65.6547 60.1636C65.6547 60.1636 51.9818 51.4498 43.9707 59.9365C35.945 68.3948 48.684 70.6939 48.684 70.6939L27 75.2778Z" fill="#A6E6D5"></path><g><path d="M55.3798 445.956L55.3314 421.443L53.7716 421.514C45.3709 421.901 37.3782 425.199 31.1641 430.844L30 431.889L47.3714 449.26L48.4098 448.46C50.0541 447.189 52.0086 446.38 54.0728 446.116L55.3798 445.956ZM52.3515 424.601L52.411 443.402C50.7272 443.766 49.1219 444.425 47.6682 445.346L34.3531 432.031C39.4711 427.813 45.7387 425.226 52.3515 424.601Z" fill="#0DDAA7"></path></g><g><path d="M560.913 19.9999L561.695 20.8656C566.238 25.8521 568.758 32.3693 568.758 39.1319C568.758 45.8945 566.238 52.4116 561.695 57.3982L560.913 58.2717L548 45.302L548.603 44.515C549.786 42.9774 550.428 41.0881 550.428 39.1437C550.428 37.1993 549.786 35.31 548.603 33.7724L548 32.9854L560.913 19.9999ZM560.819 55.0135C564.509 50.5546 566.529 44.9368 566.529 39.1358C566.529 33.3348 564.509 27.717 560.819 23.2581L550.927 33.2058C552.052 34.9768 552.649 37.0344 552.649 39.1358C552.649 41.2372 552.052 43.2948 550.927 45.0659L560.819 55.0135Z" fill="#0DDAA7"></path></g><path d="M151.992 174.765C153.701 175.948 161.456 175.291 169.736 172.794C173.679 179.103 178.542 184.754 184.062 189.486C180.25 196.057 176.965 203.418 178.673 206.704C182.091 213.538 201.411 220.898 204.697 220.372C206.668 219.978 211.926 213.801 216.132 206.046C223.098 207.755 230.458 208.544 237.818 208.149C239.789 215.51 242.681 223.001 246.23 224.184C253.458 226.55 272.385 218.138 274.225 215.509C275.408 213.801 274.751 206.178 272.253 197.898C278.825 194.086 284.608 189.354 289.602 183.834C296.043 187.383 302.877 190.406 306.163 188.829C312.997 185.411 320.358 166.091 319.832 162.805C319.438 160.965 314.18 156.365 307.083 152.29C309.186 144.799 310.106 137.044 309.712 129.027C316.283 127.055 322.592 124.427 323.644 121.272C326.009 114.043 317.598 95.1172 314.969 93.2771C313.523 92.2257 307.083 92.6199 299.854 94.5914C295.78 87.3626 290.522 81.0539 284.477 75.6651C287.5 69.8821 289.734 64.0991 288.288 61.2075C284.871 54.373 265.55 47.0128 262.264 47.5385C260.556 47.8014 256.481 52.4016 252.67 58.7103C244.784 56.7388 236.504 55.9502 228.223 56.6074C226.383 50.4301 223.755 44.7785 220.732 43.727C213.503 41.3612 194.577 49.7729 192.737 52.4016C191.685 53.8473 192.079 60.2875 194.051 67.6477C187.085 71.985 181.039 77.2423 175.913 83.2882C169.867 80.0024 163.69 77.5052 160.667 79.0824C153.833 82.7625 146.472 102.083 146.998 105.237C147.392 107.078 152.781 111.809 159.878 115.752C158.17 123.112 157.644 130.867 158.301 138.621C151.335 140.593 144.369 143.353 143.318 146.77C140.821 153.999 149.364 172.925 151.992 174.765ZM223.755 99.9802C241.63 94.46 260.687 104.317 266.207 122.192C271.728 140.067 261.87 159.125 243.995 164.645C226.12 170.165 207.063 160.308 201.543 142.433C195.891 124.558 205.88 105.5 223.755 99.9802Z" fill="#0C9774"></path><path d="M219.417 87.0998C244.784 79.2139 271.99 93.4086 279.876 118.775C287.762 144.142 273.568 171.348 248.201 179.234C222.835 187.12 195.628 172.925 187.742 147.559C179.856 122.192 194.051 94.9858 219.417 87.0998ZM248.07 178.577C273.173 170.822 287.105 144.01 279.351 119.038C271.596 93.9343 244.784 80.0025 219.812 87.757C194.708 95.5115 180.776 122.324 188.531 147.296C196.285 172.4 222.966 186.332 248.07 178.577Z" fill="white"></path><path d="M172.627 166.879C172.89 166.879 173.285 166.748 173.547 166.748C171.05 162.41 169.079 157.81 167.502 152.947C156.067 116.54 176.57 77.6364 212.977 66.3332C236.767 58.8415 261.739 65.0189 279.219 80.3965C279.482 80.265 279.745 80.1336 280.008 80.0022C262.265 64.2303 236.898 57.9215 212.583 65.5446C175.65 77.1107 155.015 116.409 166.582 153.342C168.159 158.073 170.262 162.673 172.627 166.879Z" fill="white"></path><path d="M290.26 171.874C281.848 183.966 269.362 193.56 254.247 198.292C253.984 198.423 253.59 198.423 253.327 198.555C253.458 198.817 253.721 199.08 253.853 199.343C254.116 199.343 254.247 199.212 254.51 199.212C269.888 194.48 282.374 184.754 290.917 172.531C290.654 172.4 290.523 172.137 290.26 171.874Z" fill="white"></path><path d="M327.981 142.433C329.295 143.221 335.21 142.039 341.387 139.541C344.936 144.01 349.142 147.953 353.742 151.239C351.376 156.628 349.404 162.411 350.982 164.908C354.136 169.902 369.645 173.977 372.011 173.32C373.588 172.925 377.005 167.799 379.634 161.359C385.154 162.148 390.806 162.016 396.457 161.228C398.56 166.748 401.32 172.268 404.212 172.925C409.995 174.24 423.795 166.222 424.978 163.988C425.767 162.673 424.584 156.759 422.087 150.582C426.818 147.164 430.893 142.959 434.31 138.49C439.436 140.724 445.087 142.433 447.453 140.987C452.448 137.833 456.522 122.324 455.865 119.958C455.471 118.512 451.002 115.489 445.219 112.992C446.139 107.077 446.27 101.032 445.35 94.9856C450.213 93.0141 454.813 90.5169 455.339 87.8883C456.653 82.1052 448.636 68.3048 446.402 67.1219C445.219 66.4647 440.356 67.2533 434.836 69.3563C431.156 64.2304 426.555 59.7617 421.561 56.0816C423.401 51.4814 424.715 46.8813 423.27 44.7784C420.115 39.7839 404.606 35.7095 402.24 36.3667C400.926 36.761 398.166 40.5725 395.8 45.6984C389.623 44.7784 383.183 44.9098 376.874 46.0927C374.902 41.4925 372.537 37.4181 370.171 36.8924C364.388 35.5781 350.587 43.5955 349.404 45.8298C348.747 47.0127 349.536 51.8757 351.639 57.3959C346.644 61.2074 342.438 65.8076 339.021 70.9335C334.158 68.962 329.164 67.5162 327.061 68.962C322.066 72.1164 317.992 87.6254 318.649 89.9912C319.043 91.437 323.512 94.4599 329.295 97.0886C328.638 102.872 328.769 108.786 329.952 114.701C324.695 116.803 319.701 119.432 319.043 122.192C317.729 127.45 325.747 141.25 327.981 142.433ZM377.005 79.3451C390.28 73.6935 405.658 79.7394 411.309 93.0141C416.961 106.289 410.915 121.666 397.64 127.318C384.366 132.97 368.988 126.924 363.336 113.649C357.553 100.506 363.731 85.1282 377.005 79.3451Z" fill="#0DDAA7"></path><path d="M372.668 69.7505C391.463 61.6017 413.412 70.4077 421.561 89.2025C429.71 107.997 420.904 129.947 402.109 138.095C383.314 146.244 361.365 137.438 353.216 118.643C345.067 99.8486 353.742 77.8993 372.668 69.7505ZM401.846 137.701C420.378 129.684 429.053 108.129 421.035 89.4654C413.018 70.9334 391.463 62.2588 372.8 70.2762C354.268 78.2936 345.593 99.8486 353.61 118.512C361.628 137.044 383.314 145.719 401.846 137.701Z" fill="white"></path><path d="M343.096 134.81C343.358 134.678 343.621 134.678 343.753 134.547C341.518 131.393 339.547 128.107 337.97 124.427C326.272 97.3515 338.89 65.9391 365.833 54.373C383.577 46.7499 403.16 49.51 417.749 59.8932C418.012 59.7617 418.144 59.6303 418.407 59.4989C403.555 48.8528 383.577 45.9613 365.571 53.7158C338.233 65.5448 325.484 97.3515 337.313 124.689C339.021 128.37 340.861 131.655 343.096 134.81Z" fill="white"></path><path d="M433.784 129.158C428.264 139.147 419.458 147.427 408.286 152.29C408.023 152.422 407.892 152.422 407.629 152.553C407.761 152.685 408.023 152.948 408.155 153.079C408.286 153.079 408.418 152.948 408.549 152.948C419.984 148.085 428.79 139.673 434.31 129.552C434.047 129.552 433.916 129.29 433.784 129.158Z" fill="white"></path><path d="M513.695 218.664C513.695 218.664 381.868 343.656 335.078 373.754C374.508 425.67 405.789 455.242 405.789 455.242C405.789 455.242 589.4 324.204 588.612 304.883C579.28 286.877 579.543 287.271 513.695 218.664Z" fill="#068E69"></path><path d="M554.308 281.226C544.582 290.82 544.319 309.352 553.519 317.238C549.839 343.919 424.978 426.064 424.978 426.064L424.847 425.933C416.829 415.813 400.663 415.287 391.069 423.173L366.096 394.389C375.954 385.452 376.217 370.731 368.068 360.611C367.936 360.479 367.936 360.479 367.805 360.348L494.375 247.316C494.769 247.973 495.295 248.63 495.82 249.287C503.838 259.408 521.581 261.774 531.176 253.756L554.834 280.963C554.571 280.963 554.439 281.094 554.308 281.226Z" fill="#A2D7C5"></path><path d="M487.131 340.693C487.535 324.801 474.98 311.591 459.088 311.186C443.196 310.782 429.985 323.337 429.58 339.229C429.176 355.121 441.731 368.332 457.623 368.736C473.516 369.141 486.726 356.585 487.131 340.693Z" fill="white"></path><path d="M448.242 318.289L451.265 323.021C454.813 320.918 459.282 319.735 462.174 319.735L462.699 324.467C459.808 324.598 456.259 325.518 452.842 327.621C448.505 330.381 446.665 333.93 448.373 336.821C450.082 339.581 453.499 339.844 459.019 338.53C466.511 336.69 471.768 336.558 474.528 340.896C477.157 345.102 475.448 350.49 470.323 354.696L473.477 359.822L469.665 362.188L466.642 357.325C462.962 359.559 459.939 360.216 457.574 360.479L456.916 355.485C458.625 355.222 461.254 354.696 465.197 352.199C469.928 349.307 470.848 346.81 469.534 344.707C467.957 342.079 464.802 342.21 458.362 343.787C450.739 345.627 445.876 344.97 443.116 340.501C440.619 336.558 441.539 330.381 447.322 325.65L444.299 320.787L448.242 318.289Z" fill="#006769"></path><path d="M448.392 318.162L443.93 320.943L469.586 362.099L474.048 359.318L448.392 318.162Z" fill="#006769"></path><path d="M500.158 302.912C497.661 300.02 493.323 299.757 490.432 302.255C487.54 304.752 487.277 309.089 489.775 311.981C492.272 314.872 496.609 315.135 499.501 312.638C502.392 310.14 502.655 305.803 500.158 302.912Z" fill="#118C8C"></path><path d="M515.93 289.243C513.432 286.351 509.095 286.089 506.204 288.586C503.312 291.083 503.049 295.42 505.547 298.312C508.044 301.203 512.381 301.466 515.273 298.969C518.164 296.472 518.427 292.135 515.93 289.243Z" fill="#068E69"></path><path d="M410.915 380.457C408.418 377.566 404.081 377.303 401.189 379.8C398.297 382.297 398.035 386.634 400.532 389.526C403.029 392.417 407.366 392.68 410.258 390.183C413.149 387.686 413.412 383.349 410.915 380.457Z" fill="#004060"></path><path d="M426.424 367.051C423.927 364.159 419.59 363.896 416.698 366.394C413.807 368.891 413.544 373.228 416.041 376.12C418.538 379.011 422.875 379.274 425.767 376.777C428.527 374.28 428.921 369.942 426.424 367.051Z" fill="#118C8C"></path><path d="M492.403 76.1907C492.403 76.1907 383.708 221.687 342.701 259.408C390.28 303.832 426.161 327.621 426.161 327.621C426.161 327.621 584.932 167.405 580.857 148.479C568.634 132.312 569.028 132.707 492.403 76.1907Z" fill="#068E69"></path><path d="M543.136 130.998C535.119 142.17 538.142 160.439 548.393 166.616C549.313 193.429 440.093 295.683 440.093 295.683L439.961 295.552C430.367 286.877 414.332 289.112 406.183 298.575L376.611 274.391C384.76 263.876 382.525 249.287 372.931 240.744C372.799 240.613 372.799 240.613 372.668 240.481L478.208 107.603C478.734 108.26 479.391 108.786 479.917 109.312C489.512 117.986 507.386 117.198 515.535 107.734L543.399 130.604C543.399 130.735 543.268 130.867 543.136 130.998Z" fill="#A2D7C5"></path><path d="M487.092 207.784C488.559 191.956 476.917 177.935 461.089 176.467C445.261 175 431.239 186.642 429.772 202.47C428.305 218.299 439.947 232.32 455.775 233.787C471.604 235.255 485.625 223.613 487.092 207.784Z" fill="white"></path><path d="M452.734 209.906C451.47 209.17 450.235 208.407 449.029 207.618C447.797 206.8 446.639 205.807 445.558 204.638C443.659 202.584 442.811 200.352 443.015 197.941C443.219 195.53 444.604 193.138 447.17 190.763C448.226 189.787 449.303 188.95 450.402 188.25C451.501 187.551 452.605 187.085 453.714 186.854C454.823 186.622 455.893 186.664 456.925 186.979C457.986 187.268 458.991 187.925 459.941 188.952C460.732 189.807 461.406 190.851 461.963 192.082L458.359 194.622C457.763 193.691 457.136 192.87 456.476 192.157C455.236 190.817 453.965 190.3 452.661 190.606C451.359 190.858 450.109 191.538 448.911 192.646C448.084 193.411 447.519 194.172 447.214 194.93C446.884 195.659 446.745 196.396 446.798 197.14C446.852 197.884 447.084 198.622 447.496 199.353C447.881 200.055 448.39 200.748 449.023 201.433C450.025 202.516 451.1 203.507 452.247 204.403C453.423 205.274 454.626 206.145 455.856 207.018L463.427 200.015L465.129 201.854L457.857 208.58C458.362 209.012 458.868 209.444 459.373 209.876C459.879 210.308 460.356 210.767 460.804 211.252C462.044 212.592 463.042 214.129 463.8 215.863C464.559 217.542 464.931 219.632 464.916 222.132L477.197 208.55L480.006 211.587L464.051 226.346L462.547 224.72C462.453 222.215 462.052 220.152 461.345 218.53C460.667 216.882 459.788 215.473 458.706 214.304C458.152 213.705 457.554 213.173 456.913 212.708C456.273 212.188 455.618 211.709 454.948 211.271L452.767 213.289L451.065 211.45L452.734 209.906Z" fill="#068E69" stroke="#068E69"></path><path d="M493.455 161.622C490.563 159.256 486.226 159.65 483.729 162.542C481.231 165.433 481.757 169.771 484.649 172.268C487.54 174.634 491.877 174.239 494.375 171.348C496.74 168.325 496.346 163.988 493.455 161.622Z" fill="#068E69"></path><path d="M506.598 145.456C503.706 143.09 499.369 143.484 496.872 146.376C494.506 149.267 494.9 153.604 497.792 156.102C500.683 158.467 505.021 158.073 507.518 155.182C510.015 152.159 509.621 147.821 506.598 145.456Z" fill="#068E69"></path><path d="M418.669 253.099C415.778 250.733 411.441 251.127 408.943 254.019C406.578 256.91 406.972 261.248 409.863 263.745C412.755 266.111 417.092 265.716 419.589 262.825C421.955 259.802 421.561 255.465 418.669 253.099Z" fill="#004060"></path><path d="M431.55 237.196C428.658 234.83 424.321 235.224 421.824 238.116C419.458 241.007 419.852 245.344 422.744 247.842C425.635 250.207 429.973 249.813 432.47 246.922C434.967 244.03 434.441 239.693 431.55 237.196Z" fill="#118C8C"></path><path d="M336.655 89.7283C336.655 89.7283 312.209 269.66 294.597 322.496C357.816 338.267 400.663 341.685 400.663 341.685C400.663 341.685 461.648 124.558 449.03 109.969C430.498 101.689 431.024 101.952 336.655 89.7283Z" fill="#068E69"></path><path d="M407.498 112.992C405.92 126.661 417.355 141.118 429.447 141.644C443.247 164.645 397.377 306.986 397.377 306.986C397.246 306.986 397.246 306.986 397.114 306.986C384.497 304.095 371.616 313.821 369.119 326.044L331.661 319.21C333.764 306.066 324.695 294.369 312.077 291.609C311.946 291.609 311.815 291.609 311.683 291.609L339.547 124.164C340.335 124.426 341.124 124.689 341.913 124.821C354.53 127.712 369.776 118.512 372.274 106.157L407.76 112.597C407.629 112.597 407.498 112.729 407.498 112.992Z" fill="#A2D7C5"></path><path d="M374.508 190.537C358.867 187.646 343.884 198.16 340.993 213.801C338.101 229.441 348.616 244.424 364.256 247.316C379.897 250.207 394.88 239.693 397.772 224.052C400.532 208.28 390.148 193.297 374.508 190.537Z" fill="white"></path><path d="M347.959 208.412L353.216 210.252C354.662 206.309 357.422 202.76 359.656 200.789L363.073 204.206C360.839 206.178 358.736 209.069 357.422 212.881C355.713 217.744 356.502 221.687 359.656 222.738C362.679 223.79 365.571 221.818 368.988 217.349C373.588 211.172 377.662 207.755 382.525 209.463C387.126 211.041 389.228 216.298 387.914 222.87L393.566 224.841L392.12 229.047L386.731 227.207C385.154 231.281 383.314 233.778 381.737 235.356L378.057 231.807C379.24 230.624 380.948 228.521 382.525 224.052C384.365 218.795 383.445 216.298 381.211 215.509C378.32 214.458 375.954 216.561 371.879 221.687C367.148 227.864 362.942 230.361 357.947 228.653C353.61 227.075 350.456 221.818 351.902 214.458L346.381 212.486L347.959 208.412Z" fill="#006769"></path><path d="M348.167 208.131L346.431 213.094L392.209 229.108L393.945 224.146L348.167 208.131Z" fill="#006769"></path><path d="M378.845 163.856C375.165 163.199 371.485 165.696 370.828 169.376C370.171 173.057 372.668 176.737 376.348 177.394C380.028 178.051 383.708 175.554 384.365 171.874C385.154 168.062 382.657 164.513 378.845 163.856Z" fill="#068E69"></path><path d="M382.657 143.353C378.977 142.696 375.296 145.193 374.639 148.873C373.982 152.553 376.479 156.233 380.159 156.89C383.84 157.548 387.52 155.05 388.177 151.37C388.834 147.559 386.337 144.01 382.657 143.353Z" fill="#068E69"></path><path d="M357.816 280.174C354.136 279.517 350.456 282.014 349.799 285.694C349.141 289.374 351.639 293.055 355.319 293.712C358.999 294.369 362.679 291.872 363.336 288.192C364.125 284.38 361.628 280.831 357.816 280.174Z" fill="#004060"></path><path d="M361.496 260.065C357.816 259.408 354.136 261.905 353.479 265.585C352.821 269.265 355.319 272.945 358.999 273.602C362.679 274.259 366.359 271.762 367.016 268.082C367.673 264.271 365.308 260.722 361.496 260.065Z" fill="#118C8C"></path><path d="M215.869 269.397C215.869 269.397 248.464 151.896 177.622 97.4827C46.4521 177.525 125.443 306.329 125.443 306.329L215.869 269.397Z" fill="#0DDAA7"></path><path d="M177.622 97.4827C177.228 97.7455 176.702 98.0084 176.308 98.2713L173.679 241.927L107.174 181.862C106.911 182.782 106.648 183.834 106.385 184.754L173.548 245.476L172.759 286.877L175.519 285.826L176.965 203.155L220.6 175.159C220.469 174.239 220.338 173.188 220.075 172.268L176.965 200L178.805 98.5341C178.542 98.2713 178.016 97.877 177.622 97.4827Z" fill="#0CC194"></path><path d="M201.543 251.916C201.543 251.916 134.381 154.262 37.7775 161.622C2.02783 258.225 103.625 314.215 103.625 314.215L209.297 325.913L201.543 251.916Z" fill="#0CC194"></path><path d="M129.649 185.017L119.792 237.984L39.6176 161.359C38.9604 161.491 38.3033 161.491 37.6461 161.622C37.5147 162.016 37.3832 162.411 37.2518 162.805L80.0989 203.812L30.1544 208.018C30.1544 208.543 30.2859 208.938 30.2859 209.463L30.4173 210.778L82.7275 206.309L154.227 274.786L66.9556 285.037C67.7442 285.826 68.5328 286.614 69.3214 287.403L156.856 277.151L207.589 325.781L209.429 326.044L209.034 323.416L122.289 240.35L132.278 186.726C131.226 186.068 130.438 185.543 129.649 185.017Z" fill="#1AD3A5"></path><path d="M166.319 298.18C166.319 298.18 69.4528 268.082 27 321.444C74.0529 452.482 243.864 401.881 243.864 401.881L166.319 298.18Z" fill="#0C9774"></path><path d="M27 321.444C27.1315 321.97 27.3943 322.495 27.5258 322.89L161.587 353.514L103.1 400.172C104.02 400.566 105.071 400.961 105.991 401.224L164.873 354.302L217.183 366.263L214.686 362.977L112.826 339.713L82.3332 291.74C81.4132 291.872 80.4931 292.003 79.4417 292.266L109.145 338.925L27.9201 320.261C27.6572 320.655 27.2629 321.05 27 321.444Z" fill="#13AB85"></path><path d="M311.026 472.197C404.302 472.197 479.917 407.468 479.917 327.621C479.917 247.774 404.302 183.045 311.026 183.045C217.75 183.045 142.135 247.774 142.135 327.621C142.135 407.468 217.75 472.197 311.026 472.197Z" fill="#248FFB"></path><path d="M364.519 211.041C369.514 170.822 395.669 161.753 395.669 161.753L407.892 225.498C408.023 225.498 359.525 251.259 364.519 211.041Z" fill="#248FFB"></path><path d="M451.527 280.831H496.083C510.278 296.472 508.832 319.341 505.415 334.982C503.18 345.365 494.112 352.725 483.466 353.119L441.276 354.696L451.527 280.831Z" fill="#248FFB"></path><path d="M220.074 441.574V477.06C220.074 480.741 222.966 483.632 226.646 483.632H257.27C260.95 483.632 263.842 480.741 263.842 477.06V438.025L220.074 441.574Z" fill="#248FFB"></path><path d="M359.787 441.574V477.06C359.787 480.741 362.679 483.632 366.359 483.632H396.983C400.663 483.632 403.555 480.741 403.555 477.06V438.025L359.787 441.574Z" fill="#248FFB"></path><path d="M107.437 241.927C107.568 255.728 118.608 266.899 131.883 267.162C138.718 277.808 152.912 281.226 164.61 277.677C170.393 275.968 176.045 272.42 179.593 267.425C182.616 263.088 184.062 256.911 179.856 252.836C179.199 252.179 179.199 253.362 179.593 253.756C185.245 259.408 178.41 268.082 173.679 271.631C169.736 274.654 164.873 276.757 159.878 277.545C150.284 279.123 139.901 276.1 133.592 268.345C133.329 267.951 133.066 267.688 132.803 267.294C134.512 267.294 136.22 267.031 138.06 266.637C143.449 265.322 149.364 261.905 150.809 256.122C151.992 251.39 149.232 247.053 144.895 245.082C139.112 242.453 133.066 245.344 130.306 250.865C127.809 255.859 128.466 261.379 131.095 266.111C118.477 265.717 108.488 255.333 108.357 242.716C108.357 242.059 107.437 241.139 107.437 241.927ZM132.015 265.979C129.123 261.116 128.729 254.939 132.146 250.076C135.3 245.476 141.083 243.636 146.078 246.659C152.65 250.602 150.284 258.093 145.158 261.905C141.346 264.665 136.615 265.979 132.015 265.979Z" fill="#FAA525"></path><path d="M155.278 282.934C145.158 282.934 135.432 278.597 129.649 270.974C115.191 269.66 103.625 257.042 103.362 241.927C103.362 239.562 105.071 237.722 107.437 237.59C110.065 237.59 112.037 240.087 112.168 242.322C112.3 250.865 117.557 257.962 125.049 260.722C124.392 256.648 124.917 252.442 126.757 248.762C130.569 241.139 139.112 237.853 146.472 241.27C152.65 244.162 156.067 250.733 154.49 256.911C152.781 263.614 146.604 267.82 140.821 269.66C145.815 273.077 152.387 274.523 159.09 273.471C163.559 272.814 167.633 270.974 171.05 268.345C174.073 265.98 177.359 261.905 177.49 258.882C177.49 257.831 177.228 257.174 176.57 256.385C175.387 255.202 174.862 253.362 175.387 251.653C175.782 250.208 176.833 249.025 178.279 248.63C179.725 248.236 181.302 248.63 182.485 249.813C188.136 255.465 186.559 263.745 182.616 269.397C178.805 274.786 172.627 279.123 165.661 281.226C162.244 282.409 158.827 282.934 155.278 282.934ZM140.821 249.156C138.586 249.156 136.483 250.602 135.301 252.311C133.46 255.071 133.066 258.488 134.38 261.905C137.535 261.511 140.426 260.459 142.661 258.751C144.764 257.174 146.078 254.808 145.947 252.968C145.947 252.179 145.684 251.128 143.844 250.076C142.924 249.419 141.872 249.156 140.821 249.156Z" fill="#1A70C8"></path><path d="M418.932 295.815C422.489 295.815 425.373 292.931 425.373 289.375C425.373 285.818 422.489 282.934 418.932 282.934C415.376 282.934 412.492 285.818 412.492 289.375C412.492 292.931 415.376 295.815 418.932 295.815Z" fill="white"></path><path d="M349.141 197.635C294.728 188.434 258.059 202.629 258.059 202.629L261.213 209.595C261.213 209.595 303.271 194.612 348.879 205.783L349.141 197.635Z" fill="#1A70C8"></path><path d="M551.548 480.872C551.548 480.872 548.131 484.026 540.376 485.998C538.668 486.392 536.827 485.867 536.827 488.627C540.508 488.627 546.291 488.627 546.291 488.627L554.177 487.312V488.627H558.382C558.382 488.627 559.565 481.661 557.068 480.872C554.834 480.872 551.548 480.872 551.548 480.872Z" fill="#021A14"></path><path d="M552.074 475.877L551.548 480.872C553.125 481.923 555.097 482.055 556.674 481.003L556.937 480.872L558.645 475.877H552.074Z" fill="white"></path><path d="M575.206 480.872C575.206 480.872 571.789 484.026 564.034 485.998C562.325 486.392 560.485 485.867 560.485 488.627C564.165 488.627 569.949 488.627 569.949 488.627L577.834 487.312V488.627H582.04C582.04 488.627 583.223 481.661 580.726 480.872C578.36 480.872 575.206 480.872 575.206 480.872Z" fill="#021A14"></path><path d="M575.6 475.877L575.074 480.872C576.652 481.923 578.623 482.055 580.2 481.003L580.463 480.872L582.172 475.877H575.6Z" fill="white"></path><path d="M567.188 312.638L568.503 320.787L575.731 317.501L573.366 307.775L567.188 312.638Z" fill="white"></path><path d="M564.56 313.427C563.508 313.427 562.588 313.295 562.063 312.901C559.171 308.695 562.457 297.261 562.457 297.261L567.057 295.289L572.971 298.969L573.366 306.592C573.497 308.695 572.446 310.535 570.737 311.85C568.897 312.901 566.663 313.427 564.56 313.427Z" fill="white"></path><path d="M571.394 301.072C571.131 299.758 569.817 298.969 568.503 299.232C567.583 299.363 566.4 299.495 565.348 299.495C562.72 299.495 559.434 298.443 559.434 294.5C559.434 290.557 564.297 291.872 564.297 291.872C564.297 291.872 574.417 293.449 578.229 296.34C580.069 297.786 576.914 302.123 575.863 304.358C575.206 305.672 574.286 306.855 573.234 307.775L571.394 301.072Z" fill="#021A14"></path><path d="M574.812 303.569C574.286 303.044 573.103 303.175 572.314 303.832C571.526 304.489 571.394 305.409 572.051 305.935C572.577 306.461 573.76 306.329 574.549 305.672C575.206 305.015 575.337 304.095 574.812 303.569Z" fill="white"></path><path d="M568.503 320.787C568.503 320.787 557.594 338.662 551.154 380.063C564.297 384.138 584.275 388.606 584.275 388.606C584.275 388.606 596.104 343.656 575.732 317.501C571.394 317.501 568.503 320.787 568.503 320.787Z" fill="#51BF9D"></path><path d="M551.154 380.063C551.154 380.063 542.085 410.556 542.085 424.487C542.085 438.288 551.154 477.323 551.154 477.323H559.565C559.565 477.323 561.537 449.985 559.171 434.739C558.514 430.27 558.777 425.67 560.091 421.202C564.56 405.824 569.423 385.058 569.423 385.058L551.154 380.063Z" fill="#021A14"></path><path d="M557.331 382.56C557.331 382.56 554.965 415.681 558.777 427.642C562.588 439.602 575.206 477.323 575.206 477.323H582.566C582.566 477.323 584.406 456.82 578.492 435.002C577.046 429.745 577.309 424.093 579.017 418.967C584.8 402.012 584.275 388.738 584.275 388.738L557.331 382.56Z" fill="#021A14"></path><path d="M531.044 341.159C509.621 349.308 511.855 355.091 509.752 362.451C507.649 369.811 506.861 383.349 531.044 385.715C555.228 387.949 553.914 373.754 559.565 362.451C565.085 351.148 547.868 341.159 547.868 341.159C547.868 341.159 538.142 344.708 531.044 341.159Z" fill="#FF5741"></path><path d="M538.93 384.663C538.536 384.926 537.221 385.583 534.199 385.452C531.57 385.32 525.918 383.48 526.707 386.24C529.073 387.949 531.701 390.183 531.701 390.183C533.278 391.103 536.17 390.709 538.01 390.183L543.399 387.817C543.399 387.817 544.187 385.057 544.187 384.926L543.136 384.269C541.822 384.663 540.376 384.795 538.93 384.663Z" fill="white"></path><path d="M537.879 385.715C537.879 385.715 537.747 385.846 537.484 385.977C537.879 386.109 538.141 386.372 538.404 386.635C539.85 386.898 541.164 387.16 542.61 387.292C542.61 386.503 542.61 385.32 542.61 385.189L533.804 381.903C533.804 381.903 532.884 382.823 534.461 384.006C536.17 385.32 537.879 385.715 537.879 385.715Z" fill="white"></path><path d="M567.188 335.113L564.691 354.959C564.165 358.771 562.588 362.451 559.828 365.211L541.953 384.137L543.662 388.606C543.662 388.606 570.606 375.857 575.6 368.365C580.595 360.874 583.092 337.873 583.092 337.873L567.188 335.113Z" fill="#51BF9D"></path><path d="M581.777 345.496C580.594 352.857 578.492 363.503 575.469 368.103C570.868 375.069 547.211 386.503 544.056 388.08L542.479 384.137L560.222 365.343C562.983 362.451 564.691 358.771 565.085 354.828L566.137 345.891C565.874 345.759 565.743 345.628 565.48 345.496L564.297 354.697C563.771 358.508 562.194 361.925 559.565 364.817L541.69 383.743L541.559 383.875L543.53 388.869L543.925 388.738C544.976 388.212 571 375.857 575.994 368.366C579.28 363.503 581.383 352.331 582.566 344.839C582.303 345.233 582.04 345.365 581.777 345.496Z" fill="#3BAA88"></path><path d="M531.044 341.159C531.833 339.976 531.701 338.267 530.781 337.216L528.021 334.324C528.021 334.324 532.621 327.884 539.587 332.616C544.845 336.165 549.708 333.799 551.679 332.484C551.942 332.353 552.205 332.616 552.073 332.879C551.153 334.85 549.97 336.559 548.656 338.136C547.868 339.188 547.21 340.239 547.736 341.29L539.324 344.313L531.044 341.159Z" fill="#FF5741"></path><path d="M530.124 341.422C530.124 341.422 533.147 345.102 539.982 345.102C546.816 345.102 548.919 341.948 548.919 341.948L547.474 340.108C547.474 340.108 545.765 342.605 539.982 342.999C535.382 343.262 531.439 340.108 531.439 340.108L530.124 341.422Z" fill="#E5503C"></path><path d="M536.17 373.623C541.759 373.623 546.29 369.092 546.29 363.502C546.29 357.913 541.759 353.382 536.17 353.382C530.581 353.382 526.05 357.913 526.05 363.502C526.05 369.092 530.581 373.623 536.17 373.623Z" fill="#E5503C"></path><path d="M536.688 370.498V368.908C538.156 368.601 538.991 367.347 538.991 366.005C538.991 364.692 538.32 363.554 536.624 363.116L535.523 362.839C535.03 362.707 534.777 362.401 534.777 362.007C534.777 361.54 535.131 361.059 535.84 361.059C536.839 361.059 537.055 361.817 537.13 362.27L538.889 361.73C538.712 360.738 538.08 359.585 536.688 359.235V357.616H535.232V359.191C533.904 359.454 532.841 360.577 532.841 362.211C532.841 363.597 533.714 364.589 535.131 364.983L536.257 365.29C536.764 365.421 537.042 365.698 537.042 366.121C537.042 366.69 536.586 367.04 535.954 367.04C534.865 367.04 534.359 366.282 534.296 365.436L532.55 365.888C532.638 367.084 533.448 368.601 535.232 368.937V370.498H536.688Z" fill="#FF988A"></path><path d="M568.108 318.158L575.074 314.347L575.731 317.501L568.108 321.576V318.158Z" fill="#51BF9D"></path><path d="M192.043 368.76L187.049 371.257C186.655 371.52 186.26 371.915 186.26 372.44L186.129 373.623C186.129 374.018 186.26 374.412 186.392 374.675L189.94 378.881C190.335 379.406 191.123 379.538 191.649 379.275L192.306 379.012C192.569 378.881 192.832 378.618 192.963 378.223L195.329 371.652L192.043 368.76Z" fill="white"></path><path d="M142.625 478.506L194.935 381.378C196.118 379.143 195.46 376.383 193.489 374.937L190.597 372.834C189.415 371.914 187.969 371.652 186.523 372.046C185.077 372.309 183.894 373.229 183.237 374.543L129.744 474.432L130.401 474.826L183.894 374.937C184.42 373.886 185.472 373.097 186.654 372.834C187.837 372.572 189.152 372.834 190.072 373.492L192.963 375.594C194.672 376.909 195.198 379.143 194.146 381.115L141.836 478.243L142.625 478.506Z" fill="#ACE1D3"></path><path d="M200.586 352.331L191.386 368.234L195.986 372.046L204.792 362.189L200.586 352.331Z" fill="#FF5741"></path><path d="M237.519 313.033L233.707 320.787L227.399 315.398L232.787 306.33L237.519 313.033Z" fill="white"></path><path d="M239.885 314.61C240.936 314.873 241.856 315.004 242.513 314.741C246.719 311.324 246.851 298.838 246.851 298.838L242.776 295.421L235.679 297.261L233.05 304.884C232.393 306.855 232.656 309.221 234.102 311.061C235.679 312.77 237.65 313.953 239.885 314.61Z" fill="white"></path><path d="M236.73 300.152C237.388 298.969 238.965 298.444 240.279 299.101C241.199 299.495 242.251 300.021 243.433 300.415C246.062 301.204 249.611 301.204 250.925 297.129C252.108 293.055 246.851 292.923 246.851 292.923C246.851 292.923 236.205 291.346 231.473 293.055C229.107 293.843 230.947 299.364 231.473 301.861C231.736 303.307 232.262 304.752 233.05 306.067L236.73 300.152Z" fill="#021A14"></path><path d="M232.656 301.466C233.444 301.072 234.496 301.598 235.022 302.386C235.547 303.306 235.416 304.226 234.759 304.621C233.97 305.015 232.919 304.489 232.393 303.701C231.736 302.912 231.867 301.861 232.656 301.466Z" fill="white"></path><path d="M231.999 315.004C252.239 325.65 237.519 374.543 237.519 374.543L198.352 370.074C198.352 370.074 201.375 307.775 231.999 315.004Z" fill="#FF5741"></path><path d="M209.524 333.93C209.524 333.93 214.518 366.526 222.667 367.84C230.947 369.023 255.525 340.896 255.525 340.896L250.925 337.216C250.925 337.216 237.388 346.154 231.867 349.965C230.027 340.239 227.267 326.833 227.267 326.833L209.524 333.93Z" fill="#FF5741"></path><path d="M251.451 337.61L231.736 350.622L231.604 350.096C230.29 342.868 228.319 333.536 227.53 329.199C227.793 329.067 227.924 328.936 228.187 328.804C227.924 328.936 227.793 329.067 227.53 329.067C227.53 329.067 227.53 329.067 227.53 328.936C227.793 328.804 227.924 328.673 228.187 328.542C228.976 332.484 230.816 341.816 232.262 349.308L251.056 337.216L251.451 337.61Z" fill="#E3412C"></path><path d="M210.97 339.319C212.81 348.519 217.015 366.657 222.93 367.445C228.582 368.234 242.119 354.434 249.742 346.416C250.005 346.811 250.005 346.679 250.137 347.073C242.513 355.091 229.502 368.365 223.324 368.365C223.061 368.365 222.93 368.365 222.799 368.365C216.49 367.445 212.021 349.045 210.312 339.582C210.444 339.45 210.707 339.319 210.97 339.319Z" fill="#E3412C"></path><path d="M188.495 478.769C188.495 478.769 188.495 483.764 198.615 486.787C200.718 487.444 200.061 487.97 200.455 488.89C197.169 488.89 188.889 488.89 188.889 488.89L184.289 483.764L182.843 484.947L179.557 481.661C179.557 481.661 181.134 477.061 183.632 476.929C185.603 477.849 188.495 478.769 188.495 478.769Z" fill="#021A14"></path><path d="M190.335 474.432L188.495 478.769C186.786 479.295 184.946 478.638 183.763 477.323L183.5 477.06L185.077 472.592L190.335 474.432Z" fill="white"></path><path d="M198.746 374.543C198.746 374.543 199.009 388.606 203.872 407.795C205.975 415.681 204.529 424.225 199.798 430.796C188.232 447.225 184.552 473.775 184.552 473.775L190.203 475.22L227.267 423.567L198.746 374.543Z" fill="#021A14"></path><path d="M236.205 315.793L229.37 312.113L226.479 314.478L236.468 318.553L236.205 315.793Z" fill="#FF5741"></path><path d="M236.073 481.529C236.073 481.529 239.359 484.552 246.719 486.392C248.296 486.787 250.136 486.261 250.136 488.89C246.719 488.89 241.199 488.89 241.199 488.89L233.707 487.575V488.89H229.633C229.633 488.89 228.45 482.318 230.816 481.398C233.05 481.529 236.073 481.529 236.073 481.529Z" fill="#021A14"></path><path d="M235.285 476.798L236.073 481.529C234.627 482.581 232.656 482.581 231.079 481.661L230.816 481.529L229.633 476.798H235.285Z" fill="white"></path><path d="M198.352 370.074C198.352 370.074 198.352 391.367 215.438 416.076C218.461 420.545 220.17 425.67 220.17 431.059C220.433 454.454 229.764 477.061 229.764 477.061H235.416L237.519 374.543L198.352 370.074Z" fill="#021A14"></path><path d="M265.036 320.489L253.729 335.831L254.893 336.688L266.2 321.347L265.036 320.489Z" fill="white"></path><path d="M255.131 340.502L258.154 338.662C260.52 336.559 262.097 333.536 262.491 330.382L263.017 325.781C261.965 326.176 261.177 327.753 260.651 328.542L256.445 333.799L251.582 337.479L255.131 340.502Z" fill="white"></path><path d="M256.577 336.033C256.051 335.508 253.159 337.873 253.159 336.69C253.159 336.69 254.342 331.959 255.525 330.907C256.708 329.856 257.628 326.833 257.628 326.833C257.628 326.833 258.68 326.964 258.417 328.673C258.285 329.593 257.497 330.645 257.234 331.959C257.234 333.142 257.497 334.588 256.577 336.033Z" fill="white"></path><path d="M120.022 429.217C135.554 428.444 147.519 415.227 146.746 399.695C145.973 384.163 132.756 372.198 117.224 372.971C101.692 373.743 89.7273 386.961 90.5 402.493C91.2727 418.025 104.49 429.989 120.022 429.217Z" fill="#FF5741"></path><path d="M128.074 413.549L112.815 414.881C113.935 413.555 114.729 412.233 115.18 410.915C115.761 409.285 116.053 407.632 116.053 405.96C116.053 405.356 116.016 404.752 115.943 404.149L115.8 402.957H124.211H124.711V402.457V400.242V399.742H124.211H115.27C115.022 398.578 114.787 397.427 114.566 396.29C114.361 395.049 114.258 393.791 114.258 392.516C114.258 391.727 114.342 391.013 114.506 390.373L114.506 390.373L114.507 390.368C114.668 389.711 114.936 389.163 115.306 388.712C115.671 388.266 116.147 387.918 116.746 387.672L116.756 387.668L116.765 387.664C117.348 387.394 118.115 387.246 119.09 387.246C120.498 387.246 121.653 387.54 122.579 388.101L122.588 388.106L122.596 388.111C123.439 388.577 123.922 389.468 123.922 390.97C123.922 391.795 123.837 392.674 123.666 393.61L123.571 394.128L124.093 394.196L128.053 394.711L128.458 394.764L128.591 394.377C128.993 393.2 129.198 392.064 129.198 390.97C129.198 389.666 128.92 388.539 128.332 387.616C127.793 386.718 127.046 385.993 126.1 385.439C125.162 384.89 124.083 384.511 122.873 384.296C121.68 384.085 120.418 383.98 119.09 383.98C115.855 383.98 113.322 384.715 111.577 386.27C109.836 387.821 108.981 389.923 108.981 392.516C108.981 393.961 109.144 395.341 109.471 396.654L109.471 396.654L109.472 396.658C109.736 397.686 110.023 398.714 110.335 399.742H108.953H108.453V400.242V402.457V402.957H108.953H111.254C111.383 403.507 111.49 404.069 111.573 404.642L111.575 404.656L111.578 404.67C111.712 405.323 111.779 405.993 111.779 406.681C111.779 408.021 111.512 409.403 110.967 410.83L110.967 410.83L110.964 410.84C110.464 412.238 109.503 413.763 108.05 415.417L107.925 415.559V415.747V417.705V418.205H108.425H128.118H128.618V417.705V414.047V413.502L128.074 413.549Z" fill="#FF7C6A" stroke="#FF7C6A"></path><path d="M118.618 430.375C102.456 430.375 89.3351 417.254 89.3351 401.092C89.3351 384.93 102.456 371.809 118.618 371.809C134.78 371.809 147.901 384.93 147.901 401.092C147.901 417.254 134.78 430.375 118.618 430.375ZM118.618 374.062C103.695 374.062 91.5877 386.225 91.5877 401.092C91.5877 416.015 103.751 428.123 118.618 428.123C133.541 428.123 145.649 415.959 145.649 401.092C145.649 386.169 133.541 374.062 118.618 374.062Z" fill="#E8442E"></path><path d="M115.55 464.443H95.5718V474.695H115.55V464.443Z" fill="#FF7C6A"></path><path d="M131.05 464.969H110.653V474.631H131.05V464.969Z" fill="#FF5741"></path><path d="M94.7832 463.786H155.374V475.484H94.7832V463.786ZM153.928 465.232H96.3604V473.906H153.928V465.232Z" fill="#E8442E"></path><path d="M108.847 454.323H88.8688V464.575H108.847V454.323Z" fill="#FF7C6A"></path><path d="M124.609 454.234H104.212V464.969H124.609V454.234Z" fill="#FF5741"></path><path d="M88.2115 453.534H148.671V465.232H88.2115V453.534ZM147.225 454.98H89.6573V463.655H147.225V454.98Z" fill="#E8442E"></path><path d="M124.224 444.071H104.246V454.323H124.224V444.071Z" fill="#FF7C6A"></path><path d="M140.711 444.572H119.241V454.234H140.711V444.572Z" fill="#FF5741"></path><path d="M103.589 443.283H164.18V454.98H103.589V443.283ZM162.602 444.86H105.035V453.534H162.602V444.86Z" fill="#E8442E"></path><path d="M119.624 433.951H99.6462V444.203H119.624V433.951Z" fill="#FF7C6A"></path><path d="M136.417 433.837H114.947V444.572H136.417V433.837Z" fill="#FF5741"></path><path d="M98.989 433.162H159.579V444.86H98.989V433.162ZM158.002 434.608H100.435V443.283H158.002V434.608Z" fill="#E8442E"></path><path d="M110.949 423.699H90.9714V433.951H110.949V423.699Z" fill="#FF7C6A"></path><path d="M125.407 423.699H106.349V433.951H125.407V423.699Z" fill="#FF5741"></path><path d="M90.183 422.91H150.773V434.608H90.183V422.91ZM149.328 424.488H91.7601V433.162H149.328V424.488Z" fill="#E8442E"></path><path d="M155.899 481.529H96.3602C95.4402 481.529 94.5201 480.741 94.5201 479.689V476.798C94.5201 475.878 95.3087 474.958 96.3602 474.958H155.899C156.819 474.958 157.739 475.746 157.739 476.798V479.689C157.739 480.741 156.819 481.529 155.899 481.529Z" fill="#0C9774"></path><path d="M153.534 485.735C153.534 489.809 150.248 493.095 146.173 493.095C142.099 493.095 138.813 489.809 138.813 485.735C138.813 481.661 142.099 478.375 146.173 478.375C150.248 478.375 153.534 481.661 153.534 485.735Z" fill="#021A14"></path><path d="M149.853 485.735C149.853 487.838 148.145 489.546 146.042 489.546C143.939 489.546 142.23 487.838 142.23 485.735C142.23 483.632 143.939 481.923 146.042 481.923C148.276 481.923 149.853 483.632 149.853 485.735Z" fill="white"></path><path d="M113.184 485.735C113.184 489.809 109.898 493.095 105.823 493.095C101.749 493.095 98.4632 489.809 98.4632 485.735C98.4632 481.661 101.749 478.375 105.823 478.375C109.898 478.375 113.184 481.661 113.184 485.735Z" fill="#021A14"></path><path d="M109.504 485.735C109.504 487.838 107.795 489.546 105.692 489.546C103.589 489.546 101.88 487.838 101.88 485.735C101.88 483.632 103.589 481.923 105.692 481.923C107.795 481.923 109.504 483.632 109.504 485.735Z" fill="white"></path><path d="M195.329 371.52L194.935 376.515C194.803 377.435 194.015 377.96 193.226 377.698L191.123 377.04C190.598 376.909 189.94 373.886 189.94 373.886C189.94 373.886 191.912 372.835 192.306 375.726C192.7 375.595 193.358 375.726 193.358 375.726C193.358 375.726 191.255 372.966 192.963 369.68L195.329 371.52Z" fill="white"></path><path d="M174.957 417.127C175.22 417.127 175.483 417.127 175.746 417.259L142.756 478.638L142.099 478.243L174.957 417.127Z" fill="#58C4C5"></path><path d="M142.625 478.506C143.545 475.746 145.648 473.512 147.093 470.62C155.637 452.745 166.414 435.528 175.22 417.916" fill="#ACE1D3"></path><path d="M130.007 474.695V464.443H154.585V474.695H130.007Z" fill="#E6503C"></path><path d="M123.435 464.443V454.323H148.013V464.443H123.435Z" fill="#E6503C"></path><path d="M163.391 444.071H138.813V454.323H163.391V444.071Z" fill="#E6503C"></path><path d="M134.213 444.071V433.951H158.659V444.071H134.213Z" fill="#E6503C"></path><path d="M125.407 423.699H149.985V433.951H125.407" fill="#E6503C"></path><path d="M303.412 169.606C328.828 168.342 348.407 146.713 347.142 121.297C345.878 95.8813 324.249 76.3027 298.833 77.5671C273.418 78.8315 253.839 100.46 255.103 125.876C256.368 151.292 277.996 170.87 303.412 169.606Z" fill="#FF5741"></path><path d="M316.616 144.285L290.864 146.533C292.951 144.184 294.4 141.858 295.188 139.553C296.128 136.918 296.599 134.249 296.599 131.549C296.599 130.574 296.54 129.599 296.422 128.624L296.421 128.618L296.421 128.612L296.42 128.607L296.419 128.601L296.419 128.596L296.418 128.59L296.417 128.584L296.417 128.579L296.416 128.573L296.415 128.568L296.415 128.562L296.414 128.556L296.413 128.551L296.413 128.545L296.412 128.54L296.411 128.534L296.411 128.528L296.41 128.523L296.409 128.517L296.409 128.512L296.408 128.506L296.407 128.5L296.407 128.495L296.406 128.489L296.405 128.484L296.405 128.478L296.404 128.472L296.403 128.467L296.403 128.461L296.402 128.456L296.401 128.45L296.401 128.444L296.4 128.439L296.399 128.433L296.399 128.428L296.398 128.422L296.397 128.416L296.397 128.411L296.396 128.405L296.395 128.4L296.394 128.394L296.394 128.388L296.393 128.383L296.392 128.377L296.392 128.372L296.391 128.366L296.39 128.36L296.39 128.355L296.389 128.349L296.388 128.344L296.388 128.338L296.387 128.332L296.386 128.327L296.386 128.321L296.385 128.316L296.384 128.31L296.384 128.304L296.383 128.299L296.382 128.293L296.382 128.288L296.381 128.282L296.38 128.276L296.38 128.271L296.379 128.265L296.378 128.26L296.378 128.254L296.377 128.249L296.376 128.243L296.376 128.237L296.375 128.232L296.374 128.226L296.374 128.221L296.373 128.215L296.372 128.209L296.372 128.204L296.371 128.198L296.37 128.193L296.37 128.187L296.369 128.181L296.368 128.176L296.367 128.17L296.367 128.165L296.366 128.159L296.365 128.153L296.365 128.148L296.364 128.142L296.363 128.137L296.363 128.131L296.362 128.125L296.361 128.12L296.361 128.114L296.36 128.109L296.359 128.103L296.359 128.097L296.358 128.092L296.357 128.086L296.357 128.081L296.356 128.075L296.355 128.069L296.355 128.064L296.354 128.058L296.353 128.053L296.353 128.047L296.352 128.041L296.351 128.036L296.351 128.03L296.35 128.025L296.349 128.019L296.349 128.013L296.348 128.008L296.347 128.002L296.347 127.997L296.346 127.991L296.345 127.985L296.345 127.98L296.344 127.974L296.343 127.969L296.343 127.963L296.342 127.957L296.341 127.952L296.34 127.946L296.34 127.941L296.339 127.935L296.338 127.929L296.338 127.924L296.337 127.918L296.336 127.913L296.336 127.907L296.335 127.901L296.334 127.896L296.334 127.89L296.333 127.885L296.332 127.879L296.332 127.873L296.331 127.868L296.33 127.862L296.33 127.857L296.329 127.851L296.328 127.845L296.328 127.84L296.327 127.834L296.326 127.829L296.326 127.823L296.325 127.818L296.324 127.812L296.324 127.806L296.323 127.801L296.322 127.795L296.322 127.79L296.321 127.784L296.32 127.778L296.32 127.773L296.319 127.767L296.318 127.762L296.318 127.756L296.317 127.75L296.316 127.745L296.316 127.739L296.315 127.734L296.314 127.728L296.313 127.722L296.313 127.717L296.312 127.711L296.311 127.706L296.311 127.7L296.31 127.694L296.309 127.689L296.309 127.683L296.308 127.678L296.307 127.672L296.307 127.666L296.306 127.661L296.305 127.655L296.305 127.65L296.304 127.644L296.303 127.638L296.303 127.633L296.302 127.627L296.301 127.622L296.301 127.616L296.3 127.61L296.299 127.605L296.299 127.599L296.298 127.594L296.297 127.588L296.297 127.582L296.296 127.577L296.295 127.571L296.295 127.566L296.294 127.56L296.293 127.554L296.293 127.549L296.292 127.543L296.291 127.538L296.291 127.532L296.29 127.526L296.289 127.521L296.289 127.515L296.288 127.51L296.287 127.504L296.286 127.498L296.286 127.493L296.285 127.487L296.284 127.482L296.284 127.476L296.283 127.47L296.282 127.465L296.282 127.459L296.281 127.454L296.28 127.448L296.28 127.442L296.279 127.437L296.278 127.431L296.278 127.426L296.277 127.42L296.276 127.414L296.276 127.409L296.275 127.403L296.274 127.398L296.274 127.392L296.273 127.386L296.272 127.381L296.272 127.375L296.271 127.37L296.27 127.364L296.27 127.359L296.269 127.353L296.268 127.347L296.268 127.342L296.267 127.336L296.266 127.331L296.266 127.325L296.265 127.319L296.264 127.314L296.264 127.308L296.263 127.303L296.262 127.297L296.262 127.291L296.261 127.286L296.26 127.28L296.259 127.275L296.259 127.269L296.258 127.263L296.257 127.258L296.257 127.252L296.256 127.247L296.255 127.241L296.255 127.235L296.254 127.23L296.253 127.224L296.253 127.219L296.252 127.213L296.251 127.207L296.251 127.202L296.25 127.196L296.249 127.191L296.249 127.185L296.248 127.179L296.247 127.174L296.247 127.168L296.246 127.163L296.245 127.157L296.245 127.151L296.244 127.146L296.243 127.14L296.243 127.135L296.242 127.129L296.241 127.123L296.241 127.118L296.24 127.112L296.239 127.107L296.239 127.101L296.238 127.095L296.237 127.09L296.237 127.084L296.236 127.079L296.235 127.073L296.235 127.067L296.234 127.062L296.233 127.056L296.233 127.051L296.232 127.045L296.231 127.039L296.23 127.034L296.23 127.028L296.229 127.023L296.228 127.017L296.228 127.011L296.227 127.006L296.226 127L296.226 126.995L296.225 126.989L296.224 126.983L296.224 126.978L296.223 126.972L296.222 126.967L296.222 126.961L296.221 126.955L296.22 126.95L296.22 126.944L296.219 126.939L296.218 126.933L296.218 126.928L296.217 126.922L296.216 126.916L296.216 126.911L296.215 126.905L296.214 126.9L296.214 126.894L296.213 126.888L296.212 126.883L296.212 126.877L296.211 126.872L296.21 126.866L296.21 126.86L296.209 126.855L296.208 126.849L296.208 126.844L296.207 126.838L296.206 126.832L296.206 126.827L296.205 126.821L296.204 126.816L296.203 126.81L296.203 126.804L296.202 126.799L296.201 126.793L296.201 126.788L296.2 126.782L296.199 126.776L296.199 126.771L296.198 126.765L296.197 126.76L296.197 126.754L296.196 126.748L296.195 126.743L296.195 126.737L296.194 126.732L296.193 126.726L296.193 126.72L296.192 126.715L296.191 126.709L296.191 126.704L296.19 126.698L296.189 126.692L296.189 126.687L296.188 126.681L296.187 126.676L296.187 126.67L296.186 126.664L296.185 126.659L296.185 126.653L296.184 126.648L296.183 126.642L296.183 126.636L296.182 126.631L296.181 126.625L296.181 126.62L296.18 126.614L296.179 126.608L296.179 126.603L296.178 126.597L296.177 126.592L296.176 126.586L296.176 126.58L296.175 126.575L296.174 126.569L296.174 126.564L296.173 126.558L296.172 126.552L296.172 126.547L296.171 126.541L296.17 126.536L296.17 126.53L296.169 126.524L296.168 126.519L296.168 126.513L296.167 126.508L296.166 126.502L296.166 126.496L296.165 126.491L296.164 126.485L296.164 126.48L296.163 126.474L296.162 126.469L296.162 126.463L296.161 126.457L296.16 126.452L296.16 126.446L296.159 126.441L296.158 126.435L296.158 126.429L296.157 126.424L296.156 126.418L296.156 126.413L296.155 126.407L296.154 126.401L296.154 126.396L296.153 126.39L296.152 126.385L296.152 126.379L296.151 126.373L296.15 126.368L296.149 126.362L296.149 126.357L296.148 126.351L296.147 126.345L296.147 126.34L296.146 126.334L296.145 126.329L296.145 126.323L296.144 126.317H310.267H310.767V125.817V122.193V121.693H310.267H295.379C294.952 119.698 294.549 117.728 294.172 115.782C293.831 113.733 293.661 111.655 293.661 109.549C293.661 108.236 293.802 107.042 294.078 105.964L294.078 105.964L294.079 105.959C294.351 104.843 294.81 103.902 295.449 103.123C296.083 102.349 296.906 101.75 297.93 101.33L297.94 101.326L297.95 101.321C298.958 100.855 300.263 100.608 301.887 100.608C304.236 100.608 306.186 101.099 307.761 102.053L307.77 102.059L307.778 102.063C309.294 102.901 310.112 104.491 310.112 107.02C310.112 108.391 309.972 109.85 309.688 111.398L309.594 111.916L310.116 111.984L316.595 112.827L317 112.879L317.133 112.492C317.781 110.594 318.11 108.769 318.11 107.02C318.11 104.93 317.664 103.146 316.739 101.7C315.887 100.277 314.703 99.1254 313.197 98.244C311.699 97.3669 309.971 96.759 308.021 96.4131C306.089 96.0703 304.044 95.8997 301.887 95.8997C296.636 95.8997 292.58 97.0942 289.805 99.5666C287.034 102.035 285.664 105.383 285.664 109.549C285.664 111.891 285.927 114.123 286.456 116.245L286.457 116.248C286.922 118.063 287.433 119.878 287.99 121.693H285.3H284.8V122.193V125.817V126.317H285.3H289.315C289.555 127.305 289.751 128.314 289.902 129.346L289.904 129.36L289.907 129.374C290.13 130.464 290.242 131.582 290.242 132.729C290.242 134.965 289.795 137.265 288.893 139.632L288.893 139.632L288.889 139.642C288.054 141.979 286.454 144.51 284.06 147.235L283.936 147.376V147.565V150.768V151.268H284.436H316.659H317.159V150.768V144.783V144.238L316.616 144.285Z" fill="#FF7C6A" stroke="#FF7C6A"></path><path d="M301.115 171.501C274.668 171.501 253.197 150.031 253.197 123.584C253.197 97.1368 274.668 75.666 301.115 75.666C327.562 75.666 349.033 97.1368 349.033 123.584C349.033 150.031 327.562 171.501 301.115 171.501ZM301.115 79.352C276.695 79.352 256.883 99.2563 256.883 123.584C256.883 148.003 276.787 167.815 301.115 167.815C325.535 167.815 345.347 147.911 345.347 123.584C345.347 99.1641 325.535 79.352 301.115 79.352Z" fill="#E8442E"></path><path d="M304.98 483.632H303.009C306.557 459.974 310.106 436.185 313.392 413.053C315.626 397.544 317.992 381.509 320.358 365.605L322.198 365.868C319.832 381.772 317.466 397.806 315.232 413.316C311.946 436.316 308.529 459.974 304.98 483.632Z" fill="#021A14"></path><path d="M360.839 483.632H358.868C362.416 459.974 365.965 436.185 369.251 413.053C371.485 397.544 373.851 381.509 376.217 365.605L378.057 365.868C375.691 381.772 373.325 397.806 371.091 413.316C367.805 436.316 364.388 459.974 360.839 483.632Z" fill="#021A14"></path><path d="M304.717 410.95C321.015 377.566 321.015 312.244 321.015 312.244L336.393 410.95H304.717Z" fill="#DCC4DF"></path><path d="M409.732 487.443C403.817 449.197 398.56 412.264 392.909 373.228L391.069 369.023L392.909 368.76L394.749 372.966C400.4 412.133 405.658 449.197 411.572 487.575H409.732V487.443Z" fill="#021A14"></path><path d="M348.09 487.444C344.541 463.654 340.993 439.602 337.575 416.47C335.341 400.961 332.975 384.926 330.609 368.891L332.45 368.628C334.815 384.532 337.181 400.567 339.415 416.207C342.833 439.471 346.381 463.523 349.93 487.444H348.09Z" fill="#021A14"></path><path d="M313.655 412.921L325.089 337.873L340.336 407.532L338.364 412.921H313.655Z" fill="#021A14"></path><path d="M390.937 308.432C375.954 305.935 321.015 309.615 321.015 309.615C321.015 309.615 319.438 384.794 337.181 410.03C355.187 410.03 411.178 410.03 411.178 410.03C411.178 410.03 388.966 361.662 390.937 308.432Z" fill="#ACE1D3"></path><path d="M409.075 410.03L406.446 414.63L337.575 414.761L336.655 410.03H409.075Z" fill="#021A14"></path><path d="M390.806 306.723L390.149 311.324H321.278L321.015 306.723H390.806Z" fill="#021A14"></path><path d="M326.141 309.089C326.141 310.929 324.695 312.375 322.855 312.375C321.015 312.375 319.569 310.929 319.569 309.089C319.569 307.249 321.015 305.803 322.855 305.803C324.695 305.803 326.141 307.249 326.141 309.089Z" fill="#1C2C57"></path><path d="M394.354 309.089C394.354 310.929 392.909 312.375 391.069 312.375C389.229 312.375 387.783 310.929 387.783 309.089C387.783 307.249 389.229 305.803 391.069 305.803C392.777 305.803 394.354 307.249 394.354 309.089Z" fill="#021A14"></path><path d="M379.24 389.789H388.046L387.783 360.348H378.32L379.24 389.789Z" fill="#FF5741"></path><path d="M364.782 389.789H374.245L375.56 345.628H364.782V389.789Z" fill="#FF5741"></path><path d="M351.437 389.762H360.9V353.487H351.437V389.762Z" fill="#F1606D"></path><path d="M351.376 389.789H360.839V353.514H350.324L351.376 389.789Z" fill="#FF5741"></path><path d="M337.97 389.789H347.433V332.484H335.21L337.97 389.789Z" fill="#FF5741"></path><path d="M290.128 477.455C290.128 477.455 288.157 478.506 288.157 480.346C288.157 482.186 287.894 486.392 287.894 486.392L289.734 486.786L290.391 482.843C290.391 482.58 293.677 486.918 295.911 489.152L303.929 489.284C303.929 489.284 304.98 486.786 299.46 484.946C293.94 483.106 290.128 477.455 290.128 477.455Z" fill="#021A14"></path><path d="M296.7 445.254C296.7 443.939 296.963 441.705 297.226 440.391C298.146 435.659 300.117 432.11 301.3 430.27C303.272 429.482 305.112 428.562 307.215 427.773C309.318 426.984 311.552 426.459 314.312 425.802C314.181 426.064 314.049 426.327 314.049 426.59C302.22 457.74 295.649 471.934 294.597 475.352C294.466 475.877 294.334 476.403 294.334 476.929C294.466 478.506 295.254 482.055 299.986 485.34C294.991 486.655 290.26 477.586 290.26 477.586C290.26 477.586 296.437 456.031 296.7 445.254Z" fill="white"></path><path d="M321.146 319.21L320.621 327.621L312.34 325.913L313.26 314.347L321.146 319.21Z" fill="white"></path><path d="M322.986 319.21C324.169 319.21 325.352 318.947 325.878 318.421C329.427 312.901 325.352 297.917 325.352 297.917L312.735 300.152L312.34 310.141C312.209 312.769 313.392 315.398 315.495 317.107C317.729 318.552 320.358 319.341 322.986 319.21Z" fill="white"></path><path d="M314.838 480.478C314.838 480.478 313.129 481.792 313.392 483.632C313.655 485.341 314.181 489.415 314.181 489.415H316.021V485.604C316.021 485.341 319.832 489.415 320.489 489.415H329.952C329.952 489.415 330.61 486.787 324.958 485.998C319.438 485.209 314.838 480.478 314.838 480.478Z" fill="#021A14"></path><path d="M310.106 448.277C309.712 446.962 309.055 444.859 308.792 443.545C308.003 438.813 308.003 432.242 308.397 430.139C309.975 428.825 312.078 429.876 313.655 428.43C315.363 426.853 317.335 425.67 319.701 424.093C319.701 424.356 319.701 424.619 319.701 425.013C319.438 458.397 318.123 473.906 318.386 477.455C318.386 477.98 319.964 484.946 325.615 486.392C321.278 489.284 314.969 480.872 314.969 480.872C314.969 480.872 313.523 458.397 310.106 448.277Z" fill="white"></path><path d="M320.621 326.176L328.507 339.188C329.427 341.29 329.689 343.525 329.295 345.759L324.301 367.971C324.038 369.286 323.906 370.6 323.775 371.914L322.592 430.008H297.226C297.226 430.008 300.511 418.573 302.089 403.721C303.666 388.869 298.934 382.429 300.249 375.989C301.037 372.177 303.271 367.314 306.557 363.371C308.266 361.268 309.186 358.64 309.186 356.011C309.449 344.971 297.883 314.61 308.923 322.101C319.832 329.33 320.621 326.176 320.621 326.176Z" fill="#0C9774"></path><path d="M321.146 359.034L321.804 361.137C322.198 362.32 322.592 362.714 323.512 364.291C326.272 369.023 335.735 380.326 335.735 380.326L343.359 384.663C343.359 384.663 343.227 385.715 341.518 385.452C339.81 385.189 338.496 384.137 338.496 384.137C338.496 384.137 338.233 385.452 339.81 387.949C340.993 389.789 344.804 393.075 342.176 393.6C339.81 392.549 336.918 390.709 336.918 390.709C335.604 389.92 334.684 388.606 334.421 387.16L333.764 383.086L317.598 369.811C315.758 368.365 314.443 366.394 313.786 364.16V364.028L321.146 359.034Z" fill="white"></path><path d="M365.045 345.891C365.439 345.891 366.754 345.891 368.988 344.445C370.959 343.262 374.377 339.319 375.034 341.948C373.982 344.313 373.062 347.336 373.062 347.336C372.274 348.651 369.908 349.702 368.199 349.965L362.942 350.228C362.942 350.228 361.102 348.388 360.97 348.256L361.496 347.336C362.942 347.073 363.993 346.548 365.045 345.891Z" fill="white"></path><path d="M313.129 364.948L321.541 359.297L318.386 336.953L317.598 337.085L320.621 358.902L313.655 363.634L308.397 345.891L307.74 346.153L313.129 364.948Z" fill="#0B7C60"></path><path d="M316.546 303.964C318.912 305.278 321.409 305.672 323.381 305.541C325.878 305.409 329.032 303.438 330.084 301.072C331.004 299.101 331.135 297.129 328.244 294.895C326.272 293.449 323.775 294.369 322.592 295.289C321.804 296.078 320.621 296.078 319.832 295.42C318.255 294.106 315.495 292.397 311.289 292.397C306.952 292.397 306.952 296.603 307.74 299.758C308.135 301.598 307.346 303.569 305.769 304.489C303.14 306.066 299.854 308.695 300.512 311.324C301.037 313.427 302.352 315.398 303.403 316.844C304.455 318.29 304.455 320.261 303.403 321.576C301.826 323.678 299.854 326.833 300.38 329.067C300.906 331.17 302.483 333.93 303.797 335.902C304.717 337.347 304.717 339.056 303.797 340.502C303.14 341.553 302.483 343.13 302.877 344.839C303.14 346.153 303.797 347.336 304.455 348.256C305.637 349.965 308.266 349.702 309.186 347.862C312.078 342.079 317.072 330.119 315.363 321.05C314.443 316.45 313.261 308.432 313.261 308.432C313.261 308.432 311.946 301.992 316.546 303.964Z" fill="#021A14"></path><path d="M323.118 353.119L332.844 358.114C334.027 358.771 335.473 358.902 336.787 358.508L363.468 350.096V346.679L337.444 349.834L329.295 345.628L323.118 353.119Z" fill="white"></path><path d="M311.683 306.329C312.34 305.672 313.655 305.804 314.575 306.592C315.495 307.381 315.626 308.695 314.969 309.352C314.312 310.01 312.998 309.878 312.078 309.09C311.158 308.17 310.895 306.987 311.683 306.329Z" fill="white"></path><path d="M321.146 352.199L323.775 335.639L335.341 348.913L332.187 359.165L321.278 353.514C321.541 352.199 321.146 353.382 321.146 352.199Z" fill="#0C9774"></path><path d="M325.878 361.005C325.615 360.742 325.615 360.742 325.221 360.611L328.901 345.759C329.427 343.656 329.164 341.422 328.244 339.45L320.358 326.57C320.621 326.438 320.489 326.438 320.621 326.176C320.621 326.176 321.015 326.176 321.015 326.044L328.901 338.925C329.952 341.027 330.215 343.525 329.69 345.891" fill="#0B7C60"></path><path d="M366.359 346.285C366.359 346.285 366.491 346.285 366.754 346.416C366.622 346.679 366.491 347.074 366.228 347.336C365.308 348.125 364.256 348.914 363.336 349.702C362.942 349.045 362.416 348.125 362.285 348.125L367.542 341.685C367.542 341.685 368.594 342.079 367.936 343.656C367.542 345.233 366.359 346.285 366.359 346.285Z" fill="white"></path><path d="M193.76 262.678L192.932 267.407C194.351 268.471 196.361 268.471 197.897 267.525L198.134 267.407L199.316 262.678H193.76Z" fill="white"></path><path d="M231.826 152.735C227.57 166.685 213.384 188.082 213.384 188.082L224.615 183.472L232.535 165.266C232.535 165.266 235.964 138.785 231.826 152.735Z" fill="#3BAA88"></path><path d="M201.445 208.652L192.578 263.033H200.381C200.381 263.033 217.995 214.091 219.887 199.668C219.887 191.511 202.036 199.668 202.036 199.668L201.445 208.652Z" fill="#021A14"></path><path d="M230.645 130.746L233.482 138.312L239.866 133.701L235.61 124.835L230.645 130.746Z" fill="white"></path><path d="M228.28 132.047C227.335 132.283 226.389 132.283 225.798 131.928C222.133 128.382 223.079 116.678 223.079 116.678L227.217 113.841L233.719 116.205L235.374 123.653C235.847 125.663 235.374 127.672 233.837 129.328C232.3 130.628 230.408 131.692 228.28 132.047Z" fill="white"></path><path d="M232.418 118.688C231.827 117.505 230.408 116.914 229.226 117.387C228.28 117.742 227.216 118.096 226.152 118.333C223.67 118.806 218.941 118.806 218.114 114.905C217.286 111.003 222.369 111.358 222.369 111.358L228.99 111.949C230.999 112.067 232.891 111.713 234.782 110.885C236.438 110.176 237.856 111.713 238.211 112.658C238.92 114.786 238.211 118.569 237.502 120.934C237.147 122.352 236.556 123.653 235.61 124.835L232.418 118.688Z" fill="#021A14"></path><path d="M236.201 120.343C235.491 119.988 234.546 120.224 233.836 121.052C233.245 121.88 233.245 122.707 233.955 123.18C234.664 123.535 235.61 123.298 236.319 122.471C236.91 121.761 236.792 120.816 236.201 120.343Z" fill="white"></path><path d="M192.814 266.934C192.814 266.934 192.814 272.018 182.648 274.973C180.52 275.564 181.229 276.155 180.874 277.101C184.184 277.101 192.578 277.101 192.578 277.101L197.189 272.018L198.607 273.2L201.917 270.008C201.917 270.008 201.326 265.279 198.844 265.279C196.597 265.87 192.814 266.934 192.814 266.934Z" fill="#021A14"></path><path d="M221.659 261.142L223.551 265.516C225.324 265.989 227.098 265.398 228.28 264.097L228.516 263.861L226.979 259.368L221.659 261.142Z" fill="white"></path><path d="M232.181 136.184C232.181 136.184 231.354 134.883 238.565 131.219C249.323 141.976 252.988 183.471 252.988 183.471C252.988 183.471 227.689 183.471 224.733 183.471C223.669 159.827 232.181 136.184 232.181 136.184Z" fill="#FF5741"></path><path d="M204.164 182.408C204.045 181.817 204.282 181.344 204.755 180.989L209.365 178.27C210.547 177.561 211.848 177.443 213.148 177.679L218.113 177.915L218.823 178.743L219.887 183.117C218.941 182.881 218.35 182.762 218.35 182.762L215.158 182.881C215.158 182.881 209.129 188.437 206.173 183.59C206.055 188.792 204.518 188.319 204.518 188.319L204.164 182.408Z" fill="white"></path><path d="M252.869 183.472L253.342 187.018V187.136C254.051 193.875 249.677 200.022 243.175 201.914C243.175 201.914 230.289 206.17 214.093 207.115C224.733 220.829 227.688 259.25 227.688 259.25L220.832 261.733L194.351 198.485C192.695 194.466 195.06 189.855 199.316 188.91L224.615 183.472H252.869Z" fill="#021A14"></path><path d="M235.255 149.779C235.255 149.779 240.575 154.626 243.648 159.592C244.476 161.01 244.358 162.783 243.294 163.966C237.383 170.704 216.458 177.206 216.458 177.206L217.758 184.89C217.758 184.89 247.55 178.979 258.071 168.458C268.947 157.582 240.929 134.884 240.929 134.884" fill="#FF5741"></path><path d="M243.175 159.71C244.003 160.892 243.885 162.547 242.939 163.611C240.22 166.685 233.127 169.995 226.861 172.359C226.861 172.714 226.861 172.714 226.861 173.187C233.482 170.704 240.693 167.394 243.648 164.084C244.831 162.665 244.949 160.774 244.003 159.237C240.929 154.272 235.609 149.425 235.609 149.425L235.018 150.016C235.018 150.134 240.22 154.863 243.175 159.71Z" fill="#E3412C"></path><path d="M251.806 172.714C240.338 178.861 223.67 183.353 217.64 184.536C217.759 184.89 217.759 185.127 217.877 185.363C223.67 184.181 240.22 179.925 252.042 173.659C251.924 173.305 251.924 172.95 251.806 172.714Z" fill="#E3412C"></path><path d="M193.051 191.629L184.303 160.064L185.84 159.591L194.233 189.737L219.65 185.245L219.887 186.9L193.051 191.629Z" fill="#FF5741"></path><path d="M223.078 264.57C223.078 264.57 223.433 269.653 213.385 272.727C211.257 273.318 211.966 273.909 211.611 274.855C214.921 274.855 223.315 274.855 223.315 274.855L227.925 269.771L229.344 270.954L232.654 267.762C232.654 267.762 231.117 263.033 228.635 263.033C226.389 263.624 223.078 264.57 223.078 264.57Z" fill="#021A14"></path><path d="M461.648 315.267L462.305 323.679L470.585 324.073L467.299 311.061L461.648 315.267Z" fill="white"></path><path d="M458.231 316.844C457.179 316.844 456.259 316.713 455.733 316.187C452.71 311.85 456.128 300.021 456.128 300.021L460.991 298.049L467.168 301.861L467.562 309.747C467.694 311.85 466.642 313.953 464.802 315.267C462.699 316.318 460.465 316.976 458.231 316.844Z" fill="white"></path><path d="M466.117 306.329C465.722 305.015 465.985 301.861 464.539 302.123C463.488 302.255 460.202 302.386 459.019 302.386C456.259 302.386 451.396 301.335 451.396 297.129C451.396 295.026 453.368 293.317 454.682 292.792C455.865 292.266 457.311 292.266 458.625 292.792C461.648 293.843 465.591 296.209 467.168 295.815C469.797 295.289 472.557 296.866 472.425 299.101C472.425 301.466 471.111 305.146 469.928 307.512C469.271 308.827 468.351 310.009 467.168 311.061L466.117 306.329Z" fill="#021A14"></path><path d="M468.877 306.592C468.219 306.066 467.168 306.198 466.379 306.855C465.591 307.512 465.459 308.432 465.985 308.958C466.642 309.484 467.694 309.352 468.482 308.695C469.271 308.169 469.402 307.118 468.877 306.592Z" fill="white"></path><path d="M438.516 321.838C438.384 321.444 437.858 320.13 435.493 318.421C433.39 316.844 428.132 314.741 430.498 313.164C433.39 313.427 436.676 313.295 436.676 313.295C438.384 313.558 440.356 315.661 441.407 317.238L443.904 322.364C443.904 322.364 442.721 324.861 442.721 324.993L441.539 324.73C440.619 323.678 439.567 322.627 438.516 321.838Z" fill="white"></path><path d="M438.384 320.393C438.384 320.393 438.384 320.261 438.253 319.998C438.647 320.13 439.041 320.13 439.304 320.13C440.487 320.787 441.67 321.576 442.853 322.233C442.327 322.89 441.67 323.678 441.67 323.81L433.127 320.656C433.127 320.656 432.995 319.473 434.967 319.473C436.807 319.604 438.384 320.393 438.384 320.393Z" fill="#FAB08A"></path><path d="M451.396 339.319L438.253 326.964L442.722 320.13L460.859 328.673L452.973 342.473L451.396 339.319Z" fill="#021A14"></path><path d="M466.117 318.684C485.043 314.741 481.757 377.303 481.757 377.303H451.922C451.922 377.303 451.527 366.394 450.345 352.594C449.425 340.896 455.996 327.753 466.117 318.684Z" fill="#021A14"></path><path d="M456.259 480.74C456.259 480.74 453.367 483.501 446.664 485.209C445.219 485.604 443.641 485.078 443.641 487.575C446.796 487.575 451.79 487.575 451.79 487.575L458.625 486.392V487.575H462.305C462.305 487.575 463.356 481.529 461.122 480.872C459.019 480.74 456.259 480.74 456.259 480.74Z" fill="#021A14"></path><path d="M456.785 476.535L456.39 480.872C457.705 481.792 459.413 481.792 460.859 481.004L461.122 480.872L461.911 476.535H456.785Z" fill="white"></path><path d="M413.938 338.267C413.544 338.267 412.098 338.005 409.863 336.165C407.892 334.456 404.606 329.856 403.555 332.353C404.343 335.113 405.132 338.399 405.132 338.399C405.789 339.976 408.286 341.422 409.995 342.079L415.515 343.393C415.515 343.393 417.749 341.685 417.881 341.685L417.355 340.633C416.172 339.976 414.989 339.188 413.938 338.267Z" fill="white"></path><path d="M412.492 338.531C412.492 338.531 412.361 338.531 412.098 338.531C412.229 338.925 412.361 339.188 412.492 339.582C413.412 340.502 414.332 341.553 415.252 342.605C415.778 341.948 416.435 341.159 416.435 341.028L411.572 333.273C411.572 333.273 410.389 333.405 410.915 335.245C411.441 337.216 412.492 338.531 412.492 338.531Z" fill="#FAB08A"></path><path d="M485.043 474.826C485.043 474.826 482.151 477.586 475.448 479.295C474.003 479.689 472.425 479.163 472.425 481.661C475.58 481.661 480.574 481.661 480.574 481.661L487.409 480.478V481.661H491.089C491.089 481.661 492.14 475.615 489.906 474.958C487.803 474.826 485.043 474.826 485.043 474.826Z" fill="#021A14"></path><path d="M485.437 470.489L485.043 474.826C486.357 475.746 488.066 475.746 489.512 474.957L489.774 474.826L490.563 470.489H485.437Z" fill="white"></path><path d="M481.757 377.303C481.757 377.303 479.391 389.921 481.494 416.207C481.888 420.807 482.94 425.407 484.649 429.745C490.432 444.465 491.22 471.672 491.22 471.672H484.649L461.385 405.298L481.757 377.303Z" fill="#FF5741"></path><path d="M470.585 339.319C470.585 339.319 465.459 358.508 451.396 360.348C437.333 362.057 414.332 344.445 414.332 344.445L416.829 339.319L441.144 346.153C444.824 347.205 448.767 345.496 450.607 342.21L457.968 328.673L470.585 339.319Z" fill="#021A14"></path><path d="M451.922 377.303L456.259 477.586H462.174C462.174 477.586 468.745 454.191 468.219 435.791C468.088 430.007 469.008 424.093 471.242 418.704C480.18 396.361 481.757 377.303 481.757 377.303H451.922Z" fill="#FF5741"></path><path d="M400.532 328.673L421.561 344.576L445.744 325.65L426.03 311.061L400.532 328.673Z" fill="#FFD874"></path><path d="M428.527 348.519C428.658 346.548 429.052 344.576 429.841 342.868L416.961 339.188L414.463 344.313C414.463 344.313 421.035 349.308 429.184 353.777C428.658 352.068 428.527 350.359 428.527 348.519Z" fill="#021A14"></path><path d="M410.389 342.079L414.989 343.13C415.383 342.079 416.041 341.027 416.698 340.107C415.778 339.582 414.858 339.056 414.069 338.399C413.675 338.399 412.229 338.136 409.995 336.296C410.389 338.005 410.52 339.713 410.52 341.29C410.389 341.422 410.389 341.816 410.389 342.079Z" fill="white"></path><path d="M416.304 340.502L411.703 333.273C411.703 333.273 410.52 333.404 411.046 335.244C411.572 337.084 412.623 338.399 412.623 338.399C412.623 338.399 412.492 338.399 412.229 338.399C412.361 338.793 412.492 339.056 412.623 339.45C413.543 340.37 414.463 341.422 415.383 342.342C415.515 341.816 415.909 341.159 416.304 340.502Z" fill="white"></path><path d="M437.07 317.632H436.939C438.253 318.815 438.647 319.735 438.779 319.998C439.304 320.392 439.83 320.787 440.356 321.312C440.356 320.787 440.487 320.392 440.619 319.998C439.173 319.472 437.99 318.684 437.07 317.632Z" fill="#FAB08A"></path><path d="M437.859 318.421C437.201 318.158 436.281 317.895 435.098 317.895C433.127 317.895 433.258 319.078 433.258 319.078L440.224 321.575C440.224 321.05 440.356 320.655 440.487 320.13C439.436 319.604 438.647 319.078 437.859 318.421Z" fill="white"></path><path d="M461.648 323.153V319.078L468.614 316.187L471.111 319.341L461.648 323.153Z" fill="#021A14"></path><path d="M85.8935 40.7812L81.4082 50.3783L91.4136 47.7281L125.338 35.9038L85.8935 40.7812Z" fill="#0DAB83"></path><path d="M81.4082 50.378L98.3782 48.7738L94.247 46.8466L81.4082 50.378Z" fill="#0CC194"></path><path d="M85.8935 40.7812L82.7148 31.7277L125.338 35.9038L85.8935 40.7812Z" fill="#0DDAA7"></path><path d="M125.338 35.9038L91.4136 47.7281L96.9264 60.8243L125.338 35.9038Z" fill="#0DDAA7"></path><path d="M85.4795 59.6707C85.3519 59.6365 85.3519 59.6365 85.2586 59.4748C84.9443 59.1172 84.9535 58.5729 85.2769 58.3862C86.3497 57.4434 87.3883 56.6281 88.5545 55.847C88.8779 55.6603 89.4222 55.6694 89.7023 56.1546C89.889 56.478 89.8799 57.0223 89.3947 57.3024C88.2627 57.956 87.2241 58.7712 86.3131 59.6207C86.1172 59.8416 85.7004 59.8666 85.4795 59.6707Z" fill="#0DDAA7"></path><path d="M100.54 146.817C100.77 146.469 100.652 145.89 100.269 145.788C98.1444 144.535 96.1221 142.899 94.2023 140.881C93.888 140.524 93.3437 140.515 93.1137 140.863C92.7561 141.177 92.7469 141.722 93.0953 141.952C94.9809 144.097 97.2242 145.929 99.6041 147.25C99.8592 147.318 100.31 147.166 100.54 146.817ZM91.1097 138.139C91.4331 137.952 91.5698 137.442 91.4173 136.991C90.1101 134.727 88.9647 132.37 88.3045 129.732C88.1519 129.281 87.8035 129.051 87.3525 129.204C86.9016 129.356 86.6715 129.705 86.8241 130.156C87.6118 132.827 88.6889 135.44 90.1235 137.738C90.2169 137.9 90.3445 137.934 90.4378 138.096C90.6587 138.292 90.948 138.232 91.1097 138.139ZM86.7014 126.022C87.1182 125.997 87.51 125.555 87.485 125.138L87.4599 124.722C87.2757 122.349 87.2873 119.754 87.554 117.229C87.6565 116.846 87.2489 116.327 86.8321 116.352C86.4495 116.249 85.9302 116.657 85.9552 117.074C85.6543 119.727 85.6085 122.449 85.7586 124.949L85.7837 125.366C85.8429 125.655 86.0638 125.851 86.2847 126.047C86.4122 126.081 86.5397 126.115 86.7014 126.022ZM87.3972 113.222C87.7798 113.325 88.2649 113.045 88.3675 112.662C88.8892 110.205 89.7002 107.688 90.6729 105.078C90.7755 104.696 90.6229 104.245 90.2745 104.015C89.8919 103.912 89.4409 104.065 89.2109 104.413C88.204 107.151 87.3587 109.795 86.7094 112.218C86.6069 112.601 86.7936 112.924 87.1421 113.154C87.2696 113.188 87.3972 113.222 87.3972 113.222ZM91.639 100.963C91.9874 101.193 92.4726 100.913 92.7026 100.564C92.771 100.309 92.9327 100.216 93.001 99.9609C93.8596 100.328 94.7524 100.567 95.6452 100.806C96.0278 100.909 96.5129 100.629 96.6155 100.246C96.718 99.8633 96.4379 99.3782 96.0553 99.2757C95.29 99.0706 94.5248 98.8656 93.7595 98.6605C94.5864 97.105 95.4475 95.422 96.3769 93.4839C96.607 93.1355 96.4885 92.557 96.1059 92.4545C95.7575 92.2244 95.179 92.3428 95.0765 92.7254C94.0196 94.6293 93.1585 96.3124 92.2974 97.9954C91.0562 97.5261 89.9767 96.9634 88.9314 96.2733C88.5829 96.0432 88.0045 96.1616 87.7744 96.51C87.5443 96.8585 87.6627 97.437 88.0112 97.667C89.184 98.3914 90.3911 98.9882 91.5981 99.585C91.5639 99.7125 91.368 99.9335 91.3339 100.061C91.0104 100.248 91.163 100.699 91.639 100.963ZM85.0552 94.4145C85.4128 94.1002 85.422 93.5559 85.0735 93.3258C83.8756 92.1847 82.8395 90.9502 82.0926 89.6565C81.6257 88.8479 81.0656 87.8776 80.7263 87.1032C80.5737 86.6523 80.0636 86.5156 79.6126 86.6681C79.1616 86.8207 79.0249 87.3308 79.1775 87.7818C79.6101 88.7179 80.1703 89.6882 80.7305 90.6585C81.6984 92.148 82.7345 93.3826 84.0257 94.6854C84.1533 94.7196 84.1191 94.8471 84.2467 94.8813C84.4426 94.6604 84.8593 94.6354 85.0552 94.4145ZM100.535 101.433C103.35 101.64 106.174 101.304 108.846 100.516C109.297 100.363 109.527 100.015 109.374 99.5638C109.222 99.1128 108.873 98.8827 108.422 99.0353C105.912 99.7297 103.377 100.007 100.69 99.8341C100.273 99.8591 99.9156 100.173 99.8131 100.556C99.8723 100.845 100.059 101.169 100.28 101.365C100.246 101.492 100.373 101.526 100.535 101.433ZM78.5789 83.3839C79.0299 83.2313 79.2599 82.8829 79.2349 82.4661C78.668 79.9904 78.5521 77.3621 78.8529 74.7088C78.9555 74.3262 78.5478 73.8069 78.131 73.8319C77.7484 73.7293 77.2291 74.137 77.2541 74.5538C76.9191 77.3346 76.9667 80.2179 77.6269 82.8554C77.6861 83.1446 77.907 83.3405 78.0345 83.3747C78.1621 83.4089 78.4172 83.4772 78.5789 83.3839ZM113.424 98.7351C114.071 98.3616 114.717 97.9882 115.237 97.5805C116.922 96.3918 118.421 94.8797 119.571 93.1375C119.801 92.789 119.683 92.2105 119.334 91.9805C118.986 91.7504 118.408 91.8688 118.177 92.2172C117.061 93.8319 115.758 95.1231 114.235 96.2185C113.715 96.6261 113.069 96.9996 112.583 97.2797C112.26 97.4664 112.123 97.9766 112.276 98.4275C112.369 98.5892 112.463 98.751 112.59 98.7851C112.879 98.7259 113.134 98.7943 113.424 98.7351ZM98.6275 89.1659C100.306 86.4718 101.814 84.4153 103.44 82.9373C103.798 82.623 103.807 82.0787 103.459 81.8487C103.144 81.4911 102.6 81.4819 102.37 81.8303C100.71 83.4359 99.04 85.5857 97.327 88.4074C97.097 88.7559 97.2154 89.3343 97.5638 89.5644C97.5638 89.5644 97.5638 89.5644 97.6913 89.5986C97.9464 89.6669 98.3974 89.5144 98.6275 89.1659ZM78.8579 70.6092C79.2405 70.7118 79.6914 70.5592 79.8281 70.0491C80.1357 68.9012 80.5708 67.7875 81.1334 66.708C81.7644 65.3734 82.4888 64.2006 83.2131 63.0277C83.4432 62.6793 83.4523 62.135 82.9764 61.8707C82.6279 61.6407 82.0836 61.6315 81.8194 62.1075C80.9333 63.3737 80.1748 64.6741 79.5438 66.0087C78.9811 67.0882 78.5119 68.3294 78.1701 69.6048C78.1951 70.0216 78.3819 70.345 78.8579 70.6092C78.7303 70.5751 78.8579 70.6092 78.8579 70.6092ZM120.827 88.9629C121.209 89.0654 121.694 88.7853 121.797 88.4027C122.284 86.0728 122.032 83.9547 120.911 82.0141C120.538 81.3673 120.037 80.6863 119.502 80.1328C119.187 79.7752 118.643 79.766 118.413 80.1145C118.056 80.4287 118.046 80.9731 118.395 81.2031C118.837 81.5949 119.244 82.1142 119.49 82.7269C120.296 84.3098 120.651 86.0453 120.139 87.9584C120.036 88.341 120.223 88.6645 120.571 88.8945C120.699 88.9287 120.699 88.9287 120.827 88.9629ZM107.169 80.2456C109.365 79.1936 112.061 78.8226 114.519 79.3443C114.901 79.4469 115.386 79.1668 115.489 78.7841C115.591 78.4015 115.311 77.9164 114.929 77.8139C112.089 77.1896 109.103 77.6198 106.456 78.8244C106.005 78.9769 105.869 79.4871 106.021 79.938C106.114 80.0998 106.208 80.2615 106.335 80.2956C106.59 80.364 106.88 80.3048 107.169 80.2456Z" fill="#FF5741"></path><path d="M104.059 148.99C103.71 148.76 103.524 148.437 103.626 148.054C103.729 147.671 104.214 147.391 104.596 147.494C105.872 147.836 107.054 148.016 108.432 147.975C108.848 147.95 109.29 148.342 109.188 148.724C109.213 149.141 108.821 149.583 108.438 149.48C107.095 149.394 105.623 149.273 104.348 148.931C104.186 149.024 104.186 149.024 104.059 148.99Z" fill="#FF5741"></path><defs><filter id="filter0_d" x="0" y="394" width="97.612" height="97.612" color-interpolation-filters="sRGB"><feFlood flood-opacity="0" result="BackgroundImageFix"></feFlood><feColorMatrix in="SourceAlpha" type="matrix" values="0 0 0 0 0 0 0 0 0 0 0 0 0 0 0 0 0 0 127 0"></feColorMatrix><feOffset dy="10"></feOffset><feGaussianBlur stdDeviation="15"></feGaussianBlur><feColorMatrix type="matrix" values="0 0 0 0 0.0509804 0 0 0 0 0.854902 0 0 0 0 0.654902 0 0 0 0.15 0"></feColorMatrix><feBlend mode="normal" in2="BackgroundImageFix" result="effect1_dropShadow"></feBlend><feBlend mode="normal" in="SourceGraphic" in2="effect1_dropShadow" result="shape"></feBlend></filter><filter id="filter1_d" x="518" y="0" width="80.7576" height="98.2718" color-interpolation-filters="sRGB"><feFlood flood-opacity="0" result="BackgroundImageFix"></feFlood><feColorMatrix in="SourceAlpha" type="matrix" values="0 0 0 0 0 0 0 0 0 0 0 0 0 0 0 0 0 0 127 0"></feColorMatrix><feOffset dy="10"></feOffset><feGaussianBlur stdDeviation="15"></feGaussianBlur><feColorMatrix type="matrix" values="0 0 0 0 0.0509804 0 0 0 0 0.854902 0 0 0 0 0.654902 0 0 0 0.15 0"></feColorMatrix><feBlend mode="normal" in2="BackgroundImageFix" result="effect1_dropShadow"></feBlend><feBlend mode="normal" in="SourceGraphic" in2="effect1_dropShadow" result="shape"></feBlend></filter></defs></svg> 